<?xml version="1.0" encoding="utf-8"?>
<!-- Generator: Adobe Illustrator 23.0.1, SVG Export Plug-In . SVG Version: 6.00 Build 0)  -->
<svg version="1.1" id="Calque_1" xmlns="http://www.w3.org/2000/svg" xmlns:xlink="http://www.w3.org/1999/xlink" x="0px" y="0px"
	 viewBox="0 0 315.6 339.4" style="enable-background:new 0 0 315.6 339.4;" xml:space="preserve">
<style type="text/css">
	.st0{opacity:0.5;fill:url(#SVGID_1_);enable-background:new    ;}
	.st1{fill:url(#SVGID_2_);}
	.st2{fill:#FFFFFF;}
	.st3{fill:#F4A500;}
	.st4{fill:#ECC26F;}
	.st5{enable-background:new    ;}
	.st6{fill:#EBEDED;}
	.st7{fill:#EB2F06;}
	.st8{fill:#E4DA00;}
	.st9{fill:#0C2461;}
	.st10{fill:#1E3799;}
	.st11{fill:#E55039;}
	.st12{opacity:0.5;fill:url(#SVGID_3_);enable-background:new    ;}
	.st13{clip-path:url(#SVGID_5_);fill:#292929;}
	.st14{fill:#1B1B1B;}
	.st15{fill:url(#SVGID_6_);}
	.st16{fill:#CCCCCC;}
	.st17{fill:#444444;}
	.st18{fill:#666666;}
	.st19{fill:url(#SVGID_7_);}
	.st20{fill:#D7D7D7;}
	.st21{fill:#B02304;}
	.st22{opacity:0.43;}
	.st23{fill:#F8C291;}
	.st24{opacity:0.53;}
	.st25{fill:#D4ECFF;}
	.st26{fill:#FFB587;}
	.st27{fill:#E0E0E0;}
	.st28{fill:#3C6382;}
	.st29{fill:#2C1D1A;}
</style>
<g>
	<g>
		
			<linearGradient id="SVGID_1_" gradientUnits="userSpaceOnUse" x1="24.374" y1="48.1383" x2="137.5276" y2="-12.2367" gradientTransform="matrix(1 0 0 1 0 116)">
			<stop  offset="2.448450e-02" style="stop-color:#FFFFFF"/>
			<stop  offset="0.9807" style="stop-color:#FFFFFF;stop-opacity:0"/>
		</linearGradient>
		<path class="st0" d="M156.5,53.1L32.4,124.7c-2.3,1.3-4.1,4.5-4.1,7.2l0.2,65.8c0,2.6,1.9,3.7,4.2,2.4l123.8-71.6V53.1z"/>
		<g>
			
				<linearGradient id="SVGID_2_" gradientUnits="userSpaceOnUse" x1="-8.0375" y1="58.2042" x2="140.1277" y2="7.1898" gradientTransform="matrix(1 0 0 1 0 116)">
				<stop  offset="0" style="stop-color:#3EB2FA"/>
				<stop  offset="0.1613" style="stop-color:#3EAEF7"/>
				<stop  offset="0.3138" style="stop-color:#3EA2F0"/>
				<stop  offset="0.4627" style="stop-color:#3D8FE5"/>
				<stop  offset="0.6095" style="stop-color:#3C74D4"/>
				<stop  offset="0.7994" style="stop-color:#3B52BF"/>
				<stop  offset="1" style="stop-color:#0C2461"/>
			</linearGradient>
			<path class="st1" d="M139,78.9c0-2.6-1.9-3.7-4.2-2.4l-92,53.1c-2.3,1.3-4.1,4.5-4.1,7.2l0.2,65.8c0,2.6,1.9,3.7,4.2,2.4l92-53.1
				c2.3-1.3,4.1-4.5,4.1-7.2L139,78.9z"/>
			<g>
				<g>
					<path class="st2" d="M102,105.8l1.1-0.6l-1.2,8l-1,0.6l0.1-0.6c-0.4,0.6-0.9,1.1-1.5,1.5c-1.1,0.7-2,0.3-2-1.1
						c0-1.8,1.1-3.7,2.6-4.6c0.7-0.4,1.3-0.4,1.6-0.1L102,105.8z M99.7,113.5c0.9-0.5,1.6-1.7,1.6-2.9c0-0.8-0.4-1.1-1.2-0.6
						c-0.9,0.5-1.6,1.7-1.6,2.9C98.5,113.7,98.9,113.9,99.7,113.5"/>
				</g>
				<g>
					<path class="st2" d="M96.2,140.7c1.7-1,2.7-0.2,2.7,2.1c0,2.5-1.2,4.6-3,5.6c-0.6,0.3-1.2,0.5-1.6,0.5l0.4-1
						c0.3,0.1,0.8-0.1,1.2-0.4c1.3-0.8,2.1-2.2,2.1-4v-0.3c-0.4,0.9-1.1,1.6-1.9,2c-1.3,0.7-2.2,0.4-2.2-1
						C94,142.9,94.9,141.5,96.2,140.7z M96.3,144.4c0.9-0.5,1.5-1.5,1.5-2.3s-0.5-1.1-1.5-0.5c-0.8,0.5-1.4,1.4-1.4,2.3
						C94.9,144.7,95.4,144.9,96.3,144.4"/>
				</g>
				<g>
					<polygon class="st2" points="101.8,137.6 101.8,145 100.9,145.5 100.9,139.1 99.4,139.9 99.4,139 					"/>
				</g>
				<g>
					<polygon class="st2" points="125.8,123.7 125.8,131.1 124.9,131.7 124.9,125.2 123.4,126 123.4,125.1 					"/>
				</g>
				<g>
					<path class="st2" d="M131.3,120.5v0.7l-1.7,3.3c1.3-0.6,1.9-0.1,1.9,1c0,1.2-0.8,2.7-2.4,3.7c-0.9,0.5-1.8,0.7-2.4,0.5l0.4-1.1
						c0.4,0.2,1.2,0.1,1.9-0.3c1-0.6,1.5-1.4,1.5-2.2s-0.5-1-1.6-0.4l-0.5,0.3v-0.7l1.6-3.2l-3.1,1.8V123L131.3,120.5z"/>
				</g>
				<g>
					<path class="st3" d="M123.3,140.7c1.6,0.4,2.6,2,2.6,4.5v0.1c0,2.5-1.1,5.3-2.8,7.6c-1.6-0.4-2.6-2-2.6-4.3c0-0.1,0-0.2,0-0.2
						C120.5,145.8,121.6,143,123.3,140.7z"/>
				</g>
				<g>
					<path class="st4" d="M52.3,131.1v2.3l-8,4.6c0.1-1.3,1.1-2.9,2.2-3.5L52.3,131.1z"/>
				</g>
				<g>
					<path class="st2" d="M86.2,115.2c1-0.6,1.9-0.7,2.3-0.2l-0.8,1.2c-0.3-0.3-0.8-0.3-1.6,0.1c-1.5,0.9-2.5,2.8-2.5,4.4
						c0,1.1,0.7,1.5,1.9,0.8c0.7-0.4,1.3-1,1.7-1.8l0.7,0.4c-0.6,1.1-1.4,2-2.4,2.5c-1.8,1.1-2.9,0.5-2.9-1.3
						C82.6,119.2,84,116.5,86.2,115.2z"/>
				</g>
				<g>
					<path class="st2" d="M92.1,113.5l-0.2,1.3c-0.1,0-0.2,0.1-0.3,0.1c-0.8,0.5-1.4,1.3-1.6,2.5l-0.4,2.9l-1.1,0.6l0.9-5.8l1-0.6
						l-0.1,0.7C90.8,114.5,91.4,114,92.1,113.5z"/>
				</g>
				<g>
					<path class="st2" d="M96.9,113.1c0,0.3,0,0.5-0.1,0.8l-3.6,2.1c0,0.8,0.4,1,1.3,0.5c0.5-0.3,1-0.8,1.3-1.3l0.5,0.6
						c-0.5,0.8-1.2,1.4-1.9,1.8c-1.4,0.8-2.3,0.4-2.3-1c0-1.8,1.1-3.7,2.6-4.6C96,111.3,96.9,111.6,96.9,113.1z M93.3,115.1l2.6-1.5
						c0-0.8-0.5-1-1.2-0.6S93.4,114.2,93.3,115.1"/>
				</g>
				<g>
					<path class="st2" d="M105,103.8c0.4-0.2,0.6-0.1,0.6,0.3c0,0.5-0.3,1-0.7,1.2c-0.4,0.2-0.6,0.1-0.6-0.3
						C104.3,104.5,104.6,104,105,103.8z"/>
				</g>
				<g>
					<polygon class="st2" points="103.3,112.4 104.2,106.6 105.2,106 104.3,111.8 					"/>
				</g>
				<g>
					<path class="st2" d="M108,103.2l-0.2,1.3l1.2-0.7l-0.2,1.1l-1.2,0.7l-0.4,2.7c0,0.1,0,0.2,0,0.2c0,0.4,0.2,0.5,0.5,0.3
						c0.2-0.1,0.4-0.3,0.6-0.6l0.2,0.8c-0.3,0.4-0.7,0.7-1.1,0.9c-0.8,0.4-1.3,0.2-1.3-0.6c0-0.1,0-0.3,0-0.4l0.4-2.7l-0.7,0.4
						l0.2-1.1l0.7-0.4l0.2-1.3L108,103.2z"/>
				</g>
				<g>
					<path class="st2" d="M115.6,98.3c1-0.6,1.9-0.7,2.3-0.2l-0.8,1.2c-0.3-0.3-0.8-0.3-1.5,0.1c-1.5,0.9-2.5,2.8-2.5,4.4
						c0,1.1,0.7,1.5,1.9,0.8c0.7-0.4,1.3-1,1.7-1.8l0.7,0.4c-0.6,1.1-1.4,2-2.4,2.5c-1.8,1.1-2.9,0.5-2.9-1.3
						C111.9,102.2,113.4,99.6,115.6,98.3z"/>
				</g>
				<g>
					<path class="st2" d="M122.1,96.3l1.1-0.6l-0.9,5.8l-1,0.6l0.1-0.6c-0.4,0.6-0.9,1.1-1.5,1.5c-1.1,0.6-2,0.3-2-1.2
						c0-1.8,1.1-3.7,2.6-4.6c0.7-0.4,1.3-0.4,1.6-0.1L122.1,96.3z M120.1,101.7c0.9-0.5,1.6-1.7,1.6-2.9c0-0.8-0.4-1.1-1.2-0.6
						c-0.9,0.5-1.6,1.7-1.6,2.9C118.9,101.9,119.3,102.1,120.1,101.7"/>
				</g>
				<g>
					<path class="st2" d="M131.8,88.6l1.1-0.6l-1.2,8l-1,0.6l0.1-0.6c-0.4,0.6-0.9,1.1-1.5,1.5c-1.1,0.7-2,0.3-2-1.2
						c0-1.8,1.1-3.7,2.6-4.6c0.7-0.4,1.3-0.4,1.6-0.1L131.8,88.6z M129.5,96.3c0.9-0.5,1.6-1.7,1.6-2.9c0-0.8-0.4-1.1-1.2-0.6
						c-0.9,0.5-1.6,1.7-1.6,2.9C128.3,96.5,128.7,96.7,129.5,96.3"/>
				</g>
				<g class="st5">
					<g>
						<path class="st2" d="M82.9,151.4c1.3-0.7,2.2-0.4,2.2,1s-1,2.9-2.3,3.6c-1.7,1-2.7,0.2-2.7-2.1c0-2.5,1.2-4.6,3-5.6
							c0.6-0.3,1.2-0.5,1.6-0.5l-0.3,1c-0.3-0.1-0.8,0.1-1.2,0.4c-1.3,0.8-2.1,2.2-2.1,4c0,0.1,0,0.2,0,0.3
							C81.4,152.6,82.1,151.9,82.9,151.4z M82.8,155.2c0.8-0.5,1.4-1.4,1.4-2.3c0-0.9-0.6-1.1-1.5-0.6s-1.5,1.5-1.5,2.3
							S81.8,155.8,82.8,155.2"/>
					</g>
					<g>
						<path class="st4" d="M52.8,144.9v-2.3l8-4.6c-0.1,1.3-1.1,2.9-2.2,3.5L52.8,144.9z"/>
					</g>
					<g>
						<path class="st4" d="M54.8,137.9c0.3-0.6,0.4-1,0.4-1.3l5.7-3.3v4.2l-8,4.6v-2.2C53.7,139.3,54.4,138.7,54.8,137.9z"/>
					</g>
					<g>
						<path class="st4" d="M44.3,147.6l8.1-4.7v2.3l-5.9,3.4C45.4,149.2,44.4,148.8,44.3,147.6z"/>
					</g>
					<g>
						<polygon class="st4" points="52.3,133.9 52.3,136 44.3,140.7 44.3,138.5 						"/>
					</g>
					<g>
						<path class="st6" d="M52.8,130.8v2.3l8-4.6v0.5l-8,4.6v2.2c0.8-0.5,2.1-0.8,2.3,0.4l5.7-3.3v0.5l-5.7,3.3
							c0,0.3-0.1,0.7-0.4,1.3c-0.4,0.8-1.1,1.4-2,2v2.2l8-4.6v0.5l-8,4.6v2.3l-0.4,0.3V143l-8.1,4.7v-0.3v-0.3l8.1-4.7v-2.2
							l-8.1,4.7v-0.5l8.3-4.8c0.9-0.5,1.5-1.1,1.8-1.8c0.3-0.6,0.3-1.1,0.3-1.1c-0.1-1.4-1.6-0.6-2-0.4c-0.1,0-0.1,0.1-0.1,0.1
							l-0.2,0.2l-8,4.6v-0.5l8-4.6v-2.2l-8,4.6v-0.3v-0.3l8-4.6V131L52.8,130.8z"/>
					</g>
					<g>
						<path class="st2" d="M89.7,148.1c0.7-0.1,1.1,0.3,1.1,1.1c0,1.3-1,2.7-2.6,3.7c-1.6,0.9-2.5,0.6-2.6-0.7
							c0-0.8,0.4-1.7,1.1-2.4c-0.6,0-0.9-0.3-0.9-1.1c0-1.2,0.9-2.5,2.3-3.3c1.4-0.8,2.3-0.6,2.3,0.7
							C90.6,146.7,90.3,147.4,89.7,148.1z M88.3,152c1-0.6,1.6-1.5,1.6-2.3s-0.6-1-1.7-0.4c-1,0.6-1.6,1.4-1.6,2.3
							C86.7,152.4,87.3,152.6,88.3,152 M88.3,146.2c-0.9,0.5-1.4,1.3-1.4,2s0.5,0.9,1.4,0.4s1.4-1.3,1.4-2
							C89.7,145.8,89.1,145.7,88.3,146.2"/>
					</g>
					<g>
						<path class="st4" d="M52.8,133.6l8-4.6v3.9l-5.7,3.3c-0.3-1.2-1.5-0.8-2.3-0.4V133.6z"/>
					</g>
					<g>
						<path class="st4" d="M58.6,127.4c1.1-0.7,2.1-0.2,2.2,1l-8,4.6v-2.3L58.6,127.4z"/>
					</g>
					<g>
						<polygon class="st4" points="52.4,140.2 52.4,142.4 44.3,147.1 44.3,144.8 						"/>
					</g>
					<g>
						<path class="st4" d="M54.4,137.8c-0.3,0.7-1,1.2-1.8,1.8l-8.3,4.8v-3.1l8-4.6l0.2-0.1c0,0,0.1,0,0.1-0.1c0.5-0.3,1.9-1,2,0.4
							C54.7,136.7,54.8,137.2,54.4,137.8z"/>
					</g>
				</g>
				<g>
					<polygon class="st2" points="48.1,168.6 48.2,176 47.2,176.5 47.2,170 45.8,170.9 45.8,169.9 					"/>
				</g>
				<g>
					<path class="st2" d="M51.6,166.5c1.3-0.8,2.2-0.5,2.2,0.8c0,0.7-0.2,1.5-1,2.9l-2,3.3l3.3-1.9v0.9l-4.6,2.7v-0.7l2.6-4.4
						c0.7-1.2,0.8-1.7,0.8-2.2c0-0.8-0.5-1-1.4-0.4c-0.7,0.4-1.2,1-1.6,1.7l-0.6-0.3C49.7,168,50.6,167.1,51.6,166.5z"/>
				</g>
				<g>
					<path class="st2" d="M59,162.3v0.7l-1.7,3.4c1.3-0.6,1.9-0.1,1.9,1c0,1.2-0.8,2.7-2.4,3.7c-0.9,0.5-1.8,0.7-2.4,0.5l0.4-1.1
						c0.4,0.2,1.1,0.1,1.9-0.3c1-0.6,1.5-1.4,1.5-2.2s-0.5-1-1.6-0.4l-0.5,0.3v-0.7l1.6-3.2l-3.1,1.8v-0.9L59,162.3z"/>
				</g>
				<g>
					<polygon class="st2" points="64.2,159.3 61.1,165.8 63.6,164.3 63.6,162.7 64.4,162.2 64.4,163.8 65.7,163.1 65.7,164 
						64.4,164.7 64.5,166.6 63.6,167.1 63.6,165.3 60,167.3 60,166.6 63.3,159.8 					"/>
				</g>
				<g>
					<path class="st2" d="M72.8,154.3v0.9l-2.9,1.6l-0.2,2.1l0.7-0.4c1.9-1.1,2.7-0.6,2.7,0.7s-0.8,2.8-2.4,3.7
						c-0.9,0.5-1.8,0.7-2.4,0.5l0.4-1.1c0.4,0.2,1.2,0.1,1.9-0.3c1-0.6,1.5-1.4,1.5-2.2s-0.5-1.1-2-0.2l-1.5,0.8l0.3-4.1L72.8,154.3
						z"/>
				</g>
				<g>
					<polygon class="st2" points="78.1,151.3 75,157.7 77.5,156.3 77.5,154.7 78.3,154.2 78.3,155.8 79.6,155.1 79.6,156 
						78.3,156.7 78.3,158.5 77.5,159.1 77.4,157.2 73.9,159.3 73.9,158.6 77.1,151.8 					"/>
				</g>
				<g>
					<path class="st2" d="M105.8,135.2c1.5-0.9,2.6-0.1,2.6,2.3c0,2.4-1.1,4.4-2.6,5.3c-1.5,0.9-2.6,0.1-2.6-2.3
						C103.2,138.1,104.3,136.1,105.8,135.2z M105.8,141.8c1-0.6,1.7-1.9,1.7-3.8c0-1.9-0.7-2.4-1.7-1.9c-1,0.6-1.7,1.9-1.7,3.8
						C104.1,141.9,104.8,142.4,105.8,141.8"/>
				</g>
				<g>
					<polygon class="st2" points="111.3,132.1 111.3,139.5 110.4,140 110.4,133.6 108.9,134.4 108.9,133.5 					"/>
				</g>
				<g>
					<polygon class="st2" points="117.1,128.7 117.2,136.1 116.2,136.7 116.2,130.2 114.8,131 114.8,130.1 					"/>
				</g>
				<g>
					<path class="st7" d="M119.4,141.5c0.1,0,0.1-0.1,0.2-0.1c1.4-0.8,2.7-1,3.7-0.7c-1.7,2.3-2.8,5-2.8,7.6c0,0.1,0,0.2,0,0.2
						c0,2.4,1,3.9,2.6,4.3c-1,1.4-2.3,2.6-3.6,3.3l-0.1,0.1c-3.5,2-6.4,0.2-6.3-3.9C113.1,148.3,115.9,143.5,119.4,141.5z"/>
				</g>
				<g>
					<path class="st8" d="M126.8,137.4l0.1-0.1c3.5-1.9,6.4-0.2,6.3,3.9c-0.1,4.1-2.9,8.9-6.4,10.9l-0.1,0.1c-1.4,0.8-2.7,1-3.7,0.7
						c1.7-2.3,2.8-5.1,2.8-7.6v-0.1c0-2.4-1-4-2.6-4.5C124.3,139.3,125.5,138.1,126.8,137.4z"/>
				</g>
				<g>
					<path class="st2" d="M120.6,126.7c1.3-0.8,2.2-0.5,2.2,0.8c0,0.7-0.2,1.5-1.1,2.9l-2,3.3l3.3-1.9v0.9l-4.6,2.7v-0.7l2.6-4.4
						c0.7-1.2,0.8-1.7,0.8-2.2c0-0.8-0.5-1-1.4-0.4c-0.7,0.4-1.2,1-1.6,1.7l-0.6-0.3C118.7,128.2,119.6,127.2,120.6,126.7z"/>
				</g>
				<g>
					<path class="st2" d="M127.2,93.2l-0.2,1.3c-0.1,0-0.2,0.1-0.3,0.1c-0.8,0.5-1.4,1.3-1.6,2.5l-0.4,2.9l-1.1,0.6l0.9-5.8l1-0.6
						l-0.1,0.7C125.9,94.2,126.5,93.7,127.2,93.2z"/>
				</g>
			</g>
		</g>
	</g>
	<g>
		<g>
			<path class="st9" d="M69.5,266.7l26-15L95.4,211l-6.3,3.6v-2.3c0-4.4-3.2-6.2-7-4c-3.9,2.2-7,7.7-7,12.1v2.3l-5.9,3.4v40.8
				C69.5,266.6,69.5,266.7,69.5,266.7z M76.7,219.4c0-3.4,2.4-7.6,5.4-9.3s5.4-0.3,5.4,3.1v2.3l-10.8,6.2V219.4z"/>
			<g>
				<g>
					<polygon class="st10" points="69.1,226 69.2,266.7 76.8,271.2 76.7,230.5 					"/>
				</g>
			</g>
			<g>
				<g>
					<polygon class="st9" points="95.4,211 95.3,251.7 103,256 103.1,215.2 					"/>
				</g>
			</g>
			<path class="st10" d="M76.7,230.5l0.1,40.7l26.4-15.2l-0.1-40.7l-6.3,3.6v-2.3c0-4.4-3.2-6.2-7-4c-3.9,2.2-7,7.7-7,12.1v2.3
				L76.7,230.5z M84.5,223.7c0-3.4,2.4-7.6,5.4-9.3s5.4-0.3,5.4,3.1v2.3L84.5,226V223.7z"/>
		</g>
		<g>
			<path class="st11" d="M91.4,280.3l26-15l-0.1-40.7l-6.3,3.6v-2.3c0-4.4-3.2-6.2-7-4c-3.9,2.2-7,7.7-7,12.1v2.3l-5.9,3.4v40.8
				C91.4,280.3,91.4,280.3,91.4,280.3z M98.7,233.1c0-3.4,2.4-7.6,5.4-9.3s5.4-0.3,5.4,3.1v2.3l-10.8,6.2V233.1z"/>
			<g>
				<g>
					<polygon class="st7" points="91.1,239.7 91.2,280.4 98.8,284.9 98.6,244.2 					"/>
				</g>
			</g>
			<g>
				<g>
					<polygon class="st11" points="117.4,224.6 117.2,265.4 124.9,269.7 125.1,228.9 					"/>
				</g>
			</g>
			<path class="st7" d="M98.6,244.2l0.1,40.7l26.4-15.3l-0.1-40.7l-6.3,3.6v-2.3c0-4.4-3.2-6.2-7-4c-3.9,2.2-7,7.7-7,12.1v2.3
				L98.6,244.2z M106.4,237.4c0-3.4,2.4-7.6,5.4-9.3s5.4-0.3,5.4,3.1v2.3l-10.8,6.2V237.4z"/>
		</g>
	</g>
	<g>
		
			<linearGradient id="SVGID_3_" gradientUnits="userSpaceOnUse" x1="217.9453" y1="27.8362" x2="283.2394" y2="27.8362" gradientTransform="matrix(1 0 0 1 0 116)">
			<stop  offset="2.448450e-02" style="stop-color:#FFFFFF"/>
			<stop  offset="0.9807" style="stop-color:#FFFFFF;stop-opacity:0"/>
		</linearGradient>
		<path class="st12" d="M277.3,79.7L277.3,79.7c0-0.2,0-0.4,0-0.5c0-0.2,0-0.4,0-0.5c0-0.2,0-0.4,0-0.5c0-0.2,0-0.4-0.1-0.5
			c0-0.2-0.1-0.4-0.1-0.6s-0.1-0.4-0.1-0.6s-0.1-0.4-0.1-0.6s-0.1-0.4-0.1-0.6s-0.1-0.4-0.2-0.6c-0.1-0.2-0.1-0.4-0.2-0.6
			s-0.1-0.4-0.2-0.6c-0.1-0.2-0.1-0.4-0.2-0.6s-0.1-0.4-0.2-0.5c-0.1-0.2-0.1-0.4-0.2-0.5c-0.1-0.2-0.2-0.4-0.2-0.5
			c-0.1-0.2-0.2-0.4-0.2-0.5c-0.1-0.2-0.2-0.4-0.3-0.6s-0.2-0.4-0.3-0.7c-0.2-0.3-0.4-0.7-0.6-1c-0.3-0.4-0.5-0.9-0.8-1.3
			c-0.2-0.3-0.5-0.7-0.7-1c-0.2-0.2-0.3-0.4-0.5-0.7c-0.1-0.2-0.3-0.4-0.4-0.5c-0.1-0.2-0.3-0.3-0.4-0.5s-0.3-0.3-0.4-0.5
			c-0.2-0.2-0.3-0.3-0.5-0.5c-0.2-0.2-0.3-0.3-0.5-0.5c-0.2-0.2-0.3-0.3-0.5-0.5c-0.2-0.1-0.3-0.3-0.5-0.4c-0.2-0.1-0.3-0.3-0.5-0.4
			c-0.2-0.1-0.3-0.3-0.5-0.4c-0.2-0.1-0.3-0.2-0.5-0.3c-0.2-0.1-0.3-0.2-0.5-0.3c-0.2-0.1-0.3-0.2-0.5-0.3c0,0-0.1,0-0.1-0.1
			l-64.8-39.9c-0.1-0.1-0.2-0.1-0.4-0.2s-0.3-0.2-0.5-0.2c-0.1,0-0.2-0.1-0.3-0.1c0,0,0,0-0.1,0H200c-0.2-0.1-0.3-0.1-0.4-0.2
			c-0.2-0.1-0.3-0.1-0.5-0.2H199c0,0,0,0-0.1,0s-0.2-0.1-0.3-0.1c-0.2,0-0.3-0.1-0.5-0.1c-0.1,0-0.1,0-0.2,0h-0.1h-0.1
			c-0.2,0-0.3-0.1-0.5-0.1l0,0l0,0l0,0c-0.1,0-0.2,0-0.3,0h-0.1h-0.1c-0.2,0-0.4,0-0.5,0s-0.2,0-0.2,0c-0.1,0-0.1,0-0.2,0
			c-0.1,0-0.1,0-0.2,0c-0.2,0-0.4,0.1-0.6,0.1l0,0h-0.1c-0.2,0-0.4,0.1-0.6,0.2c-0.3,0.1-0.6,0.3-0.9,0.4l-1.7,5.7l0,0
			c-2,1.2-3.3,3.7-3.3,7.2L187.9,211c0,7.1,5,15.8,11.2,19.4l62.8,36.3c3.3,1.9,6.3,2,8.3,0.5c-0.1,0.1-0.2,0.2-0.4,0.3l3.7-2.1
			c0.2-0.1,0.4-0.3,0.6-0.5c0.1,0,0.1-0.1,0.2-0.2s0.3-0.3,0.4-0.4s0.1-0.1,0.2-0.2c0.2-0.2,0.3-0.4,0.4-0.6c0,0,0-0.1,0.1-0.1l0,0
			c0.2-0.2,0.3-0.5,0.4-0.8l0,0v-0.1c0.1-0.2,0.2-0.3,0.2-0.5c0-0.1,0.1-0.2,0.1-0.3c0-0.1,0-0.1,0.1-0.2c0-0.1,0-0.1,0-0.1
			c0.1-0.2,0.1-0.4,0.1-0.6c0-0.1,0-0.1,0-0.2v-0.1c0-0.1,0-0.1,0-0.2c0-0.2,0.1-0.4,0.1-0.5s0-0.2,0-0.3v-0.1v-0.1
			c0-0.2,0-0.3,0-0.5c0-0.1,0-0.4,0-0.5l0,0l0,0l0,0l0.5-178l0,0C277.3,79.9,277.3,79.8,277.3,79.7L277.3,79.7z M264.6,265.1
			C264.6,265.1,264.7,265.1,264.6,265.1L264.6,265.1C264.7,265.1,264.6,265.1,264.6,265.1z M267,262.2L267,262.2L267,262.2
			L267,262.2z M267,265.2L267,265.2L267,265.2L267,265.2z M268.6,260.1c0,0,0,0.1-0.1,0.1C268.6,260.2,268.6,260.2,268.6,260.1
			L268.6,260.1z"/>
		<g>
			<g>
				<g class="st5">
					<g class="st5">
						<g>
							<g>
								<defs>
									<path id="SVGID_4_" d="M259.5,271.5l-3.7,2.1c2-1.2,3.3-3.7,3.3-7.2l3.7-2.1C262.8,267.9,261.6,270.4,259.5,271.5z"/>
								</defs>
								<clipPath id="SVGID_5_">
									<use xlink:href="#SVGID_4_"  style="overflow:visible;"/>
								</clipPath>
								<path class="st13" d="M259.2,266.5l3.7-2.1l0,0L259.2,266.5L259.2,266.5"/>
							</g>
						</g>
					</g>
					<path class="st14" d="M177.7,32l3.7-2.1c0.3-0.2,0.6-0.3,0.9-0.4l-3.7,2.1C178.3,31.7,178,31.8,177.7,32"/>
					<g>
						
							<linearGradient id="SVGID_6_" gradientUnits="userSpaceOnUse" x1="216.8841" y1="-37.6972" x2="216.8841" y2="158.9703" gradientTransform="matrix(1 0 0 1 0 116)">
							<stop  offset="0" style="stop-color:#6A89CC"/>
							<stop  offset="0.4162" style="stop-color:#4765BA"/>
							<stop  offset="0.7948" style="stop-color:#1E3799"/>
							<stop  offset="0.9572" style="stop-color:#0C2461"/>
						</linearGradient>
						<path class="st15" d="M248.5,73.7c3.9,2.3,7.1,7.8,7.1,12.3l-0.5,178.1c0,4.5-3.2,6.3-7.1,4.1l-62.8-36.3
							c-3.9-2.3-7.1-7.8-7.1-12.3l0.4-178.1c0-4.5,3.2-6.3,7.1-4.1l7.8,4.5c1,0.6,1.9,2,1.9,3.2V47c0,2.7,1.9,6,4.2,7.3l35,20.2
							c2.3,1.4,4.2,0.3,4.3-2.4v-1.9c0-1.2,0.8-1.7,1.9-1.1L248.5,73.7z"/>
					</g>
					<g>
						<path class="st16" d="M248.5,71.4c5.1,2.9,9.1,10,9.1,15.8l-0.5,178.1c0,5.8-4.1,8.2-9.2,5.2l-62.8-36.3
							c-5.1-2.9-9.2-10-9.1-15.8l0.5-178.1c0-5.8,4.1-8.2,9.2-5.2L248.5,71.4z M255.1,264.1L255.6,86c0-4.5-3.2-10-7.1-12.3
							l-7.8-4.5c-1-0.6-1.9-0.1-1.9,1.1v1.9c0,2.7-1.9,3.8-4.3,2.4l-35-20.2c-2.3-1.4-4.2-4.6-4.2-7.3v-1.9c0-1.2-0.8-2.6-1.9-3.2
							l-7.8-4.5c-3.9-2.3-7.1-0.4-7.1,4.1L178,219.7c0,4.5,3.2,10,7.1,12.3l62.8,36.3C251.8,270.4,255,268.6,255.1,264.1"/>
					</g>
					<g>
						<path class="st17" d="M248.5,69c6.2,3.6,11.2,12.2,11.2,19.4l-0.5,178.1c0,7.1-5.1,10-11.2,6.4l-62.8-36.3
							C179,233,174,224.4,174,217.2l0.5-178.1c0-7.1,5.1-10,11.2-6.4L248.5,69z M257.1,265.3l0.5-178.1c0-5.8-4.1-12.9-9.1-15.8
							l-62.8-36.3c-5.1-2.9-9.2-0.6-9.2,5.2L176,218.4c0,5.8,4.1,12.9,9.1,15.8l62.8,36.3C253,273.5,257.1,271.1,257.1,265.3"/>
					</g>
					<path class="st18" d="M263.3,86.2L263.3,86.2c0-0.2,0-0.4,0-0.5c0-0.2,0-0.4,0-0.5c0-0.2,0-0.4,0-0.5c0-0.2,0-0.4-0.1-0.5
						c0-0.2-0.1-0.4-0.1-0.6S263,83.2,263,83s-0.1-0.4-0.1-0.6s-0.1-0.4-0.1-0.6s-0.1-0.4-0.2-0.6c-0.1-0.2-0.1-0.4-0.2-0.6
						s-0.1-0.4-0.2-0.6c-0.1-0.2-0.1-0.4-0.2-0.6s-0.1-0.4-0.2-0.5c-0.1-0.2-0.1-0.4-0.2-0.5c-0.1-0.2-0.2-0.4-0.2-0.5
						c-0.1-0.2-0.2-0.4-0.2-0.5c-0.1-0.2-0.2-0.4-0.3-0.6s-0.2-0.4-0.3-0.7c-0.2-0.3-0.4-0.7-0.6-1c-0.3-0.4-0.5-0.9-0.8-1.3
						c-0.2-0.3-0.5-0.7-0.7-1c-0.2-0.2-0.3-0.4-0.5-0.7c-0.1-0.2-0.3-0.4-0.4-0.5c-0.1-0.2-0.3-0.3-0.4-0.5s-0.3-0.3-0.4-0.5
						c-0.2-0.2-0.3-0.3-0.5-0.5c-0.2-0.2-0.3-0.3-0.5-0.5s-0.3-0.3-0.5-0.5c-0.2-0.1-0.3-0.3-0.5-0.4s-0.3-0.3-0.5-0.4
						s-0.3-0.3-0.5-0.4s-0.3-0.2-0.5-0.3c-0.2-0.1-0.3-0.2-0.5-0.3c-0.2-0.1-0.3-0.2-0.5-0.3c0,0-0.1,0-0.1-0.1l-62.8-36.3
						c-0.1-0.1-0.2-0.1-0.4-0.2c-0.2-0.1-0.3-0.2-0.5-0.2c-0.1,0-0.2-0.1-0.3-0.1c0,0,0,0-0.1,0H188c-0.2-0.1-0.3-0.1-0.4-0.2
						c-0.2-0.1-0.3-0.1-0.5-0.2H187c0,0,0,0-0.1,0s-0.2-0.1-0.3-0.1c-0.2,0-0.3-0.1-0.5-0.1c-0.1,0-0.1,0-0.2,0h-0.1h-0.1
						c-0.2,0-0.3-0.1-0.5-0.1l0,0l0,0l0,0c-0.1,0-0.2,0-0.3,0h-0.1h-0.1c-0.2,0-0.4,0-0.5,0s-0.2,0-0.2,0c-0.1,0-0.1,0-0.2,0
						c-0.1,0-0.1,0-0.2,0c-0.2,0-0.4,0.1-0.6,0.1l0,0h-0.1c-0.2,0-0.4,0.1-0.6,0.2l0,0c-0.3,0.1-0.6,0.2-0.9,0.4l-3.7,2.1
						c0.5-0.3,1-0.5,1.5-0.6h0.1c0.3-0.1,0.6-0.1,0.8-0.1c0.1,0,0.1,0,0.2,0c0.3,0,0.6,0,0.9,0h0.1c0.3,0,0.6,0.1,0.9,0.1h0.1
						c0.3,0.1,0.7,0.2,1,0.3c0,0,0,0,0.1,0c0.4,0.1,0.7,0.3,1.1,0.4c0,0,0,0,0.1,0c0.4,0.2,0.7,0.4,1.1,0.6l62.8,36.3
						c0,0,0.1,0,0.1,0.1c0.2,0.1,0.3,0.2,0.5,0.3c0.2,0.1,0.3,0.2,0.5,0.3c0.2,0.1,0.3,0.2,0.5,0.3c0.2,0.1,0.3,0.2,0.5,0.4
						c0.2,0.1,0.3,0.3,0.5,0.4s0.3,0.3,0.5,0.4s0.3,0.3,0.5,0.5s0.3,0.3,0.5,0.5s0.3,0.3,0.5,0.5c0.1,0.2,0.3,0.3,0.4,0.5l0,0
						c0.1,0.2,0.3,0.3,0.4,0.5c0.1,0.2,0.3,0.4,0.4,0.5c0.2,0.2,0.3,0.4,0.5,0.7c0.2,0.3,0.5,0.7,0.7,1c0.3,0.4,0.6,0.9,0.8,1.3
						c0.2,0.3,0.4,0.7,0.6,1c0.1,0.2,0.2,0.4,0.3,0.7c0.1,0.2,0.2,0.4,0.3,0.6s0.2,0.4,0.2,0.5c0.1,0.2,0.2,0.4,0.2,0.5
						c0.1,0.2,0.1,0.4,0.2,0.5c0.1,0.2,0.1,0.4,0.2,0.5c0.1,0.2,0.1,0.4,0.2,0.6s0.1,0.4,0.2,0.6c0.1,0.2,0.1,0.4,0.2,0.6
						s0.1,0.4,0.2,0.6c0,0.2,0.1,0.4,0.1,0.6s0.1,0.4,0.1,0.6s0.1,0.4,0.1,0.6s0.1,0.4,0.1,0.6s0,0.4,0.1,0.5c0,0.2,0,0.4,0,0.5
						c0,0.2,0,0.4,0,0.5s0,0.4,0,0.6l-0.4,177.6l0,0c0,0.2,0,0.6,0,0.8c0,0.2,0,0.4,0,0.5c0,0.2,0,0.4-0.1,0.5c0,0.2,0,0.4-0.1,0.5
						c0,0.2-0.1,0.4-0.1,0.5c0,0.2-0.1,0.4-0.1,0.6c-0.1,0.2-0.1,0.4-0.2,0.6c-0.1,0.2-0.2,0.4-0.3,0.6c-0.1,0.3-0.3,0.5-0.4,0.8
						c-0.5,0.8-1.2,1.5-1.9,1.9l3.7-2.1c0.8-0.4,1.4-1.1,1.9-1.9c0.2-0.2,0.3-0.5,0.4-0.8c0.1-0.2,0.2-0.4,0.3-0.6s0.1-0.4,0.2-0.6
						s0.1-0.4,0.1-0.6s0.1-0.4,0.1-0.5c0-0.2,0.1-0.4,0.1-0.5c0-0.2,0-0.4,0.1-0.5c0-0.2,0-0.3,0-0.5c0-0.1,0-0.4,0-0.6l0,0
						L263.3,86.2L263.3,86.2C263.3,86.4,263.3,86.3,263.3,86.2L263.3,86.2z"/>
				</g>
			</g>
			<g>
				
					<linearGradient id="SVGID_7_" gradientUnits="userSpaceOnUse" x1="237.5896" y1="-19.6737" x2="199.4969" y2="52.9161" gradientTransform="matrix(1 0 0 1 0 116)">
					<stop  offset="0.3069" style="stop-color:#D4ECFF"/>
					<stop  offset="1" style="stop-color:#D4ECFF;stop-opacity:0"/>
				</linearGradient>
				<polygon class="st19" points="186.5,67 186.3,165.2 248.6,201.8 248.7,103.5 				"/>
				<g>
					<g>
						<g>
							<polygon class="st2" points="186.5,64.8 149.9,96.8 157.9,101.4 194.5,69.6 							"/>
							<path class="st20" d="M149.9,96.8v3.8c0,0-0.3,4.1,3.8,5.7c4.6,1.7,4.1-4.8,4.1-4.8L149.9,96.8z"/>
							<path class="st20" d="M194.5,69.6l-8-4.7v-2.4l8,4.7C194.5,67.1,194.5,69.6,194.5,69.6z"/>
						</g>
						<g>
							<polygon class="st7" points="194.5,69.6 157.9,101.5 165.9,106.2 202.4,74.3 							"/>
							<path class="st21" d="M157.9,101.5v3.8c0,0-0.3,4.1,3.8,5.7c4.6,1.7,4.1-4.8,4.1-4.8L157.9,101.5z"/>
							<path class="st21" d="M202.4,74.3l-8-4.7v-2.4l8,4.7V74.3z"/>
						</g>
					</g>
					<g>
						<g>
							<polygon class="st2" points="202.4,74.3 165.9,106.3 173.8,110.9 210.4,79 							"/>
							<path class="st20" d="M165.9,106.3v3.8c0,0-0.3,4.1,3.8,5.7c4.6,1.7,4.1-4.8,4.1-4.8L165.9,106.3z"/>
							<path class="st20" d="M210.4,79l-8-4.7v-2.4l8,4.7V79z"/>
						</g>
						<g>
							<polygon class="st7" points="210.4,79 173.8,111 181.8,115.7 218.3,83.8 							"/>
							<path class="st21" d="M173.8,111v3.8c0,0-0.3,4.1,3.8,5.7c4.6,1.7,4.1-4.8,4.1-4.8L173.8,111z"/>
							<path class="st21" d="M218.3,83.8l-8-4.7v-2.4l8,4.7C218.3,81.3,218.3,83.8,218.3,83.8z"/>
						</g>
					</g>
					<g>
						<g>
							<polygon class="st2" points="218.3,83.8 181.7,115.7 189.7,120.4 226.3,88.5 							"/>
							<path class="st20" d="M181.7,115.7v3.8c0,0-0.3,4.1,3.8,5.7c4.6,1.7,4.1-4.8,4.1-4.8L181.7,115.7z"/>
							<path class="st20" d="M226.3,88.5l-8-4.7v-2.4l8,4.7V88.5z"/>
						</g>
						<g>
							<polygon class="st7" points="226.3,88.5 189.7,120.5 197.7,125.2 234.2,93.3 							"/>
							<path class="st21" d="M189.7,120.5v3.8c0,0-0.3,4.1,3.8,5.7c4.6,1.7,4.1-4.8,4.1-4.8L189.7,120.5z"/>
							<path class="st21" d="M234.2,93.3l-8-4.7v-2.4l8,4.7C234.2,90.8,234.2,93.3,234.2,93.3z"/>
						</g>
					</g>
					<g>
						<g>
							<polygon class="st2" points="234.3,93.3 197.7,125.2 205.7,129.9 242.2,98 							"/>
							<path class="st20" d="M197.7,125.2v3.8c0,0-0.3,4.1,3.8,5.7c4.6,1.7,4.1-4.8,4.1-4.8L197.7,125.2z"/>
							<path class="st20" d="M242.2,98l-8-4.7v-2.4l8,4.7C242.2,95.5,242.2,98,242.2,98z"/>
						</g>
						<g>
							<polygon class="st7" points="242.2,98 205.6,129.9 213.6,134.6 250.1,102.7 							"/>
							<path class="st21" d="M205.6,129.9v3.8c0,0-0.3,4.1,3.8,5.7c4.6,1.7,4.1-4.8,4.1-4.8L205.6,129.9z"/>
							<path class="st21" d="M250.1,102.7l-8-4.7v-2.4l8,4.7C250.1,100.3,250.1,102.7,250.1,102.7z"/>
						</g>
					</g>
				</g>
			</g>
		</g>
	</g>
	<g>
		<g class="st22">
			<path class="st2" d="M287.3,177.6c2.3,1.3,4.1,4.5,4.1,7v12.2c0,2.6-1.8,3.6-4.1,2.3L217.8,159c-2.3-1.3-4.1-4.5-4.1-7v-12.2
				c0-2.6,1.8-3.6,4.1-2.3L287.3,177.6z"/>
		</g>
		<g>
			<g>
				<path class="st2" d="M283.7,183.6c2.3,1.3,4.1,4.5,4.1,7v12.2c0,2.6-1.8,3.6-4.1,2.3L214.2,165c-2.3-1.3-4.1-4.5-4.1-7v-12.2
					c0-2.6,1.8-3.6,4.1-2.3L283.7,183.6z"/>
			</g>
			<g>
				<g>
					<g>
						<path class="st11" d="M277.3,192.6v0.7c0.4,0.3,0.9,0.7,1.2,1.1l-0.4,0.9c-0.4-0.5-0.8-0.8-1.2-1.1c-0.4-0.2-0.6-0.2-0.6,0
							c0,0.6,2.4,1.5,2.4,3.3c0,0.8-0.5,1.2-1.4,0.8v0.8l-0.9-0.5v-0.7c-0.6-0.4-1.2-0.9-1.6-1.4l0.5-0.9c0.4,0.5,0.9,1,1.4,1.3
							c0.4,0.2,0.6,0.2,0.6,0.1c0-0.6-2.4-1.5-2.4-3.3c0-0.8,0.5-1.2,1.5-0.8v-0.8L277.3,192.6z"/>
					</g>
					<g>
						<polygon class="st11" points="280.9,195.6 280.9,200.5 279.5,199.6 279.5,196 278.7,195.5 278.7,194.3 						"/>
					</g>
					<g>
						<path class="st11" d="M283.4,196.9c1.1,0.7,1.9,2.1,1.9,3.7c0,1.6-0.8,2.1-1.9,1.5c-1.1-0.7-1.9-2.1-1.9-3.7
							C281.4,196.7,282.3,196.2,283.4,196.9z M283.4,200.7c0.3,0.2,0.5,0,0.5-1c0-0.9-0.2-1.4-0.5-1.5c-0.3-0.2-0.5,0-0.5,1
							C282.9,200.1,283.1,200.5,283.4,200.7"/>
					</g>
				</g>
				<g>
					<polygon class="st23" points="260.2,182.3 260.2,187.4 215.1,161.3 215.1,156.2 					"/>
				</g>
				<g>
					<polygon class="st11" points="232.7,158.6 215.2,148.5 215.2,153.6 232.7,163.7 					"/>
				</g>
			</g>
		</g>
	</g>
	<g>
		<g>
			<g class="st22">
				<path class="st2" d="M287.3,212.6c2.3,1.3,4.1,4.5,4.1,7v12.2c0,2.6-1.8,3.6-4.1,2.3L217.8,194c-2.3-1.3-4.1-4.5-4.1-7v-12.2
					c0-2.6,1.8-3.6,4.1-2.3L287.3,212.6z"/>
			</g>
			<g>
				<g>
					<path class="st2" d="M283.7,218.6c2.3,1.3,4.1,4.5,4.1,7v12.2c0,2.6-1.8,3.6-4.1,2.3L214.2,200c-2.3-1.3-4.1-4.5-4.1-7v-12.2
						c0-2.6,1.8-3.6,4.1-2.3L283.7,218.6z"/>
				</g>
				<g>
					<g>
						<path class="st11" d="M271.6,223.1v0.7c0.4,0.3,0.9,0.7,1.2,1.1l-0.4,0.9c-0.4-0.5-0.8-0.8-1.2-1.1c-0.4-0.2-0.6-0.2-0.6,0
							c0,0.6,2.4,1.5,2.4,3.3c0,0.8-0.5,1.2-1.4,0.8v0.8l-0.9-0.5v-0.7c-0.6-0.4-1.2-0.9-1.6-1.4l0.5-0.9c0.4,0.5,0.9,1,1.4,1.3
							c0.4,0.2,0.6,0.2,0.6,0.1c0-0.6-2.4-1.5-2.4-3.3c0-0.8,0.5-1.2,1.5-0.8v-0.8L271.6,223.1z"/>
					</g>
					<g>
						<polygon class="st11" points="275.2,226.1 275.2,231 273.8,230.1 273.8,226.5 273,226 273,224.8 						"/>
					</g>
					<g>
						<path class="st11" d="M277.7,227.4c1.1,0.7,1.9,2.1,1.9,3.7c0,1.6-0.8,2.1-1.9,1.5c-1.1-0.7-1.9-2.1-1.9-3.7
							C275.7,227.2,276.6,226.7,277.7,227.4z M277.7,231.2c0.3,0.2,0.5,0,0.5-1c0-0.9-0.2-1.4-0.5-1.5c-0.3-0.2-0.5,0-0.5,1
							C277.2,230.6,277.4,231,277.7,231.2"/>
					</g>
					<g>
						<path class="st11" d="M281.9,229.8c1.1,0.7,1.9,2.1,1.9,3.7c0,1.6-0.8,2.1-1.9,1.5s-1.9-2.1-1.9-3.7
							C280,229.6,280.8,229.1,281.9,229.8z M281.9,233.6c0.3,0.2,0.5,0,0.5-1c0-0.9-0.2-1.4-0.5-1.5c-0.3-0.2-0.5,0-0.5,1
							C281.4,233,281.6,233.4,281.9,233.6"/>
					</g>
					<g>
						<polygon class="st23" points="260.2,217.3 260.2,222.4 215.1,196.3 215.1,191.2 						"/>
					</g>
					<g>
						<polygon class="st11" points="232.7,193.6 215.2,183.5 215.2,188.6 232.7,198.7 						"/>
					</g>
				</g>
			</g>
		</g>
	</g>
	<g>
		<g class="st24">
			<path class="st25" d="M237.8,223.4c3.9,2.3,7.1,7.7,7,12.2c0,4.5-3.2,6.3-7.1,4l-45.5-26.2c-3.9-2.3-7.1-7.7-7-12.2
				c0-4.5,3.2-6.3,7.1-4L237.8,223.4z"/>
		</g>
		<g>
			<g>
				<path class="st7" d="M235.9,226c3.9,2.3,7.1,7.7,7,12.2c0,4.5-3.2,6.3-7.1,4l-45.5-26.3c-3.9-2.3-7.1-7.7-7-12.2
					c0-4.5,3.2-6.3,7.1-4L235.9,226z"/>
			</g>
			<g>
				<g>
					<path class="st2" d="M192.5,206.4c0.6,0.3,1.2,0.9,1.6,1.4l-0.2,0.5c-0.4-0.6-0.9-1-1.4-1.3c-0.9-0.5-1.2-0.3-1.2,0.2
						c0,1.4,3,2.3,3,4.4c0,0.9-0.6,1.3-2,0.5c-0.8-0.4-1.5-1.2-1.9-1.8l0.3-0.5c0.4,0.6,1,1.3,1.7,1.6c0.9,0.5,1.2,0.3,1.2-0.2
						c0-1.4-3-2.3-3-4.4C190.5,206.1,191.1,205.7,192.5,206.4z"/>
				</g>
				<g>
					<polygon class="st2" points="199.7,210.7 199.7,216.4 198.9,216 198.9,213.5 196,211.8 196,214.4 195.3,213.9 195.3,208.2 
						196.1,208.6 196,211.1 198.9,212.7 198.9,210.2 					"/>
				</g>
				<g>
					<path class="st2" d="M203.4,212.8c1.5,0.9,2.7,2.8,2.7,4.5s-1.1,2.3-2.7,1.4c-1.5-0.9-2.7-2.8-2.7-4.5
						C200.8,212.5,201.9,211.9,203.4,212.8z M203.4,218c1.1,0.6,1.9,0.2,2-1.1c0-1.3-0.8-2.7-1.9-3.3c-1.1-0.7-2-0.2-2,1.1
						C201.5,215.9,202.3,217.3,203.4,218"/>
				</g>
				<g>
					<path class="st2" d="M209.2,216.2c1.3,0.8,2.1,2,2.1,3.2c0,1.3-0.8,1.6-2.1,0.8l-1.2-0.7v1.8l-0.7-0.4v-5.8L209.2,216.2z
						 M209.1,219.5c0.9,0.5,1.4,0.3,1.4-0.5s-0.5-1.6-1.4-2.1l-1.2-0.7v2.6L209.1,219.5"/>
				</g>
				<g>
					<polygon class="st2" points="218.8,221.7 218.8,227.5 217.8,226.9 215.3,222 215.3,225.5 214.2,224.8 214.2,219 215.1,219.6 
						217.6,224.6 217.6,221 					"/>
				</g>
				<g>
					<path class="st2" d="M222.4,223.7c1.6,0.9,2.7,2.9,2.7,4.6c0,1.7-1.2,2.3-2.8,1.4c-1.6-0.9-2.7-2.9-2.7-4.6
						C219.7,223.4,220.8,222.8,222.4,223.7z M222.4,228.5c0.9,0.5,1.6,0.2,1.6-0.9c0-1.1-0.7-2.2-1.6-2.8c-0.9-0.5-1.6-0.2-1.6,0.9
						C220.8,226.9,221.5,228,222.4,228.5"/>
				</g>
				<g>
					<polygon class="st2" points="233.5,230.2 231.8,235 230.6,234.3 229.5,229.8 228.3,233 227.1,232.3 225.5,225.6 226.7,226.3 
						227.8,231 229,227.6 230.1,228.2 231.2,233 232.4,229.6 					"/>
				</g>
			</g>
		</g>
	</g>
	<g>
		<g>
			<g>
				<g>
					<path class="st17" d="M137.3,290.6l1,0.6c1.3,0.8,3,0.7,4.3-0.2l0.4-0.3c1-0.7,1.5-1.8,1.5-3l0,0l7.4-2c0,0,3.8-1.1,5,0.5
						c1.2,1.6-2,7.7-10.4,8.9c0,0-1.4,0.2-3.9,3c-1.7,1.9-6.3,1.2-6.5-1.5c-0.2-1.7-0.1-4-0.1-5.4
						C136.2,290.7,136.8,290.3,137.3,290.6z"/>
					<path class="st26" d="M136.4,284.1l0.3,4.7c0.1,1.4,0.9,2.6,2.1,3.2l0.3,0.1c1.3,0.7,2.8,0.6,4-0.2l0,0c1.1-0.8,1.8-2,1.7-3.4
						l-0.3-5.9L136.4,284.1z"/>
				</g>
				<g>
					<path class="st26" d="M148.1,293.6l0.3,4.7c0.1,1.4,0.9,2.6,2.1,3.2l0.3,0.1c1.3,0.7,2.8,0.6,4-0.2l0,0c1.1-0.8,1.8-2,1.7-3.4
						l-0.3-5.9L148.1,293.6z"/>
					<path class="st17" d="M148.8,299.4l1,0.6c1.4,0.8,3.2,0.8,4.5-0.2l0.5-0.3c1-0.7,1.6-1.9,1.6-3.1l0,0l7.8-2.1
						c0,0,4-1.2,5.3,0.5s-2.1,8.1-10.9,9.3c0,0-1.5,0.2-4.1,3.2c-1.8,2-6.6,1.3-6.8-1.6c-0.2-1.8-0.1-4.2-0.1-5.7
						C147.7,299.5,148.3,299.1,148.8,299.4z"/>
				</g>
				<path class="st27" d="M133.4,215.8l3.7,28.4c0.2,1.5,0.1,3.1-0.4,4.6c-0.8,2.6-1.6,5.6-1.6,8l0.7,28.3c0,0.5,0.3,1,0.8,1.2
					c1.7,0.6,5.9,2.4,8.8-0.9c0.3-0.3,0.4-0.7,0.4-1.1c0.2-4.2,1.3-29.5,4.4-43.2c3.4-15,5-25.6,1.9-32.8L133.4,215.8z"/>
				<path class="st27" d="M145.2,220.1c-0.2,5.3-0.1,11.1,0.3,17.3c0.5,7.1,1.4,13.6,2.5,19.3c-0.4,1.3-0.8,2.8-1.1,4.6
					c-0.2,1.6-0.3,3.1-0.3,4.7l0.7,28.3c0,0.5,0.3,1,0.8,1.2c1.7,0.6,5.9,2.4,8.8-0.9c0.3-0.3,0.4-0.7,0.4-1.1
					c0.2-4.2,1.3-29.5,4.4-43.2c3.4-15,5-25.6,1.9-32.8L145.2,220.1z"/>
				<g>
					<path class="st28" d="M165,214.4c0,0-1.4-17.3-0.5-20.8c0.8-2.8,0.9-5.7,0.4-8.6l-1.5-8.4c-2-7.3-7.9-10.2-7.9-10.2
						c-4.8-2.4-10.2-7.3-15.8-5c-9.4,3.8-6.1,18.2-2.7,25.1c1.8,3.5,2.8,8,1.5,11.8c-1.2,3.6-4,6.3-5.2,9.9
						c-1.1,3.2-1.3,6.6-0.7,9.9c0.5,2.9,3.1,4.2,5.6,5.3l15.7,6.5c0.9,0.4,1.9,0.5,2.9,0.5c1.8,0,3.4-1.1,4-2.8
						c0.6-1.5,1.1-3.4,1.4-5.6c0.8-0.2,0.2,0,1-0.2c0.5,0.8,1.1,2,1.5,3.8c0.3-0.8,0.5-1.7,0.6-2.6v-1.9
						C165.4,218.9,165.3,216.6,165,214.4z"/>
				</g>
				<path class="st26" d="M154.3,167.1c-2.1,0.2-6.1,0.1-8-3.3l-0.2-12.5c0-2.5,1.2-5,3.3-6.5c1.5-1.1,3.5-1.3,5.3-1.4
					c1.4-0.1,4-0.4,5.1,0.8c0.5,0.6,1.1,2.9,1.1,3.8c0,2,0.7,4.1,0.7,6.1c0,1-0.6,4.3-0.6,5.2c0,0.6-0.1,1.3-0.5,1.9
					c-0.3,0.4-0.7,0.8-1.2,1s-1.1,0.1-1.6,0.2c-2.5,0.6-2.2,3.3-2.2,3.3C155.6,166.4,155,167,154.3,167.1z"/>
				<g>
					<path class="st28" d="M164.5,193.7L164.5,193.7c0.8-2.8,0.9-5.7,0.4-8.6l-1.5-8.4c-0.5-1.9-1.3-3.5-2.2-4.8
						c-1.5,1-2.9,2.1-4.2,3.3c1.5,1.9,2.5,4.5,2.6,8.2c0.4,14.9,1.8,40.4-5.1,46.8c0.7,0.2,1.5,0.3,2.3,0.3c1.8,0,3.5-1.2,4.1-2.9
						c0.6-1.5,1.1-3.4,1.4-5.5c0.8-0.2,0.2,0,1-0.2c0.5,0.8,1.1,2,1.5,3.8c0.3-0.8,0.5-1.7,0.6-2.6v-1.9c0.1-2.2-0.1-4.4-0.3-6.7
						C165,214.4,163.6,197.1,164.5,193.7z"/>
				</g>
				<path class="st26" d="M175.2,189.4l23.6-13.7c0.1-0.1,0.3-0.1,0.4-0.2l6.5-2.6c0.5-0.2,1.1,0.1,1.2,0.6l0,0
					c0.1,0.4-0.1,0.9-0.5,1.1l-3.6,1.4c-0.4,0.1-0.6,0.6-0.5,0.9c0.4,1.2,0.9,3.8-0.7,5c-1.1,0.8-2.2,1.4-3,1.9s-1.7,0.8-2.6,0.9
					l-2.1,0.2c-1.3,0.1-2.5,0.7-3.5,1.6l-10.3,9.8L175.2,189.4z"/>
				<path class="st28" d="M156.7,167.3c0,0,6.8,1,9.6,5.5c2.5,4,9.5,16.1,9.5,16.1l1.2-0.5c0,0,3.8,4.4,3.8,7.9l-6.2,3.3
					c0,0-2.5,2.1-7-5S157.1,177,157.1,177S152,170,156.7,167.3z"/>
				<path class="st28" d="M176.1,187.8c0,0,4.1,4.4,4.8,9l4.3-3c0,0-0.3-6.5-5-8.4L176.1,187.8z"/>
				<path class="st29" d="M160.7,146.3c0,0-0.2,3.8-5.3,8.5c-2.5,2.3-3.7,6.8-1.3,14.1c0.6,1.9,1.2,3.8,1.5,5.7
					c1.8,9.3-5.2,18.2-14.6,18c-0.6,0-1.1-0.1-1.6-0.1c-0.8-0.1-1.8-0.5-2.8-0.9c-7.2-3.4-10.1-12.2-6.6-19.4
					c1.6-3.3,6.4-7.3,5.7-10.8c-2.1-10.4,2.3-25.2,13.8-24.4C162.2,137.7,160.7,146.3,160.7,146.3z"/>
			</g>
		</g>
		<g>
			<path class="st29" d="M156.4,141c-0.8-1.2-2.5-1.4-3.6-0.4c-0.8,0.7-1.8,1.6-3,2.8c-8.8,8,0.3,16.6,0.3,16.6
				c-0.9-4.1,3.4-8.5,3.4-8.5C158.6,146.8,157.8,143.1,156.4,141z"/>
		</g>
	</g>
</g>
</svg>
