<?xml version="1.0" encoding="utf-8"?>
<!-- Generator: Adobe Illustrator 23.0.1, SVG Export Plug-In . SVG Version: 6.00 Build 0)  -->
<svg version="1.1" id="Calque_1" xmlns="http://www.w3.org/2000/svg" xmlns:xlink="http://www.w3.org/1999/xlink" x="0px" y="0px"
	 viewBox="0 0 319 329" style="enable-background:new 0 0 319 329;" xml:space="preserve">
<style type="text/css">
	.st0{opacity:0.5;}
	.st1{fill:#666666;}
	.st2{fill:#0C2461;}
	.st3{fill:#6A89CC;}
	.st4{fill:#82CCDD;}
	.st5{fill:#EB2F06;}
	.st6{fill:#222222;}
	.st7{fill:#E58E26;}
	.st8{fill:#2C1D1A;}
	.st9{enable-background:new    ;}
	.st10{fill:#CCCCCC;}
	.st11{fill:#AAAAAA;}
	.st12{fill:#E0E0E0;}
	.st13{fill:#FFFFFF;}
	.st14{fill:#888888;}
	.st15{fill:#242629;}
	.st16{fill:#FA983A;}
	.st17{fill:#E55039;}
	.st18{fill:#8C1C03;}
	.st19{fill:#303437;}
	.st20{fill:#FFC3A9;}
	.st21{fill:#4A312C;}
	.st22{fill:#297DE2;}
	.st23{fill:#3EEDFF;}
	.st24{fill:#FF5D24;}
	.st25{fill:#FF8B22;}
	.st26{fill:none;}
</style>
<g>
	<g class="st0">
		<path class="st1" d="M209.1,80.9l-36.4-20.7c-0.1-0.1-0.2-0.2-0.2-0.3V34.4c0-0.1,0.1-0.2,0.2-0.1L209.1,55
			c0.1,0.1,0.2,0.2,0.2,0.3v25.5C209.3,80.9,209.2,81,209.1,80.9z"/>
		<path class="st2" d="M207.7,79.2l-33.6-19.1c-0.1-0.1-0.2-0.2-0.2-0.3V38.3c0-0.1,0.1-0.1,0.2-0.1l33.6,19.1
			c0.1,0.1,0.2,0.2,0.2,0.3v21.5C207.9,79.2,207.8,79.3,207.7,79.2z"/>
		<g>
			<polygon class="st3" points="201.2,58.1 176.3,43.9 176.3,43 201.2,57.1 			"/>
			<polygon class="st3" points="191.5,55.5 176.3,46.8 176.3,45.9 191.5,54.6 			"/>
			<polygon class="st3" points="177.8,49.7 176.3,48.9 176.3,48 177.8,48.8 			"/>
			<polygon class="st4" points="180.3,51.1 178.8,50.3 178.8,49.4 180.3,50.2 			"/>
			<polygon class="st5" points="185.1,58 178.8,54.3 178.8,53.4 185.1,57.1 			"/>
			<polygon class="st5" points="185.1,60 178.8,56.4 178.8,55.5 185.1,59.1 			"/>
			<polygon class="st5" points="202.6,70 200.2,68.5 200.2,67.6 202.6,69 			"/>
			<polygon class="st5" points="185.1,62.1 178.8,58.4 178.8,57.5 185.1,61.1 			"/>
			<polygon class="st5" points="202.6,72 196.3,68.4 196.3,67.5 202.6,71.1 			"/>
			<polygon class="st5" points="185.1,64.1 178.8,60.5 178.8,59.6 185.1,63.2 			"/>
			<polygon class="st5" points="202.6,74 189.1,66.4 189.1,65.5 202.6,73.1 			"/>
			<polygon class="st4" points="182.8,52.5 181.3,51.7 181.3,50.8 182.8,51.6 			"/>
			<polygon class="st4" points="185.3,54 183.8,53.1 183.8,52.2 185.3,53.1 			"/>
			<path class="st6" d="M202.7,53.5l-1.1-0.6c-0.1-0.1-0.2-0.2-0.2-0.3V52c0-0.1,0.1-0.1,0.2-0.1l1.1,0.6c0.1,0.1,0.2,0.2,0.2,0.3
				v0.5C202.9,53.5,202.8,53.5,202.7,53.5z"/>
			<path class="st6" d="M205.2,54.9l-1.1-0.6c-0.1-0.1-0.2-0.2-0.2-0.3v-0.5c0-0.1,0.1-0.1,0.2-0.1l1.1,0.6c0.1,0.1,0.2,0.2,0.2,0.3
				v0.5C205.4,54.9,205.3,54.9,205.2,54.9z"/>
			<path class="st6" d="M207.8,56.3l-1.1-0.6c-0.1-0.1-0.2-0.2-0.2-0.3v-0.5c0-0.1,0.1-0.1,0.2-0.1l1.1,0.6c0.1,0.1,0.2,0.2,0.2,0.3
				v0.5C207.9,56.4,207.9,56.4,207.8,56.3z"/>
			<polygon class="st4" points="188,55.5 186.5,54.6 186.5,53.7 188,54.6 			"/>
			<polygon class="st4" points="197,60.6 189,56.1 189,55.2 197,59.7 			"/>
			<polygon class="st3" points="177.8,51.8 176.3,50.9 176.3,50 177.8,50.8 			"/>
			<polygon class="st7" points="202.1,65.6 178.8,52.3 178.8,51.4 202.1,64.7 			"/>
			<polygon class="st3" points="177.8,53.8 176.3,52.9 176.3,52 177.8,52.9 			"/>
			<polygon class="st3" points="177.8,55.8 176.3,55 176.3,54.1 177.8,54.9 			"/>
			<polygon class="st3" points="197,58.6 193.9,56.8 193.9,55.9 197,57.7 			"/>
			<polygon class="st3" points="204.4,59.9 202.3,58.7 202.3,57.8 204.4,58.9 			"/>
			<polygon class="st7" points="205.5,67.5 203.4,66.3 203.4,65.4 205.5,66.6 			"/>
		</g>
	</g>
	<g class="st0">
		<path class="st1" d="M280.3,110.8l-47.9-27.3c-0.1-0.1-0.3-0.3-0.3-0.4V49.5c0-0.1,0.1-0.2,0.3-0.1l47.9,27.3
			c0.1,0.1,0.3,0.3,0.3,0.4v33.5C280.6,110.8,280.5,110.9,280.3,110.8z"/>
		<path class="st2" d="M278.5,108.5l-44.2-25.2c-0.1-0.1-0.2-0.2-0.2-0.4V54.7c0-0.1,0.1-0.2,0.2-0.1l44.2,25.2
			c0.1,0.1,0.2,0.2,0.2,0.4v28.3C278.7,108.6,278.6,108.6,278.5,108.5z"/>
		<g>
			<polygon class="st3" points="269.9,80.6 237.2,62 237.2,60.8 269.9,79.4 			"/>
			<polygon class="st3" points="257.2,77.2 237.2,65.8 237.2,64.6 257.2,76 			"/>
			<polygon class="st3" points="239.2,69.7 237.2,68.5 237.2,67.3 239.2,68.5 			"/>
			<polygon class="st4" points="242.4,71.5 240.4,70.4 240.4,69.2 242.4,70.3 			"/>
			<polygon class="st5" points="248.8,80.5 240.4,75.8 240.4,74.6 248.8,79.3 			"/>
			<polygon class="st5" points="248.8,83.2 240.4,78.5 240.4,77.3 248.8,82 			"/>
			<polygon class="st5" points="271.8,96.3 268.5,94.5 268.5,93.3 271.8,95.1 			"/>
			<polygon class="st5" points="248.8,85.9 240.4,81.1 240.4,79.9 248.8,84.7 			"/>
			<polygon class="st5" points="271.8,99 263.4,94.2 263.4,93 271.8,97.8 			"/>
			<polygon class="st5" points="248.8,88.6 240.4,83.8 240.4,82.6 248.8,87.4 			"/>
			<polygon class="st5" points="271.8,101.7 254.1,91.6 254.1,90.4 271.8,100.5 			"/>
			<polygon class="st4" points="245.7,73.4 243.7,72.3 243.7,71.1 245.7,72.2 			"/>
			<polygon class="st4" points="249,75.3 247.1,74.2 247.1,73 249,74.1 			"/>
			<path class="st6" d="M271.9,74.6l-1.5-0.8c-0.1-0.1-0.2-0.2-0.2-0.4v-0.7c0-0.1,0.1-0.2,0.2-0.1l1.5,0.8c0.1,0.1,0.2,0.2,0.2,0.4
				v0.7C272.1,74.6,272,74.7,271.9,74.6z"/>
			<path class="st6" d="M275.2,76.5l-1.5-0.8c-0.1-0.1-0.2-0.2-0.2-0.4v-0.7c0-0.1,0.1-0.2,0.2-0.1l1.5,0.8c0.1,0.1,0.2,0.2,0.2,0.4
				v0.7C275.4,76.5,275.3,76.6,275.2,76.5z"/>
			<path class="st6" d="M278.5,78.4l-1.5-0.8c-0.1-0.1-0.2-0.2-0.2-0.4v-0.7c0-0.1,0.1-0.2,0.2-0.1l1.5,0.8c0.1,0.1,0.2,0.2,0.2,0.4
				v0.7C278.8,78.4,278.7,78.4,278.5,78.4z"/>
			<polygon class="st4" points="252.5,77.3 250.6,76.2 250.6,75 252.5,76.1 			"/>
			<polygon class="st4" points="264.4,84 253.9,78.1 253.9,76.9 264.4,82.8 			"/>
			<polygon class="st3" points="239.2,72.3 237.2,71.2 237.2,70 239.2,71.1 			"/>
			<polygon class="st7" points="271.1,90.6 240.4,73.1 240.4,71.9 271.1,89.4 			"/>
			<polygon class="st3" points="239.2,75 237.2,73.9 237.2,72.7 239.2,73.8 			"/>
			<polygon class="st3" points="239.2,77.7 237.2,76.6 237.2,75.4 239.2,76.5 			"/>
			<polygon class="st3" points="264.4,81.3 260.3,79 260.3,77.8 264.4,80.1 			"/>
			<polygon class="st3" points="274.1,83 271.4,81.5 271.4,80.3 274.1,81.8 			"/>
			<polygon class="st7" points="275.5,93.1 272.8,91.5 272.8,90.3 275.5,91.9 			"/>
		</g>
	</g>
	<g>
		<path class="st8" d="M152,245.6L152,245.6c0,0-0.3-4.1-13.7-0.6l-12.9,3.6c-2.1,4.4-1.6,8.9-1.1,11c0.2,0.7,0.6,1.4,1.3,1.8
			l2.3,1.3c0.8,0.5,1.8,0.5,2.7,0l4.2-2.5c0.3-0.2,0.6-0.5,0.8-0.9c0.9-1.5,3-1.9,5.9-2.5c0.2-0.1,0.5-0.1,0.7-0.2
			c0.1,0,0.2-0.1,0.4-0.1c0.4-0.1,0.7-0.2,0.9-0.3c3.5-1.3,5.1-3.6,7.1-6.4C152,247.7,152.4,246.4,152,245.6z"/>
		<path class="st2" d="M124.6,248.9c0,1.8,1,3.6,2.7,4.3c1.4,0.6,3,1.1,4.4,1.2c2.5,0.2,5.2-0.4,7.4-1.9c2.2-1.4,3.5-3.9,3.5-6.5
			l-0.2-40.8c0.4-12.2-7.8-12.1-13-12.7c-5.6-0.5-4.7,1.3-4.7,6.9L124.6,248.9z"/>
		<path class="st8" d="M169.7,256.5L169.7,256.5c0,0-0.3-4.1-13.7-0.6l-12.9,3.6c-2.1,4.4-1.6,8.9-1.1,11c0.2,0.7,0.6,1.4,1.3,1.8
			l2.3,1.3c0.8,0.5,1.8,0.5,2.7,0l4.2-2.5c0.3-0.2,0.6-0.5,0.8-0.9c0.9-1.5,3-1.9,5.9-2.5c0.2-0.1,0.5-0.1,0.7-0.2
			c0.1,0,0.2-0.1,0.4-0.1c0.4-0.1,0.7-0.2,0.9-0.3c3.5-1.3,5.1-3.6,7.1-6.4C169.7,258.7,170.1,257.3,169.7,256.5z"/>
		<path class="st2" d="M142.3,259.8c0,1.8,1,3.6,2.7,4.3c1.4,0.6,3,1.1,4.4,1.2c2.5,0.2,5.2-0.4,7.4-1.9c2.2-1.4,3.5-3.9,3.5-6.5
			l-0.2-40.8c0.4-12.2-7.8-12.1-13-12.7c-5.6-0.5-4.7,1.3-4.7,6.9L142.3,259.8z"/>
	</g>
	<g>
		<g>
			<g class="st9">
				<g>
					<polygon class="st6" points="185.4,203.3 190.7,200.3 190.6,281.4 185.3,284.5 					"/>
				</g>
				<g>
					<polygon class="st6" points="180.9,200.7 186.2,197.7 190.7,200.3 185.4,203.3 					"/>
				</g>
				<g>
					<polygon class="st6" points="185.4,203.3 185.3,284.5 180.8,281.9 180.9,200.7 					"/>
				</g>
			</g>
		</g>
		<g>
			<g class="st9">
				<g>
					<polygon class="st6" points="239.9,191.7 245.2,188.7 245.1,249.9 239.8,253 					"/>
				</g>
				<g>
					<polygon class="st6" points="235.4,189.1 240.7,186.1 245.2,188.7 239.9,191.7 					"/>
				</g>
				<g>
					<polygon class="st6" points="239.9,191.7 239.8,253 235.3,250.4 235.4,189.1 					"/>
				</g>
			</g>
		</g>
		<g>
			<g class="st9">
				<g>
					<polygon class="st6" points="62,153.6 67.3,150.6 67.2,211.8 61.9,214.9 					"/>
				</g>
				<g>
					<polygon class="st6" points="57.5,151 62.8,148 67.3,150.6 62,153.6 					"/>
				</g>
				<g>
					<polygon class="st6" points="62,153.6 61.9,214.9 57.4,212.3 57.5,151 					"/>
				</g>
			</g>
		</g>
		<g>
			<polygon class="st1" points="256.4,189.2 256.4,194.2 186.4,234.8 186.4,229.8 			"/>
		</g>
		<g>
			<polygon class="st1" points="186.4,229.8 186.4,234.8 44,153 44,148 			"/>
		</g>
		<g>
			<polygon class="st10" points="256.4,189.2 186.4,229.8 44,148 114,107.3 			"/>
		</g>
	</g>
	<g>
		<g>
			<path class="st11" d="M213.1,175.4l-15.7,9c-0.6,0.4-1.7,0.4-2.3,0l-7.6-4.4c-0.3-0.2-0.5-0.4-0.5-0.7c0,0.4,0,0.9,0,1.3
				c0,0.2,0.2,0.5,0.5,0.7l7.6,4.4c0.6,0.4,1.7,0.4,2.3,0l15.7-9c0.3-0.2,0.5-0.4,0.5-0.7c0-0.4,0-0.9,0-1.3
				C213.6,174.9,213.4,175.2,213.1,175.4z"/>
			<g>
				<path class="st11" d="M209.9,172.8c0.1,0.1,0.1,0.2,0,0.3s-0.4,0.1-0.5,0l-2.2-1.3c-0.1-0.1-0.1-0.2,0-0.3s0.4-0.1,0.5,0
					L209.9,172.8z"/>
			</g>
			<g>
				<path class="st12" d="M213.1,174c0.6,0.4,0.6,1,0,1.3l-15.7,9c-0.6,0.4-1.7,0.4-2.3,0l-7.6-4.4c-0.6-0.4-0.6-1,0-1.3l15.7-9
					c0.6-0.4,1.7-0.4,2.3,0L213.1,174z M198.5,183l13-7.5c0.3-0.1,0.3-0.4,0-0.5l-7.6-4.4c-0.3-0.1-0.7-0.2-0.9,0l-13,7.5
					c-0.3,0.1-0.3,0.4,0,0.5l7.6,4.4C197.9,183.1,198.3,183.1,198.5,183L198.5,183z M207.7,171.5c-0.1-0.1-0.4-0.1-0.5,0
					s-0.1,0.2,0,0.3l2.2,1.3c0.1,0.1,0.4,0.1,0.5,0s0.1-0.2,0-0.3L207.7,171.5L207.7,171.5z"/>
			</g>
			<g>
				<path class="st13" d="M211.6,174.9c0.3,0.1,0.3,0.4,0,0.5l-14.3,8.2c-0.4,0.3-1.2,0.3-1.6,0l-7.1-4.1c-0.4-0.2-0.4-0.6,0-0.8
					l14.4-8.3c0.3-0.1,0.7-0.1,0.9,0L211.6,174.9z"/>
			</g>
			<g>
				<path class="st11" d="M210.6,173.6c0.1-0.1,0.1-0.2,0-0.3l0,0c-0.1-0.1-0.4-0.1-0.5,0s-0.1,0.2,0,0.3l0,0
					C210.3,173.7,210.5,173.7,210.6,173.6z"/>
			</g>
		</g>
	</g>
	<g>
		<g>
			<path class="st11" d="M197.8,193.9l-22.9,13.4c-0.7,0.4-1.9,0.4-2.6,0l-12.9-7.5c-0.4-0.2-0.5-0.5-0.5-0.8c0,0.5,0,0.9,0,1.4
				c0,0.3,0.2,0.5,0.5,0.8l12.9,7.5c0.7,0.4,1.9,0.4,2.6,0l22.9-13.4c0.4-0.2,0.5-0.5,0.5-0.7c0-0.5,0-0.9,0-1.4
				C198.3,193.4,198.1,193.7,197.8,193.9z"/>
			<g>
				<path class="st12" d="M197.8,192.4c0.7,0.4,0.7,1.1,0,1.5l-22.9,13.4c-0.7,0.4-1.9,0.4-2.6,0l-12.9-7.5c-0.7-0.4-0.7-1.1,0-1.5
					l22.9-13.4c0.7-0.4,1.9-0.4,2.6,0L197.8,192.4z M176,205.8l20-11.8c0.3-0.2,0.3-0.4,0-0.6l-13-7.6c-0.3-0.2-0.7-0.2-1,0
					l-20,11.8c-0.3,0.2-0.3,0.4,0,0.6l13,7.6C175.3,205.9,175.8,205.9,176,205.8L176,205.8z"/>
			</g>
			<g>
				<path class="st13" d="M196.1,193.4c0.3,0.2,0.3,0.4,0,0.6l-21.4,12.5c-0.5,0.3-1.3,0.3-1.8,0l-12.4-7.2c-0.4-0.2-0.4-0.6,0-0.9
					l21.5-12.6c0.3-0.2,0.7-0.2,1,0L196.1,193.4z"/>
			</g>
			<g>
				<path class="st11" d="M190.8,189.1c0.2,0.1,0.2,0.2,0,0.3s-0.4,0.1-0.6,0l-2.4-1.4c-0.2-0.1-0.2-0.2,0-0.3s0.4-0.1,0.6,0
					L190.8,189.1z"/>
			</g>
			<g>
				<path class="st11" d="M191.7,189.9c0.2-0.1,0.1-0.2,0-0.3l0,0c-0.2-0.1-0.4-0.1-0.6,0c-0.2,0.1-0.2,0.2,0,0.3l0,0
					C191.2,190,191.5,190,191.7,189.9z"/>
			</g>
		</g>
	</g>
	<g>
		<g>
			<path class="st13" d="M145,119.1c-0.7-0.4-1.2-0.1-1.2,0.7l-0.1,24.8c0,0.8,0.5,1.7,1.2,2.1l39,22.5c0.7,0.4,1.2,0.1,1.2-0.7
				l0.1-24.8c0-0.8-0.5-1.7-1.2-2.1L145,119.1z"/>
			<g>
				<path class="st11" d="M116,162.9L116,162.9c0,0.1,0,0.1,0,0.2v0.1v0.1c0,0,0,0,0,0.1v0.1c0,0,0,0,0,0.1c0,0,0,0.1,0.1,0.1
					c0,0,0,0,0,0.1l0.1,0.1c0,0,0,0,0.1,0.1c0,0,0,0,0.1,0.1c0,0,0.1,0,0.1,0.1c0,0,0.1,0,0.1,0.1l0.1,0.1l15.3,8.8v-0.9l3.4-2
					l-4.9-2.8v-0.4l-0.3,0.2l-6.6-3.9v-2.3l3.1-1.8l0.7,0.4v-0.8l1-0.6l2.1-1.2l3.6-2.1l0.9,0.5v-1l3.1-1.8l0.7,0.4v-0.8l3.1-1.8
					l3.2,1.9v0.7l0.6-0.4l3.2,1.9v0.7l0.6-0.4l3.2,1.9v0.7l0.6-0.4l3.2,1.9v0.7l0.6-0.4l3.2,1.9v0.7l0.6-0.4l3.2,1.9v0.7l0.6-0.4
					l3.2,1.9v0.7l0.6-0.4l3.2,1.9v0.7l0.6-0.4l3.2,1.9v2.3l-1.8,1l0.8,0.4v-0.8l3.1-1.8l3.2,1.9v2.3l-3.1,1.8l-0.7-0.4v0.8l-3.1,1.8
					l-0.7-0.4v0.8l-3.1,1.8l-0.7-0.4v0.8l-3.1,1.8l-0.7-0.4v0.8l-3.1,1.8l-6.8-4v-0.5l-0.4,0.2l-5-2.9v-0.5l-0.5,0.3l-1.8-1.1v0.9
					l-3.4,2l12.5,7.2c0.1,0.1,0.3,0.1,0.4,0.2h0.1c0.1,0,0.2,0.1,0.3,0.1s0.2,0,0.3,0.1c0.1,0,0.2,0,0.4,0.1c0,0,0,0,0.1,0
					c0.2,0,0.3,0,0.5,0h0.1c0.2,0,0.3,0,0.5,0h0.1c0.2,0,0.3,0,0.4-0.1h0.1c0.1,0,0.3-0.1,0.4-0.1l0,0c0.2-0.1,0.3-0.1,0.4-0.2
					l23.4-13.6c0.5-0.3,0.8-0.7,0.8-1.2c0,0.8,0,1.5,0,2.3c0,0.4-0.3,0.8-0.8,1.2l-23.4,13.6c-0.1,0.1-0.3,0.1-0.4,0.2l0,0l0,0
					c-0.1,0-0.2,0.1-0.3,0.1h-0.1h-0.1h-0.1c-0.1,0-0.2,0-0.3,0h-0.1c0,0,0,0-0.1,0h-0.1c-0.1,0-0.2,0-0.3,0c0,0,0,0-0.1,0h-0.1H159
					c-0.1,0-0.2,0-0.3,0l0,0c0,0,0,0-0.1,0s-0.2,0-0.3,0h-0.1c-0.1,0-0.2,0-0.2-0.1c-0.1,0-0.1,0-0.2,0c0,0-0.1,0-0.1-0.1h-0.1
					c-0.1-0.1-0.3-0.1-0.4-0.2l-40.6-23.5c0,0-0.1,0-0.1-0.1l0,0c0,0-0.1,0-0.1-0.1c0,0-0.1,0-0.1-0.1c0,0,0,0-0.1-0.1l0,0l0,0
					l-0.1-0.1l0,0l0,0c0,0,0-0.1-0.1-0.1l0,0l0,0v-0.1c0,0,0,0,0-0.1l0,0v-0.1c0,0,0,0,0-0.1l0,0v-0.1c0,0,0,0,0-0.1l0,0
					C116,164.4,116,163.6,116,162.9z"/>
				<g>
					<path class="st13" d="M116.8,161.7l23.4-13.6c1.1-0.6,2.9-0.6,4,0l40.6,23.5c1.1,0.6,1.1,1.7,0,2.3l-23.4,13.6
						c-1.1,0.6-2.9,0.6-4,0L116.8,164C115.7,163.4,115.7,162.3,116.8,161.7z"/>
					<g>
						<polygon class="st12" points="141.6,157.3 143.8,158.6 145.8,157.4 143.7,156.1 						"/>
						<polygon class="st12" points="136.6,158.9 138.8,160.1 140.9,158.9 138.7,157.7 						"/>
						<polygon class="st12" points="132.9,161.1 135,159.9 133.3,159 136.9,156.9 134.2,155.3 128.5,158.6 						"/>
						<polygon class="st12" points="144.5,161 142.3,159.8 140.2,161 142.4,162.2 						"/>
						<polygon class="st12" points="132.4,162.9 126.8,159.6 124.7,160.8 130.3,164.1 						"/>
						<polygon class="st12" points="137.8,166 133.7,163.6 131.7,164.8 135.7,167.2 						"/>
						<polygon class="st12" points="145.9,166.2 143.7,165 141.6,166.2 143.8,167.4 						"/>
						<polygon class="st12" points="144.2,152.1 142,150.8 139.9,152 142.1,153.3 						"/>
						<polygon class="st12" points="143.8,154.2 146,155.5 148.1,154.3 145.9,153 						"/>
						<polygon class="st12" points="142.2,155.3 138.2,153 136.1,154.2 140.1,156.5 						"/>
						<polygon class="st12" points="147.6,156.4 149.8,157.7 151.9,156.5 149.7,155.2 						"/>
						<polygon class="st12" points="151.4,158.7 153.6,159.9 155.7,158.7 153.5,157.5 						"/>
						<polygon class="st12" points="145.2,159.5 147.4,160.7 149.5,159.5 147.3,158.3 						"/>
						<polygon class="st12" points="155.3,160.9 157.5,162.2 159.6,161 157.4,159.7 						"/>
						<polygon class="st12" points="148.9,161.6 151.1,162.9 153.2,161.7 151,160.4 						"/>
						<polygon class="st12" points="138.7,162 136.5,160.8 134.4,162 136.6,163.3 						"/>
						<polygon class="st12" points="159.1,163.1 161.3,164.4 163.4,163.2 161.2,161.9 						"/>
						<polygon class="st12" points="143.9,163.1 146.1,164.3 148.1,163.1 145.9,161.9 						"/>
						<polygon class="st12" points="152.6,163.7 154.8,165 156.8,163.8 154.7,162.5 						"/>
						<polygon class="st12" points="142.3,164.2 140.1,162.9 138,164.1 140.2,165.4 						"/>
						<polygon class="st12" points="147.5,165.2 149.7,166.4 151.8,165.2 149.6,164 						"/>
						<polygon class="st12" points="163,165.3 165.1,166.6 167.2,165.4 165,164.1 						"/>
						<polygon class="st12" points="156.2,165.8 158.4,167.1 160.5,165.9 158.3,164.6 						"/>
						<polygon class="st12" points="151.1,167.3 153.3,168.6 155.4,167.4 153.2,166.1 						"/>
						<polygon class="st12" points="166.8,167.6 169,168.8 171.1,167.6 168.9,166.4 						"/>
						<polygon class="st12" points="159.9,168 162.1,169.2 164.2,168 162,166.8 						"/>
						<polygon class="st12" points="149.6,168.4 147.4,167.1 145.3,168.3 147.5,169.6 						"/>
						<polygon class="st12" points="154.7,169.4 156.9,170.7 159,169.5 156.8,168.2 						"/>
						<polygon class="st12" points="170.6,169.8 172.8,171.1 174.9,169.9 172.7,168.6 						"/>
						<polygon class="st12" points="167.8,170.2 165.6,168.9 163.6,170.1 165.8,171.4 						"/>
						<polygon class="st12" points="153.2,170.5 151,169.2 148.9,170.4 151.1,171.7 						"/>
						<polygon class="st12" points="158.4,171.5 160.5,172.8 162.6,171.6 160.4,170.3 						"/>
						<polygon class="st12" points="156.8,172.6 154.6,171.3 152.5,172.5 154.7,173.8 						"/>
						<polygon class="st12" points="180.2,172.9 178,171.7 175.9,172.9 178.1,174.1 						"/>
						<polygon class="st12" points="166.2,173.7 164.1,172.4 162,173.6 164.2,174.9 						"/>
						<polygon class="st12" points="152.2,174.4 139.1,166.7 137,167.9 150.1,175.6 						"/>
						<polygon class="st12" points="156.1,174.6 158.3,175.9 160.4,174.7 158.2,173.4 						"/>
						<polygon class="st12" points="167.4,172.3 174.3,176.3 176.4,175.1 169.5,171.1 						"/>
						<polygon class="st12" points="136.7,169.9 133.2,172 143.7,178 147.3,176 						"/>
						<polygon class="st12" points="165.6,175.7 170.5,178.5 172.6,177.3 167.7,174.5 						"/>
						<polygon class="st12" points="157.7,177.5 153.7,175.2 151.6,176.4 155.6,178.7 						"/>
						<polygon class="st12" points="159.8,176.7 166.7,180.7 168.8,179.5 161.9,175.5 						"/>
						<polygon class="st12" points="157.1,179.6 162.9,182.9 164.9,181.7 159.1,178.4 						"/>
					</g>
				</g>
			</g>
			<g>
				<path class="st12" d="M143,116.3C143,116.3,143.1,116.3,143,116.3c0.3-0.2,0.5-0.3,0.6-0.4c0.2-0.1,0.4-0.2,0.6-0.3
					c0.4-0.2,0.9-0.2,1.4,0.1l40.6,23.5c1.1,0.6,2,2.2,2,3.5l-0.1,27c0,0.6-0.2,1.1-0.6,1.3c-0.5,0.3-1,0.6-1.4,0.8
					c0.4-0.2,0.6-0.7,0.6-1.3l0.1-27c0-1.3-0.9-2.8-2-3.5l-40.6-23.5c-0.6-0.3-1.1-0.4-1.4-0.1C142.9,116.4,142.9,116.4,143,116.3z"
					/>
			</g>
			<g>
				<path class="st11" d="M184.9,140.1c1.1,0.6,2,2.2,2,3.5l-0.1,27c0,1.3-0.9,1.8-2,1.2l-40.6-23.5c-1.1-0.6-2-2.2-2-3.5l0.1-27
					c0-1.3,0.9-1.8,2-1.1L184.9,140.1z M143.7,144.6c0,0.8,0.5,1.7,1.2,2.1l39,22.5c0.7,0.4,1.2,0.1,1.2-0.7l0.1-24.8
					c0-0.8-0.5-1.7-1.2-2.1l-39-22.5c-0.7-0.4-1.2-0.1-1.2,0.7L143.7,144.6L143.7,144.6z"/>
			</g>
		</g>
	</g>
	<g>
		<g class="st9">
			<g>
				<path class="st10" d="M254.3,160.6c0.6-0.3,1.3-0.4,2.1-0.3c0.5,0.1,1,0.3,1.6,0.6c0.5,0.3,1,0.7,1.5,1.1l-2.3,1.4
					c-0.5-0.4-1-0.8-1.5-1.1s-1.1-0.5-1.6-0.6c-0.8-0.2-1.5-0.1-2.1,0.3L254.3,160.6z"/>
				<path class="st10" d="M261.1,159.2c0.7-0.4,1.5-0.5,2.4-0.3c0.6,0.1,1.2,0.4,1.8,0.7c1.1,0.6,2,1.5,2.9,2.5
					c1.6,1.9,2.7,4.4,3,6.7c0.5,0.1,1,0.3,1.5,0.6c0.9,0.5,1.8,1.3,2.5,2.2c1.6,1.9,2.7,4.5,2.7,6.7c0,1.6-0.6,2.8-1.5,3.3l-2.3,1.4
					c0.9-0.5,1.5-1.7,1.5-3.3c0-2.2-1.1-4.8-2.7-6.7c-0.7-0.9-1.6-1.7-2.5-2.2c-0.5-0.3-1-0.5-1.5-0.6c-0.3-2.3-1.4-4.8-3-6.7
					c-0.9-1-1.8-1.9-2.9-2.5c-0.6-0.4-1.2-0.6-1.8-0.7c-0.9-0.2-1.8-0.1-2.4,0.3L261.1,159.2z"/>
			</g>
			<g>
				<path class="st13" d="M263.1,161c-3-1.7-5.5-0.6-5.9,2.4c-0.5-0.4-1-0.8-1.5-1.1c-2.9-1.6-5.2-0.3-5.2,3s2.3,7.3,5.2,8.9
					l14.8,8.6c2.9,1.6,5.2,0.3,5.2-3s-2.3-7.3-5.2-8.9c-0.5-0.3-1-0.5-1.5-0.6C268.5,166.7,266.1,162.7,263.1,161z"/>
			</g>
		</g>
	</g>
	<g>
		<g class="st9">
			<g>
				<path class="st10" d="M88.8,58.7c0.7-0.4,1.7-0.6,2.7-0.3c0.6,0.1,1.3,0.4,2,0.8c0.7,0.4,1.3,0.9,1.9,1.5l-3,1.7
					c-0.6-0.6-1.3-1.1-1.9-1.5c-0.7-0.4-1.4-0.7-2-0.8c-1-0.2-2-0.1-2.7,0.3L88.8,58.7z"/>
				<path class="st10" d="M97.6,57c0.9-0.5,1.9-0.7,3.1-0.4c0.7,0.2,1.5,0.5,2.3,0.9c1.4,0.8,2.6,1.9,3.7,3.3c2,2.5,3.5,5.7,3.9,8.6
					c0.6,0.1,1.3,0.4,1.9,0.8c1.2,0.7,2.3,1.7,3.2,2.8c2,2.5,3.4,5.8,3.4,8.7c0,2.1-0.7,3.6-1.9,4.3l-3,1.7c1.2-0.7,1.9-2.2,1.9-4.3
					c0-2.9-1.4-6.2-3.4-8.7c-1-1.2-2.1-2.1-3.2-2.8c-0.7-0.4-1.3-0.6-1.9-0.8c-0.4-3-1.8-6.2-3.9-8.6c-1.1-1.3-2.4-2.5-3.7-3.3
					c-0.8-0.5-1.6-0.8-2.3-0.9c-1.2-0.3-2.3-0.1-3.1,0.4L97.6,57z"/>
			</g>
			<g>
				<path class="st13" d="M100.1,59.2c-3.9-2.2-7.1-0.8-7.6,3.1c-0.6-0.6-1.3-1.1-1.9-1.5c-3.7-2.1-6.7-0.4-6.7,3.8s3,9.4,6.6,11.5
					l19.1,11c3.7,2.1,6.7,0.4,6.7-3.8c0-4.2-3-9.4-6.6-11.5c-0.7-0.4-1.3-0.6-1.9-0.8C107.1,66.6,103.9,61.5,100.1,59.2z"/>
			</g>
		</g>
	</g>
	<g>
		<g class="st9">
			<g>
				<path class="st10" d="M211.1,129.6c0.8-0.5,1.7-0.6,2.8-0.4c0.7,0.1,1.4,0.4,2.1,0.8c0.7,0.4,1.4,0.9,2,1.5l-3.1,1.8
					c-0.6-0.6-1.3-1.1-2-1.5s-1.4-0.7-2.1-0.8c-1.1-0.2-2-0.1-2.8,0.4L211.1,129.6z"/>
				<path class="st10" d="M220.3,127.8c0.9-0.5,2-0.7,3.3-0.4c0.8,0.2,1.6,0.5,2.4,1c1.4,0.8,2.7,2,3.9,3.4c2.1,2.6,3.6,5.9,4,9
					c0.6,0.1,1.3,0.4,2,0.8c1.2,0.7,2.4,1.7,3.3,2.9c2.1,2.6,3.5,6,3.5,9c0,2.2-0.8,3.7-2,4.4l-3.1,1.8c1.2-0.7,2-2.2,2-4.4
					c0-3-1.4-6.4-3.5-9c-1-1.2-2.1-2.2-3.3-2.9c-0.7-0.4-1.4-0.7-2-0.8c-0.4-3.1-1.9-6.4-4-9c-1.1-1.4-2.5-2.6-3.9-3.4
					c-0.8-0.5-1.7-0.8-2.4-1c-1.2-0.3-2.4-0.1-3.2,0.4L220.3,127.8z"/>
			</g>
			<g>
				<path class="st13" d="M222.9,130.1c-4-2.3-7.3-0.8-7.9,3.2c-0.6-0.6-1.3-1.1-2-1.5c-3.8-2.2-6.9-0.4-6.9,3.9
					c0,4.4,3.1,9.7,6.9,11.9l19.8,11.4c3.8,2.2,6.9,0.4,6.9-3.9c0-4.4-3.1-9.7-6.9-11.9c-0.7-0.4-1.4-0.7-2-0.8
					C230.2,137.7,226.9,132.4,222.9,130.1z"/>
			</g>
		</g>
	</g>
	<g>
		<g>
			<path class="st6" d="M237.6,169L237.6,169L237.6,169L237.6,169c0-0.1-0.1-0.2-0.2-0.3c-0.2-0.1-0.6-0.1-0.8,0s-0.2,0.4,0,0.5
				c-0.1-0.1-0.2-0.2-0.2-0.3l-0.4,14.2c0,0.1,0,0.2,0.1,0.3l0,0l0,0c0,0.1,0.1,0.1,0.2,0.1c0.3,0.2,0.7,0.2,1.1,0.1l0,0
				c0.1,0,0.2-0.1,0.3-0.1c0.2-0.1,0.3-0.3,0.3-0.4L237.6,169z"/>
			<path class="st6" d="M242.5,172.2L242.5,172.2L242.5,172.2L242.5,172.2c0-0.1-0.1-0.2-0.2-0.3c-0.2-0.1-0.6-0.1-0.8,0
				s-0.2,0.4,0,0.5c-0.1-0.1-0.2-0.2-0.2-0.3l-0.4,14.2c0,0.1,0,0.2,0.1,0.3l0,0l0,0c0,0.1,0.1,0.1,0.2,0.1c0.3,0.2,0.7,0.2,1.1,0.1
				l0,0c0.1,0,0.2-0.1,0.3-0.1c0.2-0.1,0.3-0.3,0.3-0.4L242.5,172.2z"/>
			<path class="st6" d="M233.1,166.3L233.1,166.3c0-0.1-0.1-0.2-0.2-0.2c-0.2-0.1-0.6-0.1-0.8,0c-0.1,0.1-0.2,0.2-0.2,0.2l0,0l0,0
				l0,0l-0.4,14.1c0,0.1,0,0.2,0.1,0.3l0,0l0,0c0,0.1,0.1,0.1,0.2,0.1c0.3,0.2,0.7,0.2,1.1,0.1l0,0c0.1,0,0.2-0.1,0.3-0.1
				c0.2-0.1,0.3-0.3,0.3-0.4L233.1,166.3z"/>
		</g>
		<g>
			<g>
				<g class="st9">
					<g>
						<polygon class="st14" points="245,186.5 245,190.6 234.4,196.7 234.4,192.6 						"/>
					</g>
					<g>
						<polygon class="st14" points="234.4,192.6 234.4,196.7 219.2,188 219.2,183.9 						"/>
					</g>
					<g>
						<polygon class="st12" points="233.6,193.2 233.6,195.6 220,187.8 220,185.4 						"/>
					</g>
					<g>
						<polygon class="st11" points="245,186.5 234.4,192.6 219.2,183.9 229.8,177.8 						"/>
					</g>
				</g>
			</g>
			<path class="st12" d="M220.9,183.7c0.2-0.1,0.6-0.1,0.8,0s0.2,0.3,0,0.5c-0.2,0.1-0.6,0.1-0.8,0
				C220.7,184.1,220.7,183.9,220.9,183.7z"/>
			<ellipse class="st12" cx="222.8" cy="184.8" rx="0.6" ry="0.3"/>
			<path class="st12" d="M223.9,185.5c0.2-0.1,0.6-0.1,0.8,0s0.2,0.3,0,0.5c-0.2,0.1-0.6,0.1-0.8,0
				C223.7,185.8,223.7,185.6,223.9,185.5z"/>
		</g>
	</g>
	<g>
		<path class="st6" d="M136.1,138.2c0.1,0,0.1,0,0.2,0c0.2,0.1,0.3,0.4,0.3,0.6c0,0.1,0,0.1-0.1,0.2c0.3-0.3,0.5-0.7,0.8-1
			C137,138.1,136.5,138.1,136.1,138.2z"/>
		<path class="st13" d="M136.3,138.3c-0.1,0-0.1,0-0.2,0c-0.6,0.1-1.3,0.2-1.9,0.3l0,0h0.1c0,0,0,0,0.1,0s0.2,0,0.3,0.1
			s0.2,0.2,0.3,0.3c0.2,0.2,0.4,0.5,0.5,0.8c0,0.1,0.1,0.3,0.1,0.4c0,0.1,0,0.3-0.1,0.3c0,0,0,0,0,0.1c0,0,0,0.1-0.1,0.1
			c0,0,0,0,0.1,0c0.4-0.5,0.8-1,1.2-1.5c0,0,0.1-0.1,0.1-0.2C136.6,138.6,136.5,138.4,136.3,138.3z"/>
		<path class="st11" d="M135.4,140.5C135.4,140.4,135.5,140.4,135.4,140.5c0.1-0.2,0.1-0.3,0.1-0.4c0-0.1,0-0.3-0.1-0.4
			c-0.1-0.3-0.3-0.6-0.5-0.8c-0.1-0.1-0.2-0.2-0.3-0.3s-0.2-0.1-0.3-0.1c0,0,0,0-0.1,0h-0.1H134l0,0l0,0l-12.3,7.2
			c0.1,0,0.1,0,0.2,0c0,0,0,0,0.1,0s0.2,0,0.3,0.1c0.5,0.3,0.9,0.9,0.9,1.5c0,0.1,0,0.3-0.1,0.3l0,0l-0.1,0.1l-0.1,0.1l0,0
			c3.7-2.2,8.6-5,12.3-7.2l0,0C135.3,140.6,135.3,140.6,135.4,140.5L135.4,140.5z"/>
		<path class="st13" d="M121.9,145.7C122,145.7,122,145.7,121.9,145.7C122,145.7,122,145.7,121.9,145.7z"/>
		<path class="st13" d="M123.1,147.7l-0.1,0.1C123,147.8,123,147.7,123.1,147.7z"/>
		<path class="st13" d="M123.2,147.2c0,0.1,0,0.3-0.1,0.3C123.2,147.5,123.2,147.4,123.2,147.2z"/>
		<path class="st13" d="M121,148.9c0.1,0,0.1,0,0.2,0l0,0C121.1,148.9,121,148.9,121,148.9z"/>
		<path class="st13" d="M119.9,146.8L119.9,146.8c0,0,0.1,0,0.2,0C120,146.8,120,146.8,119.9,146.8z"/>
		<path class="st13" d="M120.2,146.7c0.1,0,0.2,0,0.3,0.1C120.4,146.8,120.3,146.7,120.2,146.7z"/>
		<path class="st13" d="M119.7,147C119.8,147,119.8,146.9,119.7,147C119.8,146.9,119.8,147,119.7,147z"/>
		<path class="st13" d="M121.2,148.7C121.3,148.7,121.3,148.7,121.2,148.7C121.3,148.7,121.3,148.7,121.2,148.7z"/>
		<path class="st13" d="M120.9,148.9c-0.1,0-0.2,0-0.3-0.1C120.7,148.9,120.8,148.9,120.9,148.9z"/>
		<path class="st6" d="M123,147.8l0.1-0.1c0,0,0.1,0,0.1-0.1l0,0c0-0.1,0.1-0.2,0.1-0.3c0-0.5-0.4-1.2-0.9-1.5
			c-0.1-0.1-0.2-0.1-0.3-0.1c0,0,0,0-0.1,0s-0.1,0-0.2,0l-1.8,1.1c0.1,0,0.1,0,0.2,0c-0.1,0-0.1,0-0.2,0l-0.1,0.1l-0.1,0.1
			c0,0.1-0.1,0.2-0.1,0.3c0,0.5,0.4,1.2,0.9,1.5c0.1,0.1,0.2,0.1,0.3,0.1h0.1c0.1,0,0.1,0,0.2,0l0,0L123,147.8L123,147.8z
			 M120.2,146.7c0.1,0,0.2,0,0.3,0.1C120.4,146.8,120.3,146.7,120.2,146.7z M121.3,148.6C121.3,148.7,121.3,148.7,121.3,148.6
			C121.3,148.7,121.3,148.7,121.3,148.6z"/>
	</g>
	<g>
		<g>
			<g>
				<g class="st9">
					<path class="st15" d="M97.4,199.9c0.6,0.3,1,1,1.1,1.9c0,0,0,0,0,0.1v11.9l-1.9-1.1v-11.9c0,0,0,0,0-0.1
						c-0.1-0.9-0.6-1.5-1.1-1.9L97.4,199.9z"/>
				</g>
			</g>
			<path class="st6" d="M131.7,299.7l-0.3-0.2l1-0.6v-2.2c0-1.5-0.8-3-2.2-3.7l-13-7.4l9.5-5.5c0.2,0.2,0.4,0.4,0.7,0.6
				c0.6,0.4,1.2,0.3,1.5-0.2c-0.1,0.1-0.1,0.2-0.2,0.3l2.1-1.2c0.3-0.2,0.5-0.6,0.5-1.1c0-0.3,0-0.5-0.1-0.8v-0.1l0.2-0.1v-2.1
				c0-1.6-0.9-3.1-2.3-3.9l-1.5-0.9c-0.7-0.4-1.6-0.4-2.3,0l-12.2,7.1l-0.1-46.4h-4.7h-5.5l0.1,45.9l-12.5-7.3
				c-0.7-0.4-1.6-0.4-2.3,0l-2.1,1.2c-1.1,0.6-1.7,1.7-1.7,3v2.8l0.1,0.1v0.1c0,0.1-0.1,0.1-0.1,0.2c-0.1,0.3-0.1,0.5-0.1,0.8
				c0,0.5,0.2,0.9,0.5,1.1l2.1,1.2c-0.1-0.1-0.2-0.2-0.2-0.3c0.3,0.4,0.8,0.5,1.5,0.1c0.3-0.2,0.6-0.4,0.8-0.7l10.5,6.1l-12.3,7
				c-1.4,0.8-2.2,2.2-2.2,3.8v2.2l0.8,0.5l-0.3,0.2l0,0l0,0l0,0c-0.3,0.2-0.5,0.6-0.5,1.1c0,1.1,0.8,2.4,1.7,3
				c0.6,0.4,1.2,0.3,1.5-0.2c-0.1,0.1-0.1,0.2-0.2,0.3l2.1-1.2c0.3-0.2,0.5-0.6,0.5-1.1v-0.1l18-10.2l18.5,10.6c0,0.1,0,0.2,0,0.2
				c0,0.5,0.2,0.9,0.5,1.1l2.1,1.2c-0.1-0.1-0.2-0.2-0.2-0.3c0.3,0.4,0.8,0.5,1.5,0.2c1-0.6,1.7-1.9,1.7-3
				C132.2,300.2,132,299.8,131.7,299.7L131.7,299.7z"/>
			<g>
				<path class="st16" d="M143,226.5c0-0.5-0.1-1-0.2-1.4c-0.6,2.7-2.7,5.4-6.3,7.4l-13.8,7.9c-4.2,2.4-9.6,3.6-15.1,3.7
					c-5.7,0.1-11.5-1.2-15.9-3.7L78,232.5c-2.9-1.7-4.8-3.7-5.7-5.9c-0.2-0.5-0.4-1-0.5-1.5c-0.1,0.5-0.2,1.1-0.2,1.6
					c0-0.1,0-0.1,0-0.2v4.3c0,0.1,0,0.2,0,0.3v0.9c0,1,0.2,2,0.6,3c0.9,2.2,2.8,4.2,5.7,5.9l13.7,7.9c4.4,2.5,10.1,3.7,15.9,3.7
					c5.5-0.1,10.9-1.3,15.1-3.7l13.8-7.9c4.3-2.5,6.5-5.7,6.5-9L143,226.5L143,226.5z"/>
				<path class="st17" d="M78.1,232.5l13.7,7.9c4.4,2.5,10.1,3.7,15.9,3.7c5.5-0.1,10.9-1.3,15.1-3.7l13.8-7.9
					c3.6-2.1,5.7-4.7,6.3-7.4c-0.5-2.7-2.6-5.3-6.2-7.4l-13.7-7.9c-8.5-4.9-22.4-4.9-31,0l-13.8,7.9c-3.7,2.1-5.8,4.8-6.3,7.5
					c0.1,0.5,0.3,1,0.5,1.5C73.2,228.8,75.2,230.8,78.1,232.5z"/>
			</g>
			<path class="st6" d="M72.3,234.1c0.9,2.2,2.8,4.2,5.7,5.9l13.7,7.9c4.4,2.5,10.1,3.7,15.9,3.7c5.5-0.1,10.9-1.3,15.1-3.7
				l13.8-7.9c4.3-2.5,6.5-5.7,6.5-9v5.5c0,3.2-2.1,6.5-6.5,9l-13.8,7.9c-4.2,2.4-9.6,3.6-15.1,3.7c-5.7,0.1-11.5-1.2-15.9-3.7
				L78,245.5c-2.9-1.7-4.8-3.7-5.7-5.9c-0.4-1-0.6-2-0.6-3v-5.5C71.7,232.1,71.9,233.1,72.3,234.1z"/>
		</g>
		<g>
			<path class="st2" d="M134.4,205.6l-18.5,8.6c-15.5-4.1-36.6-8.2-38.6-1c-3.3,11.5,0.3,17.2,6,20.7s22.6,8.3,34.4,2l34.3-20.1
				L134.4,205.6z"/>
		</g>
		<path class="st18" d="M111.8,149.7c0-0.9-3-6.7-3.8-6c-3,2.3-11.6,1.8-13.7,0.7c-1.9-1-1.7-3.8-1.7-3.8s-11.8,10.4,4.5,13.5
			c3.3,0.6,7,0.4,10-1C109.7,151.9,114.2,152.1,111.8,149.7z"/>
		<g>
			<path class="st5" d="M127.8,214.6v1.1C127.8,215,127.8,214.6,127.8,214.6z"/>
			<path class="st5" d="M112.2,232.9c13.7-2,15.4-13.5,15.6-17.2v-1.1l0,0c0,0-1.2-2.3-2.7-7.2c-1.6-4.9,4.8-36.8-5.7-53
				c-3.2-3.7-6.4-5.4-8.4-6.2c0,0-4.5,5.1-14.4,2.9c-10.1-2.2-6.4-8.2-6.4-8.2C77,143,77,160.1,76.6,166.2
				c-0.7,11-1.4,33.8-1.2,52.6c0.9,1.6,1.9,3.2,3.1,4.6C86.8,233.3,95.9,235.3,112.2,232.9z"/>
		</g>
		<g>
			<g>
				<g class="st9">
					<g>
						<polygon class="st19" points="85.2,195.9 87.5,194.5 81.4,191 79.1,192.4 						"/>
					</g>
					<path class="st6" d="M85.2,195.9l-6.1-3.5l-0.2,54.8c0,0.7,0.4,1.3,1,1.7l3.3,1.9c1.2,0.7,2.6,0.7,3.7,0l0.5-0.3l0.2-55.9
						L85.2,195.9z"/>
				</g>
			</g>
			<g>
				<path class="st17" d="M107.5,212.4l-2.4-29.8c-0.2-2.8-1.1-5.8-2.4-8.8c-1.5-3.3-3.6-6.7-6.1-9.7c-3-3.6-6.5-6.7-10.1-8.8
					c-2.2-1.3-4.4-2.1-6.4-2.5c-3-0.6-5.7-0.3-7.8,0.7c-0.1,0.1-0.2,0.1-0.3,0.2l-4.1,2.4c0.1-0.1,0.2-0.1,0.3-0.2h0.1
					c-0.2,0.1-0.5,0.3-0.7,0.4c1.3-0.1,2.7,0,4.2,0.3c2,0.4,4.2,1.2,6.4,2.5c3.7,2.1,7.2,5.2,10.1,8.8c2.5,3,4.6,6.3,6.1,9.7
					c1.3,3,2.2,6,2.4,8.8l2.4,29.8c0.3,4.1-0.8,7-3,8.6c1.4-0.1,2.7-0.4,3.7-1.1c-0.1,0.1-0.2,0.1-0.2,0.2l4.1-2.4
					C106.5,220,107.9,216.9,107.5,212.4z"/>
				<path class="st16" d="M99.3,216.2l-2.4-29.8c-0.2-2.8-1.1-5.8-2.4-8.8c-1.5-3.3-3.6-6.7-6.1-9.7c-3-3.6-6.5-6.7-10.1-8.8
					c-2.2-1.3-4.4-2.1-6.4-2.5c-1.5-0.3-2.9-0.4-4.2-0.3c-2.3,1.4-3.8,3.9-4.1,7.2l-2.5,27c-0.8,8.6,6.4,20.3,16.1,25.8l10.1,5.8
					c3.4,1.9,6.5,2.8,9,2.6C98.5,223.2,99.6,220.2,99.3,216.2z"/>
			</g>
		</g>
		<path class="st20" d="M116.6,109c0,0,0.6,6.6-0.1,11.5c0,0,1.5,2.3,2.1,3.8c0.6,1.6-2.1,3-2.1,3s0.4,3.4-0.6,7.3
			c-1,4-4.4,4.7-7.7,5.3c0,0-0.2,1.9,0,3.7c0,0-1.8,1.8-7,1.9c-5.3,0.1-8.7-1-8.7-4.3c0-3.2,0-7.8,0-7.8v-24.6L116.6,109z"/>
		<path class="st21" d="M101.8,136.1c-3.3-3.1-3-9.8,0.2-9.8s2.6,5.3,2.6,5.3s1.4,0.6,2.8-0.7c0,0-1.4-6.6,0-11.9
			c1.4-5.2,4.1-6.9,4.1-6.9s3.8,2.2,6.5,1.6c0,0,0.8-6.5,2.1-10.5c0,0-9.4-8.2-27-3.8c-17.6,4.4-11.6,23.6-7.9,29.6
			c3.6,6,7.7,9.1,7.7,9.1s3,3.1,10.6,2.2c0,0-0.7-0.9-1.1-2.2C101.9,136.9,101.8,136.1,101.8,136.1z"/>
		<g>
			<path class="st20" d="M128.5,165c0,0,2.1,0.1,4.6,1.3s4.2,2.5,4.6,2.5c0.5,0,0.8-0.7,0.2-1.6s-1.9-1.9-1.9-1.9s3.9-1.1,5.7-2.4
				c1.8-1.3-1.3-3.6-2.1-4.4c-1.1-1.1-3.8-0.7-6.5-0.4c-2.7,0.4-3.5,0.9-6.2,1C124.3,159.3,128.5,165,128.5,165z"/>
			<path class="st5" d="M127.2,158.4c0,0,3.6,3,2.6,7.7c0,0-6.2,3.4-17.4,3.7l-3.2-10.5C109.3,159.3,118.7,156.8,127.2,158.4"/>
			<path class="st20" d="M149.5,183.6c0,0,1.3-1.6,2.1-4.3s0.9-4.8,1.2-5.1s1.1-0.2,1.4,0.9c0.3,1.1,0.2,2.6,0.2,2.6
				s2.6-1.7,4.8-2.2s4.5,2.4,4.6,3.5c0.1,1.5-2.6,3.8-4.7,5.5s-4.2,2.1-6,4.1C151.1,190.4,149.5,183.6,149.5,183.6z"/>
			<path class="st5" d="M120.6,155.8c10.3,8.9,13.4,30.6,13.4,30.6s8.1-3.3,15.1-4.7c0,0,4.6,0.3,5.6,7.6c0,0-11.2,7.8-19.3,11.7
				s-12.3,3.4-14.4-0.3c-2-3.7-11.3-19.6-13.2-36.2c0,0-0.7-6.2,4-8.7c1.7-0.9,3.2-1.3,4.4-1.4C117.9,154.2,119.4,154.8,120.6,155.8
				z"/>
		</g>
	</g>
	<g>
		<path class="st1" d="M246.1,120.8l-47.9-27.3c-0.1-0.1-0.3-0.3-0.3-0.4V59.6c0-0.1,0.1-0.2,0.3-0.1l47.9,27.3
			c0.1,0.1,0.3,0.3,0.3,0.4v33.5C246.4,120.9,246.3,120.9,246.1,120.8z"/>
		<path class="st2" d="M244.3,118.6L200,93.4c-0.1-0.1-0.2-0.2-0.2-0.4V64.7c0-0.1,0.1-0.2,0.2-0.1l44.2,25.2
			c0.1,0.1,0.2,0.2,0.2,0.4L244.3,118.6C244.5,118.6,244.4,118.7,244.3,118.6z"/>
		<g>
			<polygon class="st3" points="235.7,90.7 203,72.1 203,70.9 235.7,89.5 			"/>
			<polygon class="st3" points="223,87.3 203,75.9 203,74.7 223,86.1 			"/>
			<polygon class="st3" points="204.9,79.7 203,78.6 203,77.4 204.9,78.5 			"/>
			<polygon class="st4" points="208.2,81.6 206.2,80.4 206.2,79.2 208.2,80.4 			"/>
			<polygon class="st5" points="214.6,90.6 206.2,85.8 206.2,84.6 214.6,89.4 			"/>
			<polygon class="st5" points="214.6,93.3 206.2,88.5 206.2,87.3 214.6,92.1 			"/>
			<polygon class="st5" points="237.6,106.4 234.3,104.5 234.3,103.3 237.6,105.2 			"/>
			<polygon class="st5" points="214.6,96 206.2,91.2 206.2,90 214.6,94.8 			"/>
			<polygon class="st5" points="237.6,109.1 229.2,104.3 229.2,103.1 237.6,107.9 			"/>
			<polygon class="st5" points="214.6,98.7 206.2,93.9 206.2,92.7 214.6,97.5 			"/>
			<polygon class="st5" points="237.6,111.8 219.9,101.7 219.9,100.5 237.6,110.6 			"/>
			<polygon class="st4" points="211.5,83.4 209.5,82.3 209.5,81.1 211.5,82.2 			"/>
			<polygon class="st4" points="214.8,85.3 212.9,84.2 212.9,83 214.8,84.1 			"/>
			<path class="st6" d="M237.7,84.7l-1.5-0.8c-0.1-0.1-0.2-0.2-0.2-0.4v-0.7c0-0.1,0.1-0.2,0.2-0.1l1.5,0.8c0.1,0.1,0.2,0.2,0.2,0.4
				v0.7C237.9,84.7,237.8,84.7,237.7,84.7z"/>
			<path class="st6" d="M241,86.5l-1.5-0.8c-0.1-0.1-0.2-0.2-0.2-0.4v-0.7c0-0.1,0.1-0.2,0.2-0.1l1.5,0.8c0.1,0.1,0.2,0.2,0.2,0.4
				v0.7C241.2,86.6,241.1,86.6,241,86.5z"/>
			<path class="st6" d="M244.3,88.4l-1.5-0.8c-0.1-0.1-0.2-0.2-0.2-0.4v-0.7c0-0.1,0.1-0.2,0.2-0.1l1.5,0.8c0.1,0.1,0.2,0.2,0.2,0.4
				v0.7C244.6,88.5,244.5,88.5,244.3,88.4z"/>
			<polygon class="st4" points="218.3,87.3 216.4,86.2 216.4,85 218.3,86.1 			"/>
			<polygon class="st4" points="230.2,94.1 219.7,88.1 219.7,86.9 230.2,92.9 			"/>
			<polygon class="st3" points="204.9,82.4 203,81.3 203,80.1 204.9,81.2 			"/>
			<polygon class="st7" points="236.9,100.6 206.2,83.1 206.2,81.9 236.9,99.4 			"/>
			<polygon class="st3" points="204.9,85.1 203,84 203,82.8 204.9,83.9 			"/>
			<polygon class="st3" points="204.9,87.8 203,86.7 203,85.5 204.9,86.6 			"/>
			<polygon class="st3" points="230.2,91.4 226,89 226,87.8 230.2,90.2 			"/>
			<polygon class="st3" points="239.9,93.1 237.2,91.5 237.2,90.3 239.9,91.9 			"/>
			<polygon class="st7" points="241.3,103.1 238.6,101.6 238.6,100.4 241.3,101.9 			"/>
		</g>
	</g>
	<g>
		<polygon class="st22" points="176.4,143.6 146.8,126.7 146.8,125.8 176.4,142.7 		"/>
		<polygon class="st22" points="164.9,140 146.8,129.6 146.8,128.7 164.9,139.1 		"/>
		<polygon class="st22" points="148.6,132.7 146.8,131.7 146.8,130.8 148.6,131.8 		"/>
		<polygon class="st23" points="151.5,134.4 149.7,133.4 149.7,132.5 151.5,133.5 		"/>
		<polygon class="st24" points="157.3,141.8 149.7,137.5 149.7,136.6 157.3,140.9 		"/>
		<polygon class="st24" points="157.3,143.8 149.7,139.5 149.7,138.6 157.3,142.9 		"/>
		<polygon class="st24" points="178.1,155.7 175.2,154 175.2,153.1 178.1,154.8 		"/>
		<polygon class="st24" points="157.3,145.9 149.7,141.6 149.7,140.7 157.3,145 		"/>
		<polygon class="st24" points="178.1,157.8 170.6,153.5 170.6,152.5 178.1,156.9 		"/>
		<polygon class="st24" points="157.3,148 149.7,143.6 149.7,142.7 157.3,147 		"/>
		<polygon class="st24" points="178.1,159.8 162.1,150.7 162.1,149.8 178.1,158.9 		"/>
		<polygon class="st23" points="154.5,136.1 152.7,135.1 152.7,134.2 154.5,135.2 		"/>
		<polygon class="st23" points="157.5,137.8 155.7,136.8 155.7,135.9 157.5,136.9 		"/>
		<polygon class="st23" points="160.7,139.6 158.9,138.6 158.9,137.7 160.7,138.7 		"/>
		<polygon class="st23" points="171.4,145.7 162,140.3 162,139.4 171.4,144.8 		"/>
		<polygon class="st22" points="148.6,134.8 146.8,133.7 146.8,132.8 148.6,133.8 		"/>
		<polygon class="st25" points="177.6,151.3 149.7,135.4 149.7,134.5 177.6,150.4 		"/>
		<polygon class="st22" points="148.6,136.8 146.8,135.8 146.8,134.9 148.6,135.9 		"/>
		<polygon class="st22" points="148.6,138.9 146.8,137.8 146.8,136.9 148.6,137.9 		"/>
		<polygon class="st22" points="171.4,143.7 167.7,141.6 167.7,140.7 171.4,142.8 		"/>
		<polygon class="st22" points="180.2,145.8 177.8,144.4 177.8,143.5 180.2,144.9 		"/>
		<polygon class="st25" points="181.5,153.6 179.1,152.2 179.1,151.3 181.5,152.7 		"/>
	</g>
	<g>
		<polygon class="st3" points="184.1,78.1 122,42.6 122,40.5 184.1,76 		"/>
		<polygon class="st3" points="164.1,73.5 122,49.4 122,47.3 164.1,71.3 		"/>
		<polygon class="st3" points="126.1,56.6 122,54.2 122,52.1 126.1,54.4 		"/>
		<polygon class="st4" points="132.9,60.4 128.8,58.1 128.8,56 132.9,58.3 		"/>
		<polygon class="st5" points="146.4,77.7 128.8,67.6 128.8,65.5 146.4,75.5 		"/>
		<polygon class="st5" points="146.4,82.4 128.8,72.4 128.8,70.3 146.4,80.3 		"/>
		<polygon class="st5" points="188.1,106.2 181.2,102.3 181.2,100.2 188.1,104.1 		"/>
		<polygon class="st5" points="146.4,87.2 128.8,77.1 128.8,75 146.4,85.1 		"/>
		<polygon class="st5" points="188.1,111 170.5,100.9 170.5,98.8 188.1,108.9 		"/>
		<polygon class="st5" points="146.4,91.9 128.8,81.9 128.8,79.8 146.4,89.8 		"/>
		<polygon class="st5" points="188.1,115.8 157.5,98.3 157.5,96.1 188.1,113.6 		"/>
		<polygon class="st4" points="139.9,64.4 135.8,62.1 135.8,59.9 139.9,62.3 		"/>
		<polygon class="st4" points="146.9,68.4 142.8,66.1 142.8,63.9 146.9,66.3 		"/>
		<polygon class="st4" points="154.3,72.6 150.1,70.3 150.1,68.1 154.3,70.5 		"/>
		<polygon class="st4" points="172.5,83 157.2,74.3 157.2,72.2 172.5,80.9 		"/>
		<polygon class="st3" points="126.1,61.3 122,59 122,56.8 126.1,59.2 		"/>
		<polygon class="st7" points="186.7,95.9 128.8,62.8 128.8,60.7 186.7,93.8 		"/>
		<polygon class="st3" points="126.1,66.1 122,63.7 122,61.6 126.1,64 		"/>
		<polygon class="st3" points="126.1,70.8 122,68.5 122,66.4 126.1,68.7 		"/>
		<polygon class="st3" points="172.5,78.3 170.5,77.1 170.5,75 172.5,76.2 		"/>
		<polygon class="st3" points="192.9,83.1 187.2,79.9 187.2,77.8 192.9,81 		"/>
		<polygon class="st7" points="196,101.2 190.3,98 190.3,95.9 196,99.1 		"/>
	</g>
	<g>
		<g>
			<g class="st9">
				<g>
					<g class="st9">
						<path class="st24" d="M210.5,136.8l1.9-1.1l0,0L210.5,136.8L210.5,136.8L210.5,136.8z"/>
					</g>
				</g>
				<path class="st17" d="M219.2,119.4l-18.3-10.6c-0.9-0.5-1.6-0.5-2.2-0.2l-1.9,1.1c0.6-0.3,1.3-0.3,2.2,0.2l18.3,10.6
					c1.7,1,3.1,3.4,3.1,5.4v13.2c0,1-0.3,1.7-0.9,2l1.9-1.1c0.6-0.3,0.9-1,0.9-2v-13.2C222.3,122.8,220.9,120.4,219.2,119.4z"/>
				<g>
					<polygon class="st26" points="202.2,132.1 202.7,132.3 202.7,132.3 					"/>
					<path class="st26" d="M210.5,136.8l1.1,0.6L210.5,136.8z"/>
					<path class="st7" d="M217.4,120.5l-18.3-10.6c-1.7-1-3.1-0.2-3.1,1.8v13.2c0,2,1.4,4.4,3.1,5.4l3.2,1.9l-0.1-0.1l0.1,0.1
						l0.5,0.3l0,0l7.8,4.5l0,0l1.1,0.6h0.1h-0.1l5.8,3.3c1.7,1,3.1,0.2,3.1-1.8v-13.2C220.5,123.9,219.1,121.4,217.4,120.5z"/>
				</g>
			</g>
		</g>
		<g>
			<path class="st13" d="M204.9,122.4l-4-1.2l4,4.2v1.5l-5.7-6.1v-1.6l5.7,1.7V122.4z"/>
			<path class="st13" d="M209.2,120.9l1.7,1.1l-4,8.6l-1.7-1.1L209.2,120.9z"/>
			<path class="st13" d="M216.8,131.2v1.6l-5.7-1.7v-1.5l4,1.3l-4-4.2v-1.5L216.8,131.2z"/>
		</g>
	</g>
	<g>
		<g>
			<g class="st9">
				<g>
					<g class="st9">
						<path class="st24" d="M106.4,56.8l0.9-0.5l0,0L106.4,56.8L106.4,56.8L106.4,56.8z"/>
					</g>
				</g>
				<path class="st17" d="M110.8,48l-9.2-5.3c-0.4-0.2-0.8-0.3-1.1-0.1l-0.9,0.5c0.3-0.2,0.7-0.1,1.1,0.1l9.2,5.3
					c0.9,0.5,1.6,1.7,1.6,2.7v6.6c0,0.5-0.2,0.8-0.5,1l0.9-0.5c0.3-0.2,0.5-0.5,0.5-1v-6.6C112.4,49.7,111.7,48.5,110.8,48z"/>
				<g>
					<polygon class="st26" points="102.3,54.4 102.5,54.5 102.5,54.5 					"/>
					<path class="st26" d="M106.4,56.8l0.6,0.3L106.4,56.8z"/>
					<path class="st7" d="M109.9,48.6l-9.2-5.3c-0.9-0.5-1.6-0.1-1.6,0.9v6.6c0,1,0.7,2.2,1.6,2.7l1.6,0.9h-0.1h0.1l0.2,0.1l0,0
						l3.9,2.3l0,0l0.5,0.3l0,0l0,0l2.9,1.7c0.9,0.5,1.6,0.1,1.6-0.9v-6.6C111.5,50.3,110.8,49,109.9,48.6z"/>
				</g>
			</g>
		</g>
		<g>
			<path class="st13" d="M103.6,49.6l-2-0.6l2,2.1v0.8l-2.9-3v-0.8l2.9,0.9V49.6z"/>
			<path class="st13" d="M105.8,48.8l0.8,0.6l-2,4.3l-0.8-0.6L105.8,48.8z"/>
			<path class="st13" d="M109.6,54v0.8l-2.9-0.9v-0.8l2,0.6l-2-2.1v-0.8L109.6,54z"/>
		</g>
	</g>
	<g>
		<g>
			<g class="st9">
				<g>
					<g class="st9">
						<path class="st24" d="M283.9,160.8l0.9-0.5l0,0L283.9,160.8L283.9,160.8L283.9,160.8z"/>
					</g>
				</g>
				<path class="st17" d="M288.3,152l-9.2-5.3c-0.4-0.2-0.8-0.3-1.1-0.1l-0.9,0.5c0.3-0.2,0.7-0.1,1.1,0.1l9.2,5.3
					c0.9,0.5,1.6,1.7,1.6,2.7v6.6c0,0.5-0.2,0.8-0.5,1l0.9-0.5c0.3-0.2,0.5-0.5,0.5-1v-6.6C289.9,153.7,289.2,152.5,288.3,152z"/>
				<g>
					<polygon class="st26" points="279.8,158.4 280,158.5 280,158.5 					"/>
					<path class="st26" d="M283.9,160.8l0.6,0.3L283.9,160.8z"/>
					<path class="st7" d="M287.4,152.6l-9.2-5.3c-0.9-0.5-1.6-0.1-1.6,0.9v6.6c0,1,0.7,2.2,1.6,2.7l1.6,0.9h-0.1h0.1l0.2,0.1l0,0
						l3.9,2.3l0,0l0.5,0.3l0,0l0,0l2.9,1.7c0.9,0.5,1.6,0.1,1.6-0.9v-6.6C288.9,154.3,288.2,153,287.4,152.6z"/>
				</g>
			</g>
		</g>
		<g>
			<path class="st13" d="M281.1,153.6l-2-0.6l2,2.1v0.8l-2.9-3v-0.8l2.9,0.9V153.6z"/>
			<path class="st13" d="M283.3,152.8l0.8,0.6l-2,4.3l-0.8-0.6L283.3,152.8z"/>
			<path class="st13" d="M287.1,158v0.8l-2.9-0.9v-0.8l2,0.6l-2-2.1v-0.8L287.1,158z"/>
		</g>
	</g>
	<g>
		<g>
			<g class="st9">
				<g>
					<g class="st9">
						<path class="st24" d="M262,140.2l1.4-0.8l0,0L262,140.2L262,140.2L262,140.2z"/>
					</g>
				</g>
				<path class="st17" d="M268.5,127.2l-13.7-7.9c-0.6-0.4-1.2-0.4-1.6-0.2l-1.4,0.8c0.4-0.2,1-0.2,1.6,0.2l13.7,7.9
					c1.3,0.7,2.3,2.5,2.3,4v9.8c0,0.7-0.3,1.2-0.7,1.5l1.4-0.8c0.4-0.2,0.7-0.8,0.7-1.5v-9.8C270.8,129.7,269.8,127.9,268.5,127.2z"
					/>
				<g>
					<polygon class="st26" points="255.8,136.7 256.2,136.9 256.2,136.9 					"/>
					<path class="st26" d="M262,140.2l0.8,0.5L262,140.2z"/>
					<path class="st7" d="M267.1,128l-13.7-7.9c-1.3-0.7-2.3-0.1-2.3,1.3v9.8c0,1.5,1,3.3,2.3,4l2.4,1.4h-0.1h0.1l0.4,0.2l0,0
						l5.8,3.3l0,0l0.8,0.5h0.1h-0.1l4.3,2.5c1.3,0.7,2.3,0.1,2.3-1.3V132C269.4,130.5,268.4,128.7,267.1,128z"/>
				</g>
			</g>
		</g>
		<g>
			<path class="st13" d="M257.8,129.5l-3-0.9l3,3.1v1.1l-4.3-4.5v-1.2l4.3,1.3V129.5z"/>
			<path class="st13" d="M261.1,128.3l1.2,0.8l-3,6.4l-1.2-0.8L261.1,128.3z"/>
			<path class="st13" d="M266.7,136v1.2l-4.3-1.3v-1.1l3,0.9l-3-3.1v-1.1L266.7,136z"/>
		</g>
	</g>
	<g>
		<g>
			<g class="st9">
				<g>
					<g class="st9">
						<path class="st24" d="M115.7,86.3l1.4-0.8l0,0L115.7,86.3L115.7,86.3L115.7,86.3z"/>
					</g>
				</g>
				<path class="st17" d="M122.2,73.4l-13.6-7.8c-0.6-0.4-1.2-0.4-1.6-0.2l-1.4,0.8c0.4-0.2,1-0.2,1.6,0.2l13.6,7.8
					c1.3,0.7,2.3,2.5,2.3,4V88c0,0.7-0.3,1.2-0.7,1.5l1.4-0.8c0.4-0.2,0.7-0.7,0.7-1.5v-9.8C124.5,75.9,123.5,74.1,122.2,73.4z"/>
				<g>
					<polygon class="st26" points="109.6,82.8 110,83 110,83 					"/>
					<path class="st26" d="M115.7,86.3l0.8,0.5L115.7,86.3z"/>
					<path class="st7" d="M120.8,74.2l-13.6-7.8c-1.3-0.7-2.3-0.1-2.3,1.3v9.8c0,1.4,1,3.2,2.3,4l2.4,1.4h-0.1h0.1L110,83l0,0
						l5.8,3.3l0,0l0.8,0.5h0.1h-0.1l4.3,2.5c1.3,0.7,2.3,0.1,2.3-1.3v-9.8C123.1,76.7,122.1,74.9,120.8,74.2z"/>
				</g>
			</g>
		</g>
		<g>
			<path class="st13" d="M111.6,75.6l-3-0.9l3,3.1v1.1l-4.2-4.5v-1.2l4.2,1.3V75.6z"/>
			<path class="st13" d="M114.8,74.5l1.2,0.8l-2.9,6.4l-1.2-0.8L114.8,74.5z"/>
			<path class="st13" d="M120.4,82.1v1.2l-4.2-1.3v-1.1l3,0.9l-3-3.1v-1.1L120.4,82.1z"/>
		</g>
	</g>
	<g>
		<g class="st9">
			<g>
				<path class="st10" d="M244,128.8c0.4-0.2,0.9-0.3,1.4-0.2c0.3,0.1,0.7,0.2,1,0.4s0.7,0.4,1,0.7l-1.5,0.9c-0.3-0.3-0.6-0.5-1-0.7
					s-0.7-0.3-1-0.4c-0.5-0.1-1,0-1.4,0.2L244,128.8z"/>
				<path class="st10" d="M248.5,128c0.4-0.3,1-0.3,1.6-0.2c0.4,0.1,0.8,0.2,1.2,0.5c0.7,0.4,1.3,1,1.9,1.7c1,1.3,1.8,2.9,2,4.4
					c0.3,0.1,0.6,0.2,1,0.4c0.6,0.3,1.2,0.8,1.6,1.4c1,1.3,1.7,2.9,1.7,4.4c0,1.1-0.4,1.8-1,2.2l-1.5,0.9c0.6-0.4,1-1.1,1-2.2
					c0-1.5-0.7-3.1-1.7-4.4c-0.5-0.6-1-1.1-1.6-1.4c-0.3-0.2-0.7-0.3-1-0.4c-0.2-1.5-0.9-3.1-2-4.4c-0.6-0.7-1.2-1.3-1.9-1.7
					c-0.4-0.2-0.8-0.4-1.2-0.5c-0.6-0.1-1.2-0.1-1.6,0.2L248.5,128z"/>
			</g>
			<g>
				<path class="st13" d="M249.8,129.1c-2-1.1-3.6-0.4-3.9,1.6c-0.3-0.3-0.6-0.5-1-0.7c-1.9-1.1-3.4-0.2-3.4,1.9
					c0,2.1,1.5,4.8,3.4,5.8l9.7,5.6c1.9,1.1,3.4,0.2,3.4-1.9c0-2.1-1.5-4.8-3.4-5.8c-0.3-0.2-0.7-0.3-1-0.4
					C253.3,132.8,251.7,130.2,249.8,129.1z"/>
			</g>
		</g>
	</g>
	<g class="st0">
		<path class="st1" d="M42.7,116.6l36.4-20.7c0.1-0.1,0.2-0.2,0.2-0.3V70.1c0-0.1-0.1-0.2-0.2-0.1L42.7,90.7
			c-0.1,0.1-0.2,0.2-0.2,0.3v25.5C42.5,116.6,42.6,116.6,42.7,116.6z"/>
		<path class="st2" d="M44.1,114.9l33.6-19.1c0.1-0.1,0.2-0.2,0.2-0.3V74c0-0.1-0.1-0.1-0.2-0.1L44.1,93c-0.1,0.1-0.2,0.2-0.2,0.3
			v21.5C43.9,114.9,44,114.9,44.1,114.9z"/>
		<g>
			<polygon class="st3" points="50.6,93.7 75.5,79.6 75.5,78.7 50.6,92.8 			"/>
			<polygon class="st3" points="60.3,91.1 75.5,82.5 75.5,81.6 60.3,90.2 			"/>
			<polygon class="st3" points="74,85.4 75.5,84.5 75.5,83.6 74,84.5 			"/>
			<polygon class="st4" points="71.6,86.8 73,85.9 73,85 71.6,85.9 			"/>
			<polygon class="st5" points="66.7,93.6 73,90 73,89.1 66.7,92.7 			"/>
			<polygon class="st5" points="66.7,95.7 73,92.1 73,91.1 66.7,94.8 			"/>
			<polygon class="st5" points="49.2,105.6 51.7,104.2 51.7,103.3 49.2,104.7 			"/>
			<polygon class="st5" points="66.7,97.7 73,94.1 73,93.2 66.7,96.8 			"/>
			<polygon class="st5" points="49.2,107.7 55.6,104 55.6,103.1 49.2,106.7 			"/>
			<polygon class="st5" points="66.7,99.8 73,96.1 73,95.2 66.7,98.8 			"/>
			<polygon class="st5" points="49.2,109.7 62.7,102 62.7,101.1 49.2,108.8 			"/>
			<polygon class="st4" points="69,88.2 70.5,87.4 70.5,86.4 69,87.3 			"/>
			<polygon class="st4" points="66.5,89.6 68,88.8 68,87.9 66.5,88.7 			"/>
			<path class="st6" d="M49.1,89.1l1.1-0.6c0.1-0.1,0.2-0.2,0.2-0.3v-0.5c0-0.1-0.1-0.1-0.2-0.1l-1.1,0.6c-0.1,0.1-0.2,0.2-0.2,0.3
				V89C48.9,89.1,49,89.2,49.1,89.1z"/>
			<path class="st6" d="M46.6,90.5l1.1-0.6c0.1-0.1,0.2-0.2,0.2-0.3v-0.5c0-0.1-0.1-0.1-0.2-0.1l-1.1,0.6c-0.1,0.1-0.2,0.2-0.2,0.3
				v0.5C46.4,90.6,46.5,90.6,46.6,90.5z"/>
			<path class="st6" d="M44.1,92l1.1-0.6c0.1-0.1,0.2-0.2,0.2-0.3v-0.5c0-0.1-0.1-0.1-0.2-0.1l-1.1,0.6c-0.1,0.1-0.2,0.2-0.2,0.3
				v0.5C43.9,92,44,92,44.1,92z"/>
			<polygon class="st4" points="63.8,91.2 65.3,90.3 65.3,89.4 63.8,90.2 			"/>
			<polygon class="st4" points="54.8,96.3 62.8,91.8 62.8,90.8 54.8,95.4 			"/>
			<polygon class="st3" points="74,87.4 75.5,86.6 75.5,85.7 74,86.5 			"/>
			<polygon class="st7" points="49.7,101.2 73,88 73,87.1 49.7,100.3 			"/>
			<polygon class="st3" points="74,89.5 75.5,88.6 75.5,87.7 74,88.5 			"/>
			<polygon class="st3" points="74,91.5 75.5,90.6 75.5,89.7 74,90.6 			"/>
			<polygon class="st3" points="54.8,94.2 58,92.4 58,91.5 54.8,93.3 			"/>
			<polygon class="st3" points="47.4,95.5 49.5,94.3 49.5,93.4 47.4,94.6 			"/>
			<polygon class="st7" points="46.3,103.1 48.4,102 48.4,101.1 46.3,102.2 			"/>
		</g>
	</g>
</g>
</svg>
