<?xml version="1.0" encoding="utf-8"?>
<!-- Generator: Adobe Illustrator 23.0.1, SVG Export Plug-In . SVG Version: 6.00 Build 0)  -->
<svg version="1.1" id="Calque_1" xmlns="http://www.w3.org/2000/svg" xmlns:xlink="http://www.w3.org/1999/xlink" x="0px" y="0px"
	 viewBox="0 0 421 403" style="enable-background:new 0 0 421 403;" xml:space="preserve">
<style type="text/css">
	.st0{fill:#D4ECFF;}
	.st1{fill:#666666;}
	.st2{fill:#222222;}
	.st3{fill:#444444;}
	.st4{fill:#CCCCCC;}
	.st5{fill:#141414;}
	.st6{fill:#EAEAEA;}
	.st7{fill:#FFC2B0;}
	.st8{fill:#3C6382;}
	.st9{fill:#FA983A;}
	.st10{fill:#FFFFFF;}
	.st11{fill:#EA9C92;}
	.st12{fill:#4A312C;}
	.st13{fill:#AAAAAA;}
	.st14{fill:#EDEDED;}
	.st15{fill:#60A3BC;}
	.st16{fill:#E9F6FF;}
	.st17{fill:#AEDEED;}
	.st18{opacity:0.4;fill:#FFFFFF;}
	.st19{fill:#B2D3EA;}
	.st20{fill:#0C2461;}
	.st21{fill:#EB2F06;}
	.st22{fill:#07153A;}
	.st23{fill:#8C1C03;}
	.st24{fill:#B45A04;}
	.st25{fill:#2C1D1A;}
	.st26{fill:#E0E0E0;}
	.st27{fill:#868686;}
	.st28{fill:#D29FFF;}
	.st29{fill:#D3008D;}
</style>
<path class="st0" d="M297.3,320.3l-0.5-0.9l14.9-8.8c1.8-1.1,4.1-1.1,6,0l12.3,7.4l-0.5,0.9l-12.3-7.4c-1.5-0.9-3.4-0.9-5,0
	L297.3,320.3z"/>
<path class="st0" d="M341.7,317.9l-0.5-0.9l38.7-22.9c0.4-0.2,0.6-0.6,0.6-1c0-0.4-0.2-0.8-0.6-1l-12.9-7.9l0.5-0.9l12.9,7.9
	c0.7,0.4,1.1,1.1,1.1,1.9c0,0.8-0.4,1.5-1.1,1.9L341.7,317.9z"/>
<path class="st0" d="M299.5,286.4l-0.5-0.9l37.7-21.7c0.4-0.2,0.6-0.6,0.6-1.1c0-0.5-0.2-0.9-0.6-1.1l-20-11.5
	c-2.7-1.6-4.4-4.5-4.4-7.7v-65.7c0-2.7,1.3-5.3,3.6-6.8l3-2l0.6,0.8l-3,2c-2,1.3-3.2,3.6-3.2,6v65.7c0,2.8,1.5,5.4,3.9,6.8l20,11.5
	c0.7,0.4,1.1,1.1,1.1,1.9c0,0.8-0.4,1.5-1.1,1.9L299.5,286.4z"/>
<path class="st1" d="M297,307.1c-0.3,0-0.7-0.2-0.9-0.5c-0.3-0.5-0.1-1.1,0.4-1.4l14.9-8.8c2-1.2,4.5-1.2,6.5,0l12.3,7.4
	c0.5,0.3,0.6,0.9,0.3,1.4c-0.3,0.5-0.9,0.6-1.4,0.3l-12.3-7.4c-1.4-0.8-3.1-0.8-4.4,0l-14.9,8.8C297.3,307.1,297.2,307.1,297,307.1z
	"/>
<path class="st0" d="M275.8,353.9l-83.1-48c-2.9-1.7-2.5-4.6,0.8-6.5l0,0c3.3-1.9,8.4-2.1,11.3-0.5l83.1,48c2.9,1.7,2.5,4.6-0.8,6.5
	l0,0C283.8,355.4,278.7,355.6,275.8,353.9z"/>
<g>
	<g>
		<g>
			<path class="st2" d="M355.3,227c-0.6-0.4-1.3-0.7-2-0.9l0,0l-3.8-1.7l0.3,0.7c-2.9-0.6-6-0.6-8.9-0.1l0.2-0.7l-4.5,2l0,0
				c-0.6,0.2-1.2,0.5-1.7,0.8c-5.6,3.3-5.6,8.5,0,11.8c5.6,3.3,14.8,3.3,20.4,0C360.9,235.6,360.9,230.3,355.3,227z"/>
			<path class="st3" d="M349.9,230.1c-2.6,1.5-6.9,1.5-9.6,0c-2.6-1.5-2.6-4,0-5.5c2.6-1.5,6.9-1.5,9.6,0
				C352.5,226.1,352.5,228.6,349.9,230.1z"/>
		</g>
		<g>
			<path class="st3" d="M345.1,228.4L345.1,228.4c-1.3,0-2.3-1-2.3-2.3v-29h4.6v29C347.4,227.4,346.4,228.4,345.1,228.4z"/>
			<path class="st3" d="M346.7,198.1c-0.9,0.5-2.4,0.5-3.3,0c-0.9-0.5-0.9-1.4,0-1.9c0.9-0.5,2.4-0.5,3.3,0
				C347.6,196.7,347.6,197.6,346.7,198.1z"/>
		</g>
		<path class="st4" d="M345.1,198.1L345.1,198.1c-1,0-1.9-0.8-1.9-1.9v-27.3h3.7v27.3C347,197.2,346.1,198.1,345.1,198.1z"/>
		<g>
			<path class="st5" d="M371.9,183.2l0-1.1l1.5-0.2l1.7-1.3c0.3-0.2,0.8-0.2,1.1,0l1.2,0.7l1.2-0.2v1.1l0,0c0,0.1-0.1,0.2-0.3,0.3
				l-3.9,1.8c-0.3,0.1-0.8,0.1-1,0l-1.3-0.8C371.9,183.4,371.9,183.3,371.9,183.2L371.9,183.2z"/>
			<path class="st2" d="M372,181.8l3-2.3c0.3-0.2,0.8-0.2,1.1,0l2.3,1.3c0.3,0.2,0.3,0.5-0.1,0.6l-3.9,1.8c-0.3,0.1-0.8,0.1-1,0
				l-1.3-0.8C371.8,182.3,371.8,182,372,181.8z"/>
			<g>
				<path class="st4" d="M366.9,187c0.4,0,0.9-0.1,1.2-0.3l4.7-2.7c0.3-0.2,0.3-0.5,0.2-0.7c-0.2-0.3-0.5-0.4-0.7-0.2l-4.7,2.7
					c-0.4,0.2-1,0.2-1.3,0l-7.8-4.5c-0.3-0.2-0.6-0.1-0.7,0.2c-0.2,0.3-0.1,0.6,0.2,0.7l7.8,4.5C366,186.9,366.5,187,366.9,187z"/>
			</g>
		</g>
		<g>
			<polygon class="st2" points="321.5,177 329.1,172.6 324.8,170.7 321.2,173.3 			"/>
			<path class="st2" d="M369.2,171.7c-0.4-0.2-0.8-0.5-1.2-0.8l-15.5-11.2c-2.8-2-5.7-2.5-7.9-1.4c-0.1,0-0.1,0.1-0.2,0.1l0,0
				L323,170.6l1.9,0.6l7.5,3.3l10.2,7.1l8,4.2l0.4,0.1c1.9-1.6,4-2.9,5.1-5.2c2-3.4,7.5-4.4,10.8-7.2c0.3,0.2,0.7,0.4,1,0.6
				C368.6,173.6,368.8,172.6,369.2,171.7z"/>
			<path class="st2" d="M377.3,165.1c-0.3,0-0.7,0.1-0.9,0.3l0,0l-21.8,12.6l0.8,3.3l0.8-0.4c-1.2,2-3.2,3.2-4.9,4.7l2.5,0.5
				l21.4-12.4c0.1,0,0.2-0.1,0.3-0.1c0.3-0.1,0.6-0.3,0.8-0.5l0,0l0,0c1.6-1.3,2.5-3.4,2.5-6.2v-0.3
				C378.8,165.8,378.1,165.1,377.3,165.1z"/>
			<g>
				<path class="st6" d="M347.4,155.7c1.4,0,2.8,0.5,4.3,1.4C350.2,156.2,348.7,155.8,347.4,155.7z"/>
				<path class="st2" d="M357.3,179.1v-0.3c0-0.8-0.7-1.5-1.5-1.5c-0.8,0-1.5,0.7-1.5,1.5v0.3c0,2-0.6,3.5-1.7,4
					c-1.3,0.6-3.2,0.2-5.1-1.3l-16.2-11.8c-2.5-1.8-5-2.5-7.2-1.9l13.3-7.7l-15.5,9l2,0.7l7.8,3.5l10.6,7.5l8.4,4.5l0.4,0.1
					c2-1.6,4.1-3.1,5.3-5.5C356.8,179.8,357,179.5,357.3,179.1C357.3,179.2,357.3,179.1,357.3,179.1z"/>
			</g>
			<g>
				<path class="st4" d="M350.8,186.9c-1.8,0-3.7-0.7-5.6-2.1L329.1,173c-1.9-1.4-3.9-1.9-5.1-1.3c-1.1,0.6-1.7,2-1.7,4
					c0,0.8-0.7,1.5-1.5,1.5s-1.5-0.7-1.5-1.5c0-3.2,1.2-5.6,3.4-6.7c2.3-1.2,5.3-0.6,8.2,1.5l16.2,11.8c1.9,1.4,3.9,1.9,5.1,1.3
					c1.1-0.6,1.7-2,1.7-4v-0.3c0-0.8,0.7-1.5,1.5-1.5c0.8,0,1.5,0.7,1.5,1.5v0.3c0,3.2-1.2,5.6-3.4,6.7
					C352.7,186.7,351.8,186.9,350.8,186.9z"/>
			</g>
		</g>
	</g>
	<g>
		<g>
			<path class="st2" d="M338.2,213.4c0,0-3-1.5-4.9,0.8c-1.9,2.3-4.5,7.7-4.6,11.3c-0.1,3.6,2.9,3.4,4.6,2.5
				c1.8-0.9,6.9-8.3,7.2-9.8c0.3-1.5-0.4-3.4-0.9-3.8C339.1,214,338.2,213.4,338.2,213.4z"/>
			<path class="st7" d="M338.8,212.6l0.1,3.2c0,0.7-0.3,1.3-0.9,1.6c-0.5,0.3-1.3,0.5-2.3,0.4c-2.3-0.4-2.5-1-2.7-4.2
				C332.9,210.5,338.8,212.6,338.8,212.6z"/>
			<g>
				<path class="st2" d="M327,207.3c0,0-3-1.5-4.9,0.8c-1.9,2.3-4.5,7.7-4.6,11.3c-0.1,3.6,2.9,3.4,4.6,2.5c1.8-0.9,6.9-8.3,7.2-9.8
					c0.3-1.5-0.4-3.4-0.9-3.8C328,207.9,327,207.3,327,207.3z"/>
				<path class="st7" d="M327.7,206.6l0.1,3.2c0,0.7-0.3,1.3-0.9,1.6c-0.5,0.3-1.3,0.5-2.3,0.4c-2.3-0.4-2.5-1-2.7-4.2
					C321.8,204.4,327.7,206.6,327.7,206.6z"/>
				<path class="st8" d="M354.8,148.7c-0.9-14.7-15.9,2.2-15.9,2.2l-10.2,10l-9.2,10.1c-1.8,2-2.6,4.7-2.3,7.3l3.7,28.4
					c0.2,1.4,1.4,2.4,2.8,2.4c0.4,0,0.9,0,1.4-0.1c3.3-0.5,3.1-3.7,3.1-3.7l-0.7-26.6l19.4-11.7
					C346.9,167.1,355.7,163.4,354.8,148.7z"/>
			</g>
			<path class="st8" d="M366,154.3c-0.9-14.7-15.9,2.2-15.9,2.2l-10.2,10l-9.2,10.1c-1.8,2-2.6,4.7-2.3,7.3l3.7,28.4
				c0.2,1.4,1.4,2.4,2.8,2.4c0.4,0,0.9,0,1.4-0.1c3.3-0.5,3.1-3.7,3.1-3.7l-0.7-26.6l19.4-11.7C358,172.7,366.9,168.9,366,154.3z"/>
			<path class="st9" d="M357.1,107.3c11.3,4.7,11.1,11.4,11.1,11.4s-2.2,24.6-1.5,41c0.3,6.9-36.5,7.4-31-10.9
				c6.5-21.6,4-39.1,7.1-41.7C345.9,104.4,354.2,106,357.1,107.3z"/>
			
				<ellipse transform="matrix(0.2494 -0.9684 0.9684 0.2494 158.3014 427.7437)" class="st7" cx="355.1" cy="111.7" rx="4.3" ry="5.9"/>
			<path class="st10" d="M356,116.7c-0.7,0-1.4-0.1-2.1-0.3c-1.6-0.4-3-1.3-4-2.4c-1-1.2-1.3-2.6-1-3.9c0.7-2.6,4-4,7.4-3.1
				c1.6,0.4,3,1.3,4,2.4c1,1.2,1.3,2.6,1,3.9c-0.3,1.3-1.3,2.3-2.7,2.9C357.8,116.6,356.9,116.7,356,116.7z M354.2,107.9
				c-2.1,0-3.9,1-4.3,2.6c-0.2,0.9,0,2,0.8,2.9c0.8,1,2,1.7,3.4,2.1c1.4,0.4,2.8,0.3,4-0.2c1.1-0.4,1.9-1.2,2.1-2.2v0
				c0.2-0.9,0-2-0.8-2.9c-0.8-1-2-1.7-3.4-2.1C355.4,107.9,354.8,107.9,354.2,107.9z"/>
			<path class="st7" d="M352.6,106.7c0,0,0.1,0.5-0.1,4.1c-0.1,1.1,3.9,2.2,4.9,1.2c1-1,0.6-2.1,0.9-5.9
				C358.5,102.2,352.6,106.7,352.6,106.7z"/>
			<path class="st11" d="M358.2,106c0,0-1,3.6-5.8,4.9l0.1-3.2L358.2,106z"/>
			<path class="st7" d="M361.3,97c1.2,4.7-1.6,9.4-6.3,10.6c-4.7,1.2-9.4-1.6-10.6-6.3c-1.2-4.7,1.6-9.4,6.3-10.6
				C355.3,89.5,360.1,92.3,361.3,97z"/>
			<path class="st11" d="M354.8,99.5c0,0-4.8,2.1-8.1,2.1c-3.3,0-2.6-2.8-2.6-2.8l9.9-1.4L354.8,99.5z"/>
			<path class="st12" d="M345.7,100c0,0,4.2-1.8,7.9-1c0.9,0.2,1.7,0.6,2.2,1.3c0.2,0.2,0.4,0.4,0.7,0.5c0.7,0.1,1.7-2.6,3-2.6
				c1.3-0.1,2.1,0.8,1.1,2.5c-1,1.7-0.7,3.5-0.2,3.8c0.5,0.3,5.5-3.6,1.1-12.5c-4.5-8.9-15.8-4.1-17.6-2.3c0,0-1.9,1.6-3.4,0.2
				C340.4,89.9,338.7,102.6,345.7,100z"/>
			<path class="st7" d="M361.9,136.6v6.6c0,0.8-0.3,1.5-0.9,2l-13.7,12.4l1.6,2.4l18-13.1c0.8-0.6,1.4-1.5,1.5-2.6l1.2-11.6
				L361.9,136.6z"/>
			<path class="st9" d="M367.3,115.4c0,0,4.1,6.2,5.7,22.6c0,0-7.1,2.3-11.1,1C357.9,137.7,367.3,115.4,367.3,115.4z"/>
			<path class="st9" d="M361.1,123.2c0,0-1.6,8.7-1.7,12.8c0,1.1,0.7,2.1,1.7,2.5l0,0V123.2z"/>
		</g>
		<g>
			<path class="st13" d="M357.6,166.4l-3-0.4l-19.5-11.2c-0.6-0.4-1.7-0.3-2.4,0.1l-13.8,8l-1.8-0.2v1.8l0,0c0,0.2,0.1,0.5,0.4,0.6
				l22.1,12.7c0.6,0.4,1.7,0.3,2.4-0.1l15-8.7c0.4-0.2,0.6-0.5,0.6-0.8l0,0V166.4z"/>
			<path class="st13" d="M342.9,159.3l-1.4-0.8h-15.2l-7.5,4.3l-1.8-0.2v1.8l0,0c0,0.2,0.1,0.5,0.4,0.6l22.1,12.7
				c0.3,0.2,0.8,0.3,1.3,0.2L342.9,159.3z"/>
			<path class="st13" d="M317.8,162.7l-0.8-0.1v1.8l0,0c0,0.2,0.1,0.5,0.4,0.6l0.4,0.2V162.7z"/>
			<path class="st13" d="M339.7,177.9c0.6,0.2,1.4,0.2,2.1-0.1v-3.1h-2.1V177.9z"/>
			<path class="st10" d="M339.5,175.9l-22.1-12.7c-0.6-0.4-0.5-1,0.2-1.4l15-8.7c0.7-0.4,1.8-0.5,2.4-0.1l22.1,12.7
				c0.6,0.4,0.5,1-0.2,1.4l-15,8.7C341.2,176.3,340.1,176.3,339.5,175.9z"/>
			<path class="st0" d="M339.1,174l-18.4-10.6c-0.5-0.3-0.5-0.8,0.1-1.2l8.1-4.5c0.6-0.3,1.5-0.4,2-0.1l18.4,10.6
				c0.5,0.3,0.5,0.8-0.1,1.2l-8.1,4.5C340.6,174.3,339.7,174.3,339.1,174z"/>
		</g>
		<path class="st7" d="M333.5,152.7l-0.2,1.5c-0.2,1.3-0.2,2.6,0.1,3.9l0.3,1.3c0.2,0.8,0.8,1.3,1.5,1.5l0,0
			c0.6,0.1,1.2-0.3,1.2-0.9l0.4-3.3c0,0,0.8,1.1,1.2,1.1c0.4,0-0.5-3.3-1.4-5.1C335.7,150.9,333.5,152.7,333.5,152.7z"/>
		<path class="st7" d="M341,128.5l-2.4,4.7c-0.6,1.1-0.9,2.3-1,3.6l-1,16l-3.1-0.1l-1.4-18c0-0.6,0-1.1,0.1-1.7l1.6-9.1L341,128.5z"
			/>
		<g>
			<path class="st13" d="M338.8,177.2l-1.9-2.4l-19.5-11.3c-0.6-0.4-1.1-1.3-1.1-2.2l0-15.9l-1.1-1.5l1.1-0.6l0,0
				c0.2-0.1,0.5-0.1,0.8,0l22.1,12.8c0.6,0.4,1.1,1.3,1.1,2.2l0,17.4c0,0.5-0.2,0.8-0.4,0.9l0,0L338.8,177.2z"/>
			<path class="st13" d="M325.3,168l-1.4-0.8l-7.6-13.2l0-8.7l-1.1-1.5l1.1-0.6l0,0c0.2-0.1,0.5-0.1,0.8,0l22.1,12.8
				c0.3,0.2,0.6,0.6,0.8,1L325.3,168z"/>
			<path class="st13" d="M315.7,144.6l-0.5-0.6l1.1-0.6l0,0c0.2-0.1,0.5-0.1,0.8,0l0.4,0.2L315.7,144.6z"/>
			<path class="st13" d="M339.3,156.3c0.5,0.4,0.9,1.2,0.9,1.9l-2.2,1.2l-1-1.8L339.3,156.3z"/>
			<path class="st4" d="M338,156.7L316,144c-0.6-0.4-1.1,0-1.1,0.9l0,17.4c0,0.8,0.5,1.8,1.1,2.2l22.1,12.8c0.6,0.4,1.1,0,1.1-0.9
				l0-17.4C339.2,158.1,338.7,157.1,338,156.7z"/>
		</g>
		<path class="st7" d="M348.9,160.1l-0.4,0.7c-0.4,0.8-1,1.6-1.8,2l-2.2,1.4c-0.7,0.4-1.5,0.5-2.2,0.1c0,0,0,0-0.1,0
			c-0.7-0.4-0.8-1.4-0.2-2l2.3-2.4c0,0-1.3,1-1.6,0.6c-0.3-0.3,1.2-1.7,2.4-1.8c1.2,0,2.3-1,2.3-1L348.9,160.1z"/>
		<path class="st9" d="M343.1,107c0,0-8.4,9.1-11.8,17.5c0,0,2.9,5.2,9.9,7.2C348.2,133.7,343.1,107,343.1,107z"/>
		<path class="st9" d="M339.6,131.2L341,118l-3.2,12.3C338.3,130.6,339,130.9,339.6,131.2z"/>
		<path class="st10" d="M349.4,105.2l-2.3-0.6c0,0,1.1,1.7,2.6,2.1c1.6,0.4,1.8-0.9,1.8-0.9L349.4,105.2z"/>
	</g>
</g>
<path class="st4" d="M290.9,99.8l-89.5-51.7c-2.9-1.7-5.6-1.7-7.6-0.5l0,0l-11.2,6.5l7.5,1.4c0,0.4,0,0.8,0,1.2v211.1
	c0,8.4,5.1,18.1,11.4,21.7l88.3,51c-0.8,2.5-2.5,7.8-2.5,7.8l11-6.4l0,0c2.5-1.3,4.2-4.6,4.2-9.3V121.6
	C302.3,113.2,297.2,103.5,290.9,99.8z"/>
<g>
	<polygon class="st0" points="375,281.1 361.6,273.3 348.1,281.1 361.6,288.8 	"/>
	<polygon class="st3" points="361.6,281.7 361.6,272.9 377.6,263.6 377.6,272.4 	"/>
	<polygon class="st3" points="361.6,272.8 345.4,263.8 345.5,272.5 361.7,281.5 	"/>
	<polygon class="st4" points="377.6,263.6 361.6,254.4 345.5,263.6 361.6,272.9 	"/>
</g>
<path class="st10" d="M321.9,162.6c0,1.4-1,1.9-2.2,1.2c-1.2-0.7-2.2-2.4-2.2-3.7c0-1.4,1-1.9,2.2-1.2
	C320.9,159.6,321.9,161.3,321.9,162.6z"/>
<path class="st1" d="M299.3,280.2c-0.3,0-0.7-0.2-0.9-0.5c-0.3-0.5-0.1-1.1,0.4-1.4l37.7-21.7c0.3-0.2,0.4-0.5,0.4-0.6
	c0-0.1,0-0.5-0.4-0.6l-20-11.5c-2.9-1.7-4.7-4.8-4.7-8.1V170c0-2.9,1.4-5.6,3.8-7.2l3-2c0.5-0.3,1.1-0.2,1.4,0.3
	c0.3,0.5,0.2,1.1-0.3,1.4l-3,2c-1.8,1.3-2.9,3.3-2.9,5.6v65.7c0,2.6,1.4,5.1,3.7,6.4l20,11.5c0.9,0.5,1.4,1.4,1.4,2.4
	c0,1-0.5,1.9-1.4,2.4l-37.7,21.7C299.6,280.2,299.4,280.2,299.3,280.2z"/>
<path class="st4" d="M190,267.9c0,8.4,5.1,18.1,11.4,21.7l88.3,51c-0.8,2.5-2.5,7.8-2.5,7.8l11-6.4l0,0c2.5-1.3,4.2-4.6,4.2-9.3
	V121.6c0-4.4-1.4-9.1-3.6-13.2L190,171.2V267.9z"/>
<path class="st1" d="M279.6,347.9l-89.5-51.7c-6.3-3.6-11.4-13.4-11.4-21.7V63.3c0-8.4,5.1-12.2,11.4-8.6l89.5,51.7
	c6.3,3.6,11.4,13.4,11.4,21.7v211.1C291,347.6,285.9,351.5,279.6,347.9z"/>
<path class="st10" d="M277.9,340.9l-86-49.7c-4.7-2.7-8.5-9.9-8.5-16.2V66.9c0-6.2,3.8-9.1,8.5-6.4l86,49.7
	c4.7,2.7,8.5,9.9,8.5,16.2v208.1C286.4,340.7,282.6,343.6,277.9,340.9z"/>
<path class="st14" d="M242.7,277l-42.2-24.4V149.9l19.9,11.5c13.8,8,22.3,22.7,22.3,38.7V277z"/>
<g>
	<path class="st0" d="M185.4,140L185.4,140c-4.3-2.5-10.2-2.2-16.7,1.6c-12.9,7.5-23.5,25.7-23.5,40.7V193v0l0,0l0,0l0.4,0.3
		l42.3,24.9l0.6-12.9l0.5-5l2.2-7.8l0.3-1.2l4.8-9.7l3.8-4.7l3.1-3.7l7.5-5.9l0.7-0.5l3.7-1.6l4.9-1.3h3.9l4.3,0.8L185.4,140z"/>
	<path class="st0" d="M190.8,239.8l1.4-0.8v-49.1c-0.7,1-1,2.2-1.4,3.5V239.8z"/>
	<polygon class="st0" points="233.5,264.4 190.8,239.8 191.2,193.3 192.9,188.6 197.8,180.1 203.7,173.1 209,168.9 214.7,165.4 
		225,164.2 230.5,167.3 233.5,172 234.5,179.2 234.2,257 	"/>
	<path class="st15" d="M185.4,140c-3.6-2.1-8.3-2.2-13.6,0l43.5,25.1l4.7-1.2h3.9l4.3,0.8L185.4,140L185.4,140z"/>
	<g>
		<path class="st16" d="M172.9,139.6c-1.4,0.5-2.7,1.1-4.2,2c-1,0.6-1.9,1.2-2.8,1.8l43.4,25.1l1.5-1.2l0.7-0.5l3.7-1.6l1.5-0.4
			L172.9,139.6z"/>
		<path class="st10" d="M203.7,172.9l5.9-4.7l-43.4-25.1c-2,1.4-3.9,3-5.6,4.8L203.7,172.9z"/>
		<path class="st15" d="M234.9,263.6l-1.4,0.8v-83.9c0-14.1-9.9-19.8-22.1-12.8c-12.2,7-22.1,24.2-22.1,38.3v11.3l-1.4,0.8v-11.3
			c0-14.9,10.5-33.2,23.5-40.7c12.9-7.5,23.5-1.4,23.5,13.6V263.6z"/>
	</g>
</g>
<polygon class="st17" points="158.2,174.2 155.8,184.1 157,199.9 153.9,198.2 150,189.5 153.4,178.6 "/>
<g>
	<path class="st18" d="M228.1,237.2c-0.3,0-0.5-0.1-0.8-0.2L196.2,219c-0.9-0.5-1.6-1.9-1.6-3.1v-24.5c0-0.7,0.3-1.3,0.7-1.6
		c0.4-0.2,0.9-0.2,1.4,0.1l31.1,17.9c0.9,0.5,1.6,1.9,1.6,3.1v24.5c0,0.7-0.3,1.3-0.7,1.6C228.5,237.1,228.3,237.2,228.1,237.2z
		 M195.9,190.7c0,0-0.1,0-0.1,0c-0.1,0.1-0.2,0.3-0.2,0.7v24.5c0,0.8,0.5,1.9,1.1,2.2l31.1,17.9c0.1,0,0.3,0.1,0.4,0.1
		c0.1-0.1,0.2-0.3,0.2-0.7V211c0-0.8-0.5-1.9-1.1-2.2l-31.1-17.9C196.2,190.8,196,190.7,195.9,190.7z"/>
	<g>
		<path class="st19" d="M205.9,220l-0.2-0.1c-0.8-0.5-1.5-1.7-1.5-2.8v-11.7c0-1.1,0.7-1.6,1.5-1.1l0.2,0.1c0.8,0.5,1.5,1.7,1.5,2.8
			v11.7C207.3,219.9,206.7,220.4,205.9,220z"/>
		<path class="st19" d="M212.1,223.6l-0.2-0.1c-0.8-0.5-1.5-1.7-1.5-2.8v-6.8c0-1.1,0.7-1.6,1.5-1.1l0.2,0.1
			c0.8,0.5,1.5,1.7,1.5,2.8v6.8C213.6,223.6,212.9,224.1,212.1,223.6z"/>
		<path class="st15" d="M218.4,227.2l-0.2-0.1c-0.8-0.5-1.5-1.7-1.5-2.8V208c0-1.1,0.7-1.6,1.5-1.1l0.2,0.1c0.8,0.5,1.5,1.7,1.5,2.8
			v16.2C219.9,227.2,219.2,227.7,218.4,227.2z"/>
	</g>
</g>
<g>
	<ellipse class="st0" cx="168.3" cy="337" rx="26.7" ry="15.4"/>
	<g>
		<path class="st2" d="M151.9,328.8c-1.9,0.8-3,2.9-2.9,5.1c0.1,1.1,0.2,2,0.4,2.5c0.6,1.2,2.5,3,5.6,1.7c3.1-1.2,10-7.7,10.2-11.9
			C165.8,318.3,156.8,326.7,151.9,328.8z"/>
		<path class="st2" d="M170.2,341.8c0,0-0.7,4.5-0.4,5.4c0.4,0.8,2.5,2.6,5.7,2.2s12.4-3.5,14.4-9.6c3.2-9.4-17.7,0.7-17.7,0.7
			L170.2,341.8z"/>
		<path class="st20" d="M179.1,269.3l0.7,70.8c-0.1,2.5-1.7,4.5-3.9,4.9c-0.3,0-0.6,0.1-0.9,0.1c-2.2,0.2-3.5-0.8-4.2-1.7
			c-0.6-0.8-0.9-1.8-0.9-2.9l-0.9-30.2l-4.5-27l-6.2,47.8c-0.1,1.3-0.7,2.5-1.7,3.1c-0.7,0.5-1.6,0.8-2.8,0.8c-1.8-0.1-3-1-3.8-1.9
			c-0.6-0.7-0.9-1.6-0.9-2.6l2.5-28.8l0.9-36.7L179.1,269.3z"/>
		<path class="st7" d="M170,205.9l-1.1,6.5c0,0,0,2.2,2.4,2.8c2.5,0.6,3.2-1,3.2-1l1.1-7.3L170,205.9z"/>
		<path class="st7" d="M183.5,202.4c-1.7,5.5-7.1,8.7-12.1,7.2c-4.9-1.6-7.5-7.3-5.7-12.9s7.1-8.7,12.1-7.2
			C182.7,191.1,185.2,196.9,183.5,202.4z"/>
		<path class="st21" d="M170.2,212.5c-0.2-0.1-10.4-6.7-14.2,0.2c-6.2,11.3-1.7,24.2-3.9,52.3c-0.4,4.7,6.3,7.6,9.5,9.4
			c2.8,1.6,6,2.6,9.2,2.6c3.2,0,9.4-2.8,9.1-7c-1-19.3,0.7-35.5,2.3-51.3C182.2,218.7,180.3,216.6,170.2,212.5z"/>
		<path class="st22" d="M164.5,283.3l-6.2,47.8c-0.1,1.3-0.7,2.5-1.7,3.1c-0.2,0.1-0.3,0.2-0.5,0.3c1.3-1,5.1-41.1,5.8-45.6
			C162.5,284.5,164.5,283.3,164.5,283.3z"/>
	</g>
	<polygon class="st7" points="203.5,218.3 212.1,201.3 209.4,199.6 200.5,212.6 	"/>
	<polygon class="st7" points="146.9,200.2 151,181.2 154.4,181.3 153.1,197 	"/>
	<path class="st21" d="M182.2,218.7c0,0,9.6,3.8,17.9-6.6c0.7-0.9,2.2-0.8,2.7,0.2c0.7,1.7,1.7,4.3,0.5,6.7
		c-5,10.7-22,10.3-26.1,16.3C173.1,241.3,182.2,218.7,182.2,218.7z"/>
	<path class="st21" d="M163.7,210.1c0,0-7.9,0.6-9.1-6.3c-0.6-3.5-0.8-5.6-0.8-6.9c0-0.8-0.7-1.4-1.6-1.3c-1.9,0.2-4.8,0.8-5.2,2.1
		c-0.6,1.9-1.7,11.2,6.1,25.5C158.3,232.6,163.7,210.1,163.7,210.1z"/>
	<path class="st7" d="M151,181.3l0.1-2.2c0-0.8,0.2-1.5,0.6-2.2l2.2-3.6l0.6-0.7c0.5-0.7,1.5-0.8,2.2-0.4l0.5,0.3
		c0.6,0.4,1,1.1,1,1.9l-1.1,3.1l1.4-0.3c0.3-0.1,0.5,0.1,0.6,0.4l0,0c0,0.2-0.1,0.5-0.3,0.6l-2.3,0.9l-2.1,3L151,181.3z"/>
	<path class="st7" d="M212.2,201.4l1-1.9c0.4-0.7,0.5-1.4,0.5-2.2l-0.1-4.2l-0.1-0.9c-0.1-0.8-0.9-1.4-1.7-1.4l-0.6,0
		c-0.8,0-1.4,0.5-1.8,1.2l-0.5,3.2l-1.1-1c-0.2-0.2-0.5-0.2-0.7,0.1l0,0c-0.2,0.2-0.2,0.5,0,0.6l1.6,2l0.4,4.1L212.2,201.4z"/>
	<path class="st23" d="M176,233.1c-0.8,3.8,4.2,32.5-1.4,43c2.8-1.1,5.6-3.4,5.4-6.2c-0.7-13.8-0.1-26,0.9-37.6
		c4.8-2.4,12.3-3.9,17.5-7.7C192.8,226.7,176.7,229.7,176,233.1z"/>
	<path class="st10" d="M166.6,210.7l1.4-1.5c0,0,2.3,2.4,4.2,2.8c0,0,2.3,0.6,3.4,0.7l0.9,2.5C176.5,215.2,169,214.7,166.6,210.7z"
		/>
	<path class="st12" d="M176.8,202.6c0.4,0,0.8-0.2,1-0.5c0.4-0.6,0.1-3.2,1.3-3.6c1.9-0.7,6.3,1.7,6.8-5.1c0.2-3.5-1.5-4.5-1.5-6.4
		c0,0,0.1,1-8.9,0.4c-9.1-0.6-12,7.4-12.2,11.3c-0.2,3.8,1.6,10.1,7.8,11c1,0.1,5.3-3.3,5.2-3.8c-0.1-0.5-1.7-0.4-1.5-1.8
		C175.1,203,175.8,202.6,176.8,202.6z"/>
</g>
<g>
	<g>
		<path class="st14" d="M223.2,120.8L195.9,105c-1.2-0.7-2.2-2.6-2.2-4.2V80.5c0-1.6,1-2.4,2.2-1.7l27.3,15.8
			c1.2,0.7,2.2,2.6,2.2,4.2v20.3C225.4,120.8,224.5,121.5,223.2,120.8z"/>
		<path class="st22" d="M220.5,88.6l-27.3-15.8c-0.5-0.3-1-0.3-1.4-0.1c0,0,0,0,0,0l-2.7,1.5c0,0,1.2,0.4,1.9,0.7v19.9
			c0,1.6,1,3.5,2.2,4.2l26.1,15.1v2.3l2.7-1.5l0,0c0.5-0.3,0.7-0.9,0.7-1.8V92.8C222.7,91.1,221.8,89.3,220.5,88.6z"/>
		<path class="st20" d="M217.8,116.3l-27.3-15.8c-1.2-0.7-2.2-2.6-2.2-4.2V76c0-1.6,1-2.4,2.2-1.7l27.3,15.8
			c1.2,0.7,2.2,2.6,2.2,4.2v20.3C220,116.3,219.1,117,217.8,116.3z"/>
		<path class="st22" d="M217.8,90.1l-27.3-15.8c-0.7-0.4-1.3-0.3-1.7,0.1c0.3,0,0.6,0,1,0.2l27.3,15.8c1.2,0.7,2.2,2.6,2.2,4.2V115
			c0,0.7-0.2,1.2-0.5,1.5c0.7-0.1,1.2-0.8,1.2-1.9V94.3C220,92.7,219.1,90.8,217.8,90.1z"/>
	</g>
	<g>
		<path class="st10" d="M199.7,93.5c0,1.2-0.8,1.7-1.8,1.1c-1-0.6-1.8-2-1.8-3.2c0-1.2,0.8-1.7,1.8-1.1
			C198.9,90.9,199.7,92.3,199.7,93.5z"/>
		<path class="st10" d="M205.3,96.8c0,1.2-0.8,1.7-1.8,1.1c-1-0.6-1.8-2-1.8-3.2c0-1.2,0.8-1.7,1.8-1.1
			C204.4,94.1,205.3,95.6,205.3,96.8z"/>
		<path class="st10" d="M210.9,100c0,1.2-0.8,1.7-1.8,1.1c-1-0.6-1.8-2-1.8-3.2c0-1.2,0.8-1.7,1.8-1.1
			C210,97.4,210.9,98.8,210.9,100z"/>
	</g>
</g>
<g>
	<g>
		<path class="st14" d="M277.7,228.2l-27.3-15.8c-1.2-0.7-2.2-2.6-2.2-4.2v-45.8c0-1.6,1-2.4,2.2-1.7l27.3,15.8
			c1.2,0.7,2.2,2.6,2.2,4.2v45.8C279.9,228.1,278.9,228.9,277.7,228.2z"/>
		<path class="st15" d="M275,170.5l-27.3-15.8c-0.5-0.3-1-0.3-1.4-0.1c0,0,0,0,0,0l-2.7,1.5c0,0,1.2,0.4,1.9,0.7v45.3
			c0,1.6,1,3.5,2.2,4.2l26.1,15.1v2.3l2.7-1.5l0,0c0.5-0.3,0.7-0.9,0.7-1.8v-45.8C277.2,173.1,276.2,171.2,275,170.5z"/>
		<path class="st0" d="M272.3,223.7l-27.3-15.8c-1.2-0.7-2.2-2.6-2.2-4.2v-45.8c0-1.6,1-2.4,2.2-1.7l27.3,15.8
			c1.2,0.7,2.2,2.6,2.2,4.2V222C274.5,223.6,273.5,224.4,272.3,223.7z"/>
		<path class="st10" d="M272.3,172l-27.3-15.8c-0.7-0.4-1.3-0.3-1.7,0.1c0.3,0,0.6,0,1,0.2l27.3,15.8c1.2,0.7,2.2,2.6,2.2,4.2v45.8
			c0,0.7-0.2,1.2-0.5,1.5c0.7-0.1,1.2-0.8,1.2-1.9v-45.8C274.5,174.6,273.5,172.7,272.3,172z"/>
	</g>
</g>
<g>
	<g>
		<path class="st14" d="M277.7,290l-27.3-15.8c-1.2-0.7-2.2-2.6-2.2-4.2v-45.8c0-1.6,1-2.4,2.2-1.7l27.3,15.8
			c1.2,0.7,2.2,2.6,2.2,4.2v45.8C279.9,290,278.9,290.7,277.7,290z"/>
		<path class="st24" d="M275,232.3l-27.3-15.8c-0.5-0.3-1-0.3-1.4-0.1c0,0,0,0,0,0l-2.7,1.5c0,0,1.2,0.4,1.9,0.7v45.3
			c0,1.6,1,3.5,2.2,4.2l26.1,15.1v2.3l2.7-1.5l0,0c0.5-0.3,0.7-0.9,0.7-1.8v-45.8C277.2,234.9,276.2,233,275,232.3z"/>
		<path class="st9" d="M272.3,285.5l-27.3-15.8c-1.2-0.7-2.2-2.6-2.2-4.2v-45.8c0-1.6,1-2.4,2.2-1.7l27.3,15.8
			c1.2,0.7,2.2,2.6,2.2,4.2v45.8C274.5,285.5,273.5,286.2,272.3,285.5z"/>
		<path class="st24" d="M272.3,233.9l-27.3-15.8c-0.7-0.4-1.3-0.3-1.7,0.1c0.3,0,0.6,0,1,0.2l27.3,15.8c1.2,0.7,2.2,2.6,2.2,4.2
			v45.8c0,0.7-0.2,1.2-0.5,1.5c0.7-0.1,1.2-0.8,1.2-1.9v-45.8C274.5,236.4,273.5,234.6,272.3,233.9z"/>
	</g>
</g>
<g>
	<g>
		<path class="st0" d="M94.1,309.9l24-13.5c1.1-0.6,2.9-0.5,4.1,0.2l15.3,9c1.2,0.7,1.3,1.8,0.3,2.4l-24,13.5
			c-1.1,0.6-2.9,0.5-4.1-0.2l-15.3-9C93.2,311.6,93.1,310.5,94.1,309.9z"/>
		<path class="st24" d="M113.5,314.7l27.5-15.5c0.5-0.3,0.8-0.7,0.8-1.2c0,0,0,0,0,0l0-3.1c0,0-1,0.8-1.5,1.3l-17.1-10.1
			c-1.4-0.8-3.5-0.9-4.7-0.2l-26.3,14.8l-2-1.2l0,3.1l0,0c0,0.5,0.4,1.1,1.1,1.5l17.5,10.4C110.2,315.3,112.3,315.4,113.5,314.7z"/>
		<path class="st9" d="M91,298.3l27.5-15.5c1.2-0.7,3.3-0.6,4.7,0.2l17.5,10.4c1.4,0.8,1.5,2.1,0.3,2.7l-27.5,15.5
			c-1.2,0.7-3.3,0.6-4.7-0.2L91.3,301C89.9,300.2,89.8,299,91,298.3z"/>
		<path class="st24" d="M113.5,311.6l27.5-15.5c0.7-0.4,0.9-1,0.8-1.5c-0.1,0.3-0.4,0.5-0.7,0.7l-27.5,15.5
			c-1.2,0.7-3.3,0.6-4.7-0.2l-17.5-10.4c-0.6-0.4-1-0.8-1.1-1.2c-0.3,0.7,0,1.4,1,2l17.5,10.4C110.2,312.2,112.3,312.3,113.5,311.6z
			"/>
	</g>
	<g>
		<path class="st10" d="M119.8,294.3c-1-0.6-1-1.6,0-2.1c1-0.6,2.7-0.6,3.7,0c1,0.6,1,1.6,0,2.1S120.9,294.8,119.8,294.3z"/>
		<path class="st10" d="M114.2,297.4c-1-0.6-1-1.6,0-2.1c1-0.6,2.7-0.6,3.7,0c1,0.6,1,1.6,0,2.1S115.2,298,114.2,297.4z"/>
		<path class="st10" d="M108.6,300.6c-1-0.6-1-1.6,0-2.1c1-0.6,2.7-0.6,3.7,0s1,1.6,0,2.1S109.6,301.2,108.6,300.6z"/>
	</g>
</g>
<g>
	<ellipse class="st0" cx="71.2" cy="277.2" rx="19.2" ry="11.1"/>
	<g>
		<path class="st25" d="M60.3,143c0,0,0.5,10.2,1.3,17c0.8,6.9,17.3-5.3,17.3-5.3V147L60.3,143z"/>
		<g>
			<path class="st3" d="M69.1,269.8c0.2,0.6,4.5,5.8,8.8,7.1c1.9,0.6,3.1,0.6,3.9,0.5c0.8-0.1,1.3-0.9,1.1-1.7
				c-0.7-2.1-2.8-6.4-8.2-9C67.4,263.1,69.1,269.8,69.1,269.8z"/>
			<path class="st3" d="M67.7,271.8c0,0,1.6,3.8,2.1,6.9c0.3,1.9-0.8,4.4-1.6,6.1c-0.5,1-1.9,1.3-2.8,0.5c-1.4-1.3-3.2-3.5-3.5-6.6
				c-0.5-5.3,0-6.3,0-6.3L67.7,271.8z"/>
			<path class="st26" d="M57.4,207.4c0,0-0.6,6.7,0,14.2s2.6,42.2,2.9,50.6c0,0-0.2,2.5,4.7,2c4.9-0.6,4.5-3.4,4.5-3.4
				s6.9-0.1,7.1-4.2c0.2-4.1,7.1-48.5,7.1-64.4L57.4,207.4z"/>
			<g>
				<path class="st7" d="M86.2,172.7l3.4,5.2l11.6,14c0,0-0.4,1.3-1.8,1.6c-1.1,0.3-10.9-9-15.1-13.1c-1.1-1.1-1.3-2.8-0.4-4.1
					L86.2,172.7z"/>
				<path class="st8" d="M79.6,151.2c0,0,5.4-0.1,7.2,7.6c1.9,7.7,3.3,17.4,1.7,18.2c-4.9,2.4-8-0.4-8-0.4L79.6,151.2z"/>
				<path class="st8" d="M81.2,151.6c-0.9-0.4-1.9-0.4-2.9-0.2c-4.6,1.3-21.7,6.3-24.6,8.8c-3.3,2.8,4.9,18.5,4.8,23.6
					c-0.1,5.1-0.7,11.2-1.2,16.8c-0.5,5.6-1.1,8.7,3.5,11c4.6,2.4,12.4,2.5,18.2-2c5.8-4.5,4.8-7.5,4.5-10.7
					c-0.2-3.2-2.2-17.2-2.1-21.2c0,0,2.1-1.5,3.6-4.1c1.5-2.6-1.2-7.4-2.3-10.5c-1.1-3.1,0.6-6.7,0.3-9.2
					C83.1,152.6,82.2,152,81.2,151.6z"/>
				<path class="st10" d="M75.8,156.9c0.4,2.8-2.2,5.5-5.8,5.9c-3.6,0.5-6.7-1.5-7.1-4.3s2.2-5.5,5.8-5.9
					C72.2,152.2,75.4,154.1,75.8,156.9z"/>
				<path class="st7" d="M73.9,157.1c0.3,2-1.6,3.9-4.1,4.2c-2.5,0.3-4.8-1-5.1-3.1c-0.3-2,1.6-3.9,4.1-4.2S73.7,155.1,73.9,157.1z"
					/>
				<path class="st7" d="M71.4,150.5c0,0-3.1-2.5-3.7-1.3c-0.6,1.3-1.1,6.8-1.1,6.8l6.2,1.7l-0.9-5.6
					C71.8,152.1,73,151.1,71.4,150.5z"/>
				
					<ellipse transform="matrix(5.241156e-02 -0.9986 0.9986 5.241156e-02 -75.6311 208.0833)" class="st7" cx="71.8" cy="143.9" rx="9.2" ry="9.2"/>
				<path class="st11" d="M67.2,150.9c-0.1,0.3-0.1,0.6-0.2,0.9c0.6,3.2,5.4,4.6,5.4,4.6l-0.7-4.2c0,0,0.6-0.5,0.4-1
					C70.3,150.5,67.9,150,67.2,150.9z"/>
				
					<ellipse transform="matrix(5.241156e-02 -0.9986 0.9986 5.241156e-02 -75.6311 208.0833)" class="st7" cx="71.8" cy="143.9" rx="9.2" ry="9.2"/>
				<polygon class="st7" points="49.2,182.8 50.2,207.4 53.8,207.7 56.2,185.6 				"/>
				<path class="st8" d="M61,180.7c-0.2-0.9-1.8-1.6-2-2.7c-1.2-5.7-1.5-14.2-1.5-14.2l-1,11.5c1.2,3.4,2.2,6.6,2.1,8.4
					c-0.1,3-0.3,6.4-0.6,9.7l0,0C58,193.5,62.2,186,61,180.7z"/>
				<path class="st8" d="M54.5,159.7c0,0-2.9,1.1-4.5,9.9c-1.6,8.8-2.8,17.7,0.1,18.8c2.9,1.1,5.3,2,6.2-0.4
					c0.9-2.4,1.4-13.7,1.5-17.8C57.8,166.1,58,160.5,54.5,159.7z"/>
				<path class="st7" d="M100.3,190.9c0,0,1.6,0.6,2.7,1.8c0.9,1,1.4,1.9,1.8,2.5c0.9,1.3,1.7,4.2,1.1,4.6c-0.5,0.4-3.7-4.8-4.2-3.6
					c-0.5,1.2,0,2.3-0.6,2.3c-0.6,0-2.9-5.2-4.7-6.8S100.3,190.9,100.3,190.9z"/>
			</g>
			<path class="st27" d="M69.5,270.8c0,0,0.9,0,2-0.2l0,0l1.3-54.1L69.5,270.8z"/>
		</g>
		<g>
			<path class="st5" d="M64.3,241.6l-1.9-2.5l-20.1-11.6c-0.6-0.4-1.2-1.4-1.2-2.2l0-16.5l-1.2-1.5l1.1-0.6l0,0
				c0.2-0.1,0.5-0.1,0.8,0l22.8,13.2c0.6,0.4,1.2,1.4,1.2,2.2l0,17.9c0,0.5-0.2,0.8-0.4,1h0L64.3,241.6z"/>
			<path class="st5" d="M50.4,232.1l-1.4-0.8l-7.8-13.6l0-8.9l-1.2-1.5l1.1-0.6l0,0c0.2-0.1,0.5-0.1,0.8,0l22.8,13.2
				c0.3,0.2,0.6,0.6,0.9,1L50.4,232.1z"/>
			<path class="st5" d="M40.5,207.9l-0.5-0.7l1.1-0.6l0,0c0.2-0.1,0.5-0.1,0.8,0l0.4,0.2L40.5,207.9z"/>
			<path class="st5" d="M64.9,220c0.5,0.4,0.9,1.2,1,1.9l-2.2,1.3l-1.1-1.9L64.9,220z"/>
			<path class="st2" d="M63.6,220.5l-22.8-13.2c-0.6-0.4-1.2,0-1.2,0.9l0,17.9c0,0.9,0.5,1.9,1.2,2.2l22.8,13.2
				c0.6,0.4,1.2,0,1.2-0.9l0-17.9C64.7,221.8,64.2,220.8,63.6,220.5z"/>
		</g>
		<polygon class="st10" points="58.9,233.3 57.8,232.7 57.8,223.4 58.9,224 		"/>
		<polygon class="st10" points="56.4,231.9 55.3,231.2 55.3,221.9 56.4,222.5 		"/>
		<polygon class="st10" points="53.8,230.4 52.7,229.8 52.7,220.4 53.8,221.1 		"/>
		<path class="st7" d="M50.2,207.2c0,0-1,5.7-0.8,7.6c0.1,1.8,1.1,4.9,1.9,4.8c0.7-0.1,0-7.4,1.3-6.7c1.3,0.7,1.4,2,2,1.5
			c0.6-0.4-1-6.7-0.6-9.4C54.5,202.3,50.2,207.2,50.2,207.2z"/>
		<path class="st11" d="M75.4,144.7c4.6,1.6,5.5,0.6,5.6,0.6c0-0.3,0.1-0.6,0.1-0.8c0.1-1-0.1-2-0.3-2.9l-12-1.6
			C68.7,139.9,70.6,143,75.4,144.7z"/>
		<path class="st25" d="M81.3,135.3c-1.1-0.9-5-5.5-12-4.4c-4.4,0.7-8.1,3.7-8.9,10.5c-0.6,4.6,1.1,9.1,4.2,12.5
			c0.2-0.1,0.3-0.1,0.5-0.3c1.8-1.2,1.9-1.8,1.9-1.8l0.4-3.5c0-0.5-0.4-0.9-0.9-1c-0.4,0-0.8-0.2-1.3-0.8c-1-1.3-0.5-3.4,1.5-3.5
			c1.1,0,1.5-0.6,1.6-1.1c0.1-0.5,0.6-0.7,1.1-0.6c2.3,0.8,7.9,2.6,11.6,1.6C85.7,141.6,82.4,136.2,81.3,135.3z"/>
		<path class="st10" d="M76.1,148.8l2.8-0.8c0,0-1.3,2.1-3.3,2.6c-2,0.5-2.3-1.1-2.3-1.1L76.1,148.8z"/>
		<polygon class="st28" points="55,214.3 52.6,212.9 53.5,214.3 54.7,214.8 		"/>
	</g>
</g>
<g>
	<g>
		<path class="st23" d="M107.9,218.2l27.4-15.6c0.5-0.3,0.8-0.7,0.8-1.2c0,0,0,0,0,0l0-3.1c0,0-1,0.8-1.5,1.3l-17.2-10.1
			c-1.4-0.8-3.5-0.9-4.7-0.2l-26.2,14.9l-2-1.2l0,3.1l0,0c0,0.5,0.4,1.1,1.1,1.5l17.5,10.3C104.5,218.8,106.7,218.9,107.9,218.2z"/>
		<path class="st21" d="M85.3,201.8l27.4-15.6c1.2-0.7,3.3-0.6,4.7,0.2l17.5,10.3c1.4,0.8,1.5,2,0.3,2.7l-27.4,15.6
			c-1.2,0.7-3.3,0.6-4.7-0.2l-17.5-10.3C84.2,203.7,84.1,202.5,85.3,201.8z"/>
		<path class="st21" d="M107.9,215.1l27.4-15.6c0.7-0.4,0.9-1,0.8-1.5c-0.1,0.3-0.4,0.5-0.7,0.7L108,214.2c-1.2,0.7-3.3,0.6-4.7-0.2
			l-17.5-10.3c-0.6-0.4-1-0.8-1.1-1.2c-0.3,0.7,0,1.4,1,2l17.5,10.3C104.6,215.6,106.7,215.7,107.9,215.1z"/>
	</g>
	<g>
		<path class="st10" d="M114.1,197.7c-1-0.6-1-1.5,0-2.1c1-0.6,2.7-0.6,3.7,0c1,0.6,1,1.5,0,2.1
			C116.8,198.3,115.2,198.3,114.1,197.7z"/>
		<path class="st10" d="M108.5,200.9c-1-0.6-1-1.5,0-2.1c1-0.6,2.7-0.6,3.7,0c1,0.6,1,1.5,0,2.1
			C111.2,201.5,109.5,201.5,108.5,200.9z"/>
		<path class="st10" d="M102.9,204.1c-1-0.6-1-1.5,0-2.1c1-0.6,2.7-0.6,3.7,0c1,0.6,1,1.5,0,2.1
			C105.6,204.7,103.9,204.6,102.9,204.1z"/>
	</g>
</g>
<g>
	<path class="st29" d="M262.6,240.1c0,2.5-1.8,3.6-4,2.3c-2.2-1.3-4-4.4-4-6.9c0-2.5,1.8-3.6,4-2.3
		C260.8,234.4,262.6,237.5,262.6,240.1z"/>
	<path class="st29" d="M264.2,247.3c0,0,0-0.1,0-0.1c-0.2-1.1-1.2-2-1.9-1.8c-1,0.4-2.3,0.2-3.8-0.6c-1.4-0.8-2.7-2.2-3.8-3.7
		c-0.7-1-1.7-1.2-1.9-0.4c0,0,0,0.1,0,0.1l-1.9,12l15.1,8.7L264.2,247.3z"/>
</g>
<g>
	<path class="st10" d="M262.6,240.1c0,2.5-1.8,3.6-4,2.3c-2.2-1.3-4-4.4-4-6.9c0-2.5,1.8-3.6,4-2.3
		C260.8,234.4,262.6,237.5,262.6,240.1z"/>
	<path class="st10" d="M264.2,247.3c0,0,0-0.1,0-0.1c-0.2-1.1-1.2-2-1.9-1.8c-1,0.4-2.3,0.2-3.8-0.6c-1.4-0.8-2.7-2.2-3.8-3.7
		c-0.7-1-1.7-1.2-1.9-0.4c0,0,0,0.1,0,0.1l-1.9,12l15.1,8.7L264.2,247.3z"/>
</g>
<g>
	<polygon class="st10" points="267.2,270.6 248.9,260 248.9,258.7 267.2,269.3 	"/>
	<polygon class="st10" points="261.7,273.2 248.9,265.8 248.9,264.5 261.7,271.9 	"/>
	<polygon class="st10" points="259.9,269.3 248.9,262.9 248.9,261.6 259.9,268 	"/>
	<polygon class="st10" points="267.2,273.5 261.7,270.3 261.7,269 267.2,272.2 	"/>
</g>
<g>
	<polygon class="st15" points="267.2,182.4 248.9,171.8 248.9,170.5 267.2,181 	"/>
	<polygon class="st15" points="261.7,184.9 248.9,177.6 248.9,176.2 261.7,183.6 	"/>
	<polygon class="st15" points="260,181.1 248.9,174.7 248.9,173.4 260,179.7 	"/>
	<polygon class="st15" points="267.2,185.3 261.7,182.1 261.7,180.7 267.2,183.9 	"/>
</g>
<g>
	<polygon class="st15" points="267.2,193.5 248.9,182.9 248.9,181.6 267.2,192.2 	"/>
	<polygon class="st15" points="261.7,196.1 248.9,188.7 248.9,187.4 261.7,194.8 	"/>
	<polygon class="st15" points="260,192.2 248.9,185.8 248.9,184.5 260,190.9 	"/>
	<polygon class="st15" points="267.2,196.4 261.7,193.2 261.7,191.9 267.2,195.1 	"/>
</g>
<g>
	<polygon class="st15" points="267.2,204.7 248.9,194.1 248.9,192.8 267.2,203.3 	"/>
	<polygon class="st15" points="261.7,207.2 248.9,199.8 248.9,198.5 261.7,205.9 	"/>
	<polygon class="st15" points="260,203.3 248.9,197 248.9,195.6 260,202 	"/>
	<polygon class="st15" points="267.2,207.5 261.7,204.3 261.7,203 267.2,206.2 	"/>
</g>
<g>
	<polygon class="st10" points="209.5,235.9 196.4,228.4 196.4,227.1 209.5,234.7 	"/>
	<polygon class="st10" points="217.6,240.6 212,237.4 212,236.1 217.6,239.4 	"/>
	<polygon class="st10" points="210,238.8 204.4,235.6 204.4,234.4 210,237.6 	"/>
	<polygon class="st10" points="222,245.8 212,240 212,238.8 222,244.6 	"/>
	<polygon class="st10" points="228.9,252.4 214.1,243.9 214.1,242.6 228.9,251.2 	"/>
	<polygon class="st10" points="225.6,245.2 220,242 220,240.8 225.6,244 	"/>
	<polygon class="st10" points="202,234.2 196.4,231 196.4,229.8 202,233 	"/>
	<polygon class="st10" points="211.7,242.5 196.4,233.7 196.4,232.4 211.7,241.3 	"/>
	<polygon class="st10" points="205.8,241.7 196.6,236.4 196.6,235.2 205.8,240.5 	"/>
</g>
<path class="st1" d="M341.4,306.1c-0.3,0-0.7-0.2-0.9-0.5c-0.3-0.5-0.1-1.1,0.4-1.4l38.7-22.9c0.3-0.2,0.3-0.5,0.3-0.6
	c0-0.1,0-0.4-0.3-0.6l-10.6-6.3c-0.5-0.3-0.6-0.9-0.3-1.4c0.3-0.5,0.9-0.6,1.4-0.3l10.6,6.3c0.8,0.5,1.3,1.4,1.3,2.3
	c0,1-0.5,1.8-1.3,2.3l-38.7,22.9C341.8,306,341.6,306.1,341.4,306.1z"/>
<g>
	<polygon class="st0" points="349,323.6 335.6,315.8 322.1,323.6 335.6,331.4 	"/>
	<polygon class="st3" points="335.6,324.2 335.6,315.4 351.6,306.1 351.6,314.9 	"/>
	<polygon class="st3" points="335.6,315.4 319.5,306.1 319.5,314.9 335.6,324.2 	"/>
	<polygon class="st4" points="351.6,306.1 335.6,296.9 319.5,306.1 335.6,315.4 	"/>
</g>
</svg>
