<?xml version="1.0" encoding="utf-8"?>
<!-- Generator: Adobe Illustrator 23.0.1, SVG Export Plug-In . SVG Version: 6.00 Build 0)  -->
<svg version="1.1" id="Calque_1" xmlns="http://www.w3.org/2000/svg" xmlns:xlink="http://www.w3.org/1999/xlink" x="0px" y="0px"
	 viewBox="0 0 297 296" style="enable-background:new 0 0 297 296;" xml:space="preserve">
<style type="text/css">
	.st0{fill:#BBCEE1;}
	.st1{fill:#CCCCCC;}
	.st2{fill:#666666;}
	.st3{fill:#E0E0E0;}
	.st4{fill:#0C2461;}
	.st5{fill:#EB2F06;}
	.st6{fill:#8C1C03;}
	.st7{fill:#F4C5A2;}
	.st8{fill:#FED4BD;}
	.st9{fill:#4A312C;}
	.st10{fill:#F0CEC9;}
	.st11{fill:#FFFFFF;}
	.st12{fill:#F5DDD8;}
	.st13{fill:#DFBAB8;}
	.st14{fill:#AAAAAA;}
	.st15{fill:#82CCDD;}
	.st16{fill:#222222;}
	.st17{fill:#3C6382;}
	.st18{fill:#FA983A;}
	.st19{fill:#888888;}
	.st20{fill:#9D4D36;}
	.st21{fill:#ED1C24;}
	.st22{fill:#E58E26;}
	.st23{fill:#EDF0F8;}
	.st24{fill:#ED5561;}
	.st25{fill:#60A3BC;}
	.st26{fill:#B71540;}
	.st27{fill:#D8395A;}
	.st28{fill:#F6B93B;}
	.st29{fill:#D6E0E6;}
	.st30{fill:#3C505F;}
	.st31{fill:#003A28;}
	.st32{fill:#005F28;}
	.st33{fill:#008528;}
	.st34{enable-background:new    ;}
	.st35{clip-path:url(#SVGID_2_);}
	.st36{clip-path:url(#SVGID_4_);}
</style>
<g>
	<g>
		<g>
			<polygon class="st0" points="79.4,169.8 100.8,157.4 100.8,160.4 79.4,172.7 			"/>
			<polygon class="st1" points="81.4,146.3 100.8,157.4 79.4,169.8 60,158.6 			"/>
			<polygon class="st2" points="60,158.6 79.4,169.8 79.4,172.7 60,161.5 			"/>
		</g>
		<g>
			<polygon class="st1" points="58.2,134.1 79.5,121.8 83.7,147.7 62.4,160 			"/>
			<polygon class="st3" points="77.2,120.4 79.5,121.8 58.2,134.1 55.8,132.7 			"/>
			<polygon class="st2" points="55.8,132.7 58.2,134.1 62.4,160 60,158.6 			"/>
		</g>
	</g>
	<path class="st4" d="M68.2,157.2l1.6-2.6l5.6,2.1c0,0-3.2,6.8-5.6,5.5C67.4,161,68.2,157.2,68.2,157.2z"/>
	<path class="st5" d="M71.5,120.4l10.6,0.3l4.1,1.7c0,0,0.6,4.5,1.4,10.9c0.9,6.4-0.5,23.5-0.5,23.5c-4,2-19.5,1.9-19.5,1.9
		c-1-8.2-2.1-34.2-2.1-34.2L71.5,120.4z"/>
	<path class="st5" d="M79.5,120.7l3.7,3.2c1.6,9.4,1.5,27.7,1.3,35.5c-1.4,0.2-2.9,0.4-4.5,0.5c-0.4-19.5-6.8-38-7.3-39.3
		L79.5,120.7z"/>
	<polygon class="st6" points="80.6,125 84,126.4 82.6,120.8 80.9,119.5 	"/>
	<polygon class="st7" points="73.2,118 81.4,119.3 80.6,125 72.7,120.4 	"/>
	<path class="st8" d="M71.2,112.7c0,4.5,3.2,8.1,7.2,8.1s6.4-3.6,6.4-8.1s-2.4-8.1-6.4-8.1C74.5,104.6,71.2,108.2,71.2,112.7z"/>
	<polygon class="st6" points="72.5,119.2 80.6,125 77,128.5 71.5,120.4 	"/>
	<path class="st9" d="M69.9,108.5c0,0,1.9-5.4,8.2-5.4c0,0,7.5,0,8.1,9.6c0,0.4-0.4,0.7-0.8,0.5c-0.9-0.5-2.3-1.2-3.7-1.6l0.4,0.7
		l0,0c0,0,0.1,0.4-0.7,0.3l-3.9-0.9c0,0-0.3,2-2.9,3.3c0,0-0.3,3.4-1.5,3.9C73.1,118.8,68.3,115.2,69.9,108.5z"/>
	<g>
		<path class="st1" d="M241.2,197.8l-49.3-28.6c-2.1-1.2-4.7-1.2-6.8,0l-77.6,44.9c-2,1.1-2,4,0,5.1l48.2,28c2.5,1.4,5.5,1.4,8,0
			l77.4-44.8C243,201.3,243,198.8,241.2,197.8z"/>
		<path class="st2" d="M241.2,202.4l-77.4,44.8c-2.5,1.4-5.5,1.4-8,0l-48.2-28c-1-0.6-1.5-1.6-1.5-2.6v3.7l0,0l0,0l0,0
			c0,1,0.5,1.9,1.5,2.5l48.2,28c2.5,1.4,5.5,1.4,8,0l77.4-44.8c0.9-0.5,1.3-1.4,1.3-2.3l0,0V200C242.6,201,242.1,201.9,241.2,202.4z
			"/>
		<path class="st2" d="M241.2,202.4l-77.4,44.8c-1.1,0.7-2.4,1-3.7,1.1v3.7c1.3-0.1,2.5-0.4,3.7-1.1l77.4-44.8
			c0.9-0.5,1.3-1.4,1.3-2.3l0,0v-3.7C242.6,201,242.1,201.9,241.2,202.4z"/>
	</g>
	<g>
		<polygon class="st3" points="182.5,184.3 204.7,196.9 218.8,188.7 196.6,176.2 		"/>
		<g>
			<polygon class="st10" points="200.3,196.6 200.3,197.1 178.2,184.4 178.2,184 			"/>
			<polygon class="st11" points="178.2,184 200.3,196.6 214.5,188.4 192.3,175.9 			"/>
			<polygon class="st12" points="200.3,196.6 200.3,197.1 214.5,188.9 214.5,188.4 			"/>
		</g>
		<polygon class="st13" points="192.5,177.2 183.9,182.1 184.3,182.3 192.8,177.4 		"/>
		<polygon class="st13" points="193.3,177.7 184.8,182.6 185.2,182.8 193.7,177.9 		"/>
		<polygon class="st13" points="195.4,178.9 183.7,185.7 184,185.9 195.8,179.1 		"/>
		<polygon class="st13" points="196.2,179.3 184.5,186.1 184.8,186.3 196.6,179.5 		"/>
		<polygon class="st13" points="197,179.8 185.3,186.6 185.7,186.8 197.4,180 		"/>
		<polygon class="st13" points="197.8,180.3 186.1,187 186.5,187.3 198.2,180.5 		"/>
		<polygon class="st13" points="198.7,180.7 186.9,187.5 187.3,187.7 199,180.9 		"/>
		<polygon class="st13" points="199.5,181.2 187.7,188 188.1,188.2 199.8,181.4 		"/>
		<polygon class="st13" points="200.3,181.6 188.5,188.4 188.9,188.6 200.7,181.9 		"/>
		<polygon class="st13" points="201.1,182.1 189.3,188.9 189.7,189.1 201.5,182.3 		"/>
		<polygon class="st13" points="201.9,182.6 190.2,189.3 190.5,189.6 202.3,182.8 		"/>
		<polygon class="st13" points="202.7,183 191,189.8 191.3,190 203.1,183.2 		"/>
		<polygon class="st13" points="203.5,183.5 191.8,190.3 192.2,190.5 203.9,183.7 		"/>
		<polygon class="st13" points="204.3,184 192.6,190.7 193,190.9 204.7,184.2 		"/>
		<polygon class="st13" points="205.2,184.4 193.4,191.2 193.8,191.4 205.5,184.6 		"/>
		<polygon class="st13" points="206,184.9 194.2,191.7 194.6,191.9 206.3,185.1 		"/>
		<polygon class="st13" points="206.8,185.3 195,192.1 195.4,192.3 207.2,185.5 		"/>
	</g>
	<g>
		<g>
			<path class="st11" d="M207.9,207l-21.1-12.2c-0.6-0.3-1.3-0.3-1.9,0l-30.5,17.7c-0.6,0.3-0.6,1.1,0,1.4l20.8,12
				c0.7,0.4,1.5,0.4,2.2,0l30.6-17.6C208.4,208,208.4,207.3,207.9,207z"/>
			<path class="st14" d="M207.9,208.3l-30.5,17.6c-0.7,0.4-1.5,0.4-2.2,0l-20.8-12c-0.3-0.2-0.4-0.4-0.4-0.7v1.5l0,0l0,0l0,0
				c0,0.3,0.1,0.5,0.4,0.7l20.8,12c0.7,0.4,1.5,0.4,2.2,0l30.6-17.6c0.2-0.1,0.4-0.4,0.4-0.6l0,0v-1.5
				C208.3,207.9,208.2,208.2,207.9,208.3z"/>
		</g>
		<g>
			<path class="st14" d="M152.9,184.5l31.5-18.1c0.2-0.1,0.4-0.1,0.6,0l0,0l0.8,0.4l-0.6,0.9L185,168v25c0,0.4-0.2,0.7-0.5,0.9
				l-29.9,17.2v0.3l-1,1.3l-0.9-0.5l0,0l0,0l0,0c-0.1-0.1-0.2-0.2-0.2-0.4v-26.4C152.4,185,152.6,184.6,152.9,184.5z"/>
			<path class="st3" d="M154,185l31.4-18.1c0.3-0.2,0.7,0,0.7,0.4v26.4c0,0.4-0.2,0.7-0.5,0.9l-31.4,18.1c-0.3,0.2-0.7,0-0.7-0.4
				v-26.4C153.4,185.5,153.7,185.2,154,185z"/>
		</g>
		<polygon class="st15" points="154.5,186.6 185.3,168.7 185.3,192.2 154.5,210.1 		"/>
		<g>
			<polygon class="st3" points="187.5,197.8 186,196.9 184.2,197.9 185.7,198.8 			"/>
			<polygon class="st3" points="185.3,199.1 183.8,198.2 182,199.2 183.5,200.1 			"/>
			<polygon class="st3" points="183.1,200.3 181.6,199.4 179.8,200.5 181.3,201.4 			"/>
			<polygon class="st3" points="180.9,201.6 179.4,200.7 177.6,201.7 179.1,202.6 			"/>
			<polygon class="st3" points="178.7,202.9 177.2,202 175.4,203 176.9,203.9 			"/>
			<polygon class="st3" points="176.5,204.1 174.9,203.2 173.2,204.3 174.7,205.2 			"/>
			<polygon class="st3" points="174.3,205.4 172.7,204.5 171,205.5 172.5,206.4 			"/>
			<polygon class="st3" points="172.1,206.7 170.5,205.8 168.8,206.8 170.3,207.7 			"/>
			<polygon class="st3" points="169.9,207.9 168.3,207 166.6,208.1 168.1,209 			"/>
			<polygon class="st3" points="167.7,209.2 166.1,208.3 164.4,209.3 165.9,210.2 			"/>
			<polygon class="st3" points="165.5,210.5 163.9,209.6 162.2,210.6 163.7,211.5 			"/>
			<polygon class="st3" points="163.3,211.7 161.7,210.8 160,211.9 161.5,212.8 			"/>
			<polygon class="st3" points="159.5,212.1 157.8,213.1 159.3,214 161.1,213 			"/>
			<polygon class="st3" points="187.7,200 189.5,199 188,198.1 186.2,199.1 			"/>
			<polygon class="st3" points="184,200.4 185.5,201.3 187.3,200.2 185.8,199.3 			"/>
			<polygon class="st3" points="181.8,201.6 183.3,202.5 185.1,201.5 183.6,200.6 			"/>
			<polygon class="st3" points="179.6,202.9 181.1,203.8 182.9,202.8 181.4,201.9 			"/>
			<polygon class="st3" points="177.4,204.2 178.9,205.1 180.7,204 179.2,203.1 			"/>
			<polygon class="st3" points="175.2,205.4 176.7,206.3 178.5,205.3 177,204.4 			"/>
			<polygon class="st3" points="173,206.7 174.5,207.6 176.3,206.6 174.8,205.7 			"/>
			<polygon class="st3" points="170.8,208 172.3,208.9 174.1,207.8 172.6,206.9 			"/>
			<polygon class="st3" points="168.6,209.2 170.1,210.1 171.9,209.1 170.4,208.2 			"/>
			<polygon class="st3" points="166.4,210.5 167.9,211.4 169.7,210.4 168.2,209.5 			"/>
			<polygon class="st3" points="164.2,211.8 165.7,212.7 167.5,211.6 166,210.7 			"/>
			<polygon class="st3" points="162,213 163.5,213.9 165.3,212.9 163.8,212 			"/>
			<polygon class="st3" points="161.6,213.3 159.8,214.3 161.3,215.2 163.1,214.2 			"/>
			<polygon class="st3" points="189.8,201.1 191.5,200.1 190,199.2 188.2,200.2 			"/>
			<polygon class="st3" points="186,201.5 187.6,202.4 189.3,201.4 187.8,200.5 			"/>
			<polygon class="st3" points="187.1,202.7 185.6,201.8 183.8,202.8 185.4,203.7 			"/>
			<polygon class="st3" points="181.6,204.1 183.2,204.9 184.9,203.9 183.4,203 			"/>
			<polygon class="st3" points="179.4,205.3 181,206.2 182.7,205.2 181.2,204.3 			"/>
			<polygon class="st3" points="177.2,206.6 178.8,207.5 180.5,206.5 179,205.6 			"/>
			<polygon class="st3" points="175,207.9 176.6,208.8 178.3,207.7 176.8,206.8 			"/>
			<polygon class="st3" points="172.8,209.1 174.3,210 176.1,209 174.6,208.1 			"/>
			<polygon class="st3" points="170.6,210.4 172.1,211.3 173.9,210.3 172.4,209.4 			"/>
			<polygon class="st3" points="168.4,211.7 169.9,212.6 171.7,211.5 170.2,210.6 			"/>
			<polygon class="st3" points="166.2,212.9 167.7,213.8 169.5,212.8 168,211.9 			"/>
			<polygon class="st3" points="167.3,214.1 165.8,213.2 164,214.2 165.5,215.1 			"/>
			<polygon class="st3" points="163.6,214.4 161.8,215.5 163.3,216.4 165.1,215.3 			"/>
			<polygon class="st3" points="191.8,202.3 193.5,201.3 192,200.4 190.2,201.4 			"/>
			<polygon class="st3" points="191.3,202.6 189.8,201.7 188,202.7 189.6,203.6 			"/>
			<polygon class="st3" points="189.1,203.8 187.6,202.9 185.8,203.9 187.4,204.8 			"/>
			<polygon class="st3" points="186.9,205.1 185.4,204.2 183.6,205.2 185.2,206.1 			"/>
			<polygon class="st3" points="184.7,206.4 183.2,205.5 181.4,206.5 183,207.4 			"/>
			<polygon class="st3" points="182.5,207.6 181,206.7 179.2,207.7 180.8,208.6 			"/>
			<polygon class="st3" points="180.3,208.9 178.8,208 177,209 178.6,209.9 			"/>
			<polygon class="st3" points="178.1,210.2 176.6,209.3 174.8,210.3 176.4,211.2 			"/>
			<polygon class="st3" points="175.9,211.4 174.4,210.5 172.6,211.6 174.2,212.4 			"/>
			<polygon class="st3" points="173.7,212.7 172.2,211.8 170.4,212.8 172,213.7 			"/>
			<polygon class="st3" points="171.5,214 170,213.1 168.2,214.1 169.8,215 			"/>
			<polygon class="st3" points="169.3,215.2 167.8,214.3 166,215.4 167.6,216.2 			"/>
			<polygon class="st3" points="165.6,215.6 163.8,216.6 165.4,217.5 167.1,216.5 			"/>
			<polygon class="st3" points="193.8,203.5 195.5,202.5 194,201.6 192.2,202.6 			"/>
			<polygon class="st3" points="193.3,203.7 191.8,202.8 190,203.8 191.6,204.7 			"/>
			<polygon class="st3" points="191.1,205 189.6,204.1 187.8,205.1 189.4,206 			"/>
			<polygon class="st3" points="188.9,206.3 187.4,205.4 185.6,206.4 187.2,207.3 			"/>
			<polygon class="st3" points="186.7,207.5 185.2,206.6 183.4,207.6 185,208.5 			"/>
			<polygon class="st3" points="184.5,208.8 183,207.9 181.2,208.9 182.8,209.8 			"/>
			<polygon class="st3" points="182.3,210.1 180.8,209.2 179,210.2 180.6,211.1 			"/>
			<polygon class="st3" points="180.1,211.3 178.6,210.4 176.8,211.4 178.4,212.3 			"/>
			<polygon class="st3" points="177.9,212.6 176.4,211.7 174.6,212.7 176.2,213.6 			"/>
			<polygon class="st3" points="175.7,213.9 174.2,213 172.4,214 174,214.9 			"/>
			<polygon class="st3" points="173.5,215.1 172,214.2 170.2,215.2 171.8,216.1 			"/>
			<polygon class="st3" points="171.3,216.4 169.8,215.5 168,216.5 169.6,217.4 			"/>
			<polygon class="st3" points="167.6,216.8 165.8,217.8 167.4,218.7 169.1,217.7 			"/>
			<polygon class="st3" points="196,202.7 194.2,203.7 195.8,204.6 197.6,203.6 			"/>
			<polygon class="st3" points="192,205 193.6,205.9 195.4,204.9 193.8,204 			"/>
			<polygon class="st3" points="189.8,206.3 191.4,207.2 193.2,206.2 191.6,205.3 			"/>
			<polygon class="st3" points="187.6,207.5 189.2,208.4 191,207.4 189.4,206.5 			"/>
			<polygon class="st3" points="185.4,208.8 187,209.7 188.7,208.7 187.2,207.8 			"/>
			<polygon class="st3" points="183.2,210.1 184.8,211 186.5,210 185,209.1 			"/>
			<polygon class="st3" points="182.8,210.3 180.6,211.6 180.6,211.6 180.2,211.8 178.4,212.9 178.4,212.9 177.5,213.4 176.2,214.1 
				176.2,214.1 174.8,214.9 172.2,216.4 173.8,217.3 176.5,215.8 177.7,215 177.7,215 179.1,214.3 179.9,213.8 179.9,213.8 
				181.7,212.8 182.1,212.5 182.1,212.5 184.3,211.2 			"/>
			<polygon class="st3" points="170,217.7 171.6,218.6 173.3,217.6 171.8,216.7 			"/>
			<polygon class="st3" points="167.8,218.9 169.4,219.8 171.1,218.8 169.6,217.9 			"/>
		</g>
		<path class="st3" d="M195.3,213.3l-5.5-3.2c-0.1-0.1-0.3-0.1-0.5,0l-7.7,4.4c-0.1,0.1-0.1,0.3,0,0.4l5.5,3.2
			c0.2,0.1,0.4,0.1,0.6,0l7.7-4.4C195.4,213.5,195.4,213.3,195.3,213.3z"/>
	</g>
	<path class="st16" d="M197.6,266.1c3.1,0,2.1-2.3,2.1-2.3c4.6-1.4,6.9-0.6,6.9-0.6c1.2,4.1,0.7,6.5,0.7,7.5c0,0.5-0.3,0.8-0.8,0.9
		c-2.5,0.9-4.7,1.5-9.4,1.1c-3.4-0.3-6.6-0.8-5.8-4C191.9,266.7,194.5,266.1,197.6,266.1z"/>
	<path class="st17" d="M199,236.9c0.9-1.2,2.5-2.2,5.1-1.5l27.8,5.4l-1,7.1c0,0-4.3,5.6-11.7,3.5s-12.3-5.6-12.3-5.6l0.9,19.7
		c0,0-4.4,1.4-8.2-1c-0.7-0.4-1.3-19.4-1.5-24.3C198,238.9,198.1,238,199,236.9z"/>
	<path class="st16" d="M184.3,271.8c3.2,0,2.2-2.4,2.2-2.4c4.8-1.5,7.1-0.6,7.1-0.6c1.2,4.2,0.7,6.8,0.8,7.8c0,0.5-0.4,0.8-0.8,1
		c-2.6,1-4.9,1.6-9.7,1.1c-3.5-0.3-7.3-0.6-6.4-4C177.9,272.6,181,271.8,184.3,271.8z"/>
	<g>
		<polygon class="st1" points="215.9,264 239.7,250.2 239.7,253.6 215.9,267.3 		"/>
		<polygon class="st1" points="218,237.8 239.7,250.2 215.9,264 194.2,251.5 		"/>
		<polygon class="st2" points="194.2,251.5 215.9,264 215.9,267.3 194.2,254.8 		"/>
	</g>
	<path class="st17" d="M185.7,241.5c0.9-1.2,2.6-2.3,5.3-1.6l28.8,5.6l-1.1,7.4c0,0-4.4,5.8-12.2,3.6c-7.7-2.2-12.8-5.8-12.8-5.8
		l1,20.4c0,0-4.5,1.4-8.6-1c-0.7-0.4-1.3-20.1-1.5-25.2C184.6,243.5,184.8,242.6,185.7,241.5z"/>
	<path class="st8" d="M208.5,197.7c0.5,4.8,4.1,8.5,8,8.1s6.7-4.6,6.3-9.5c-0.5-4.8-4.1-8.5-8-8.1
		C210.8,188.6,208,192.9,208.5,197.7z"/>
	<path class="st7" d="M202.6,209c0,0-1.7,0.4-2.3,0.5s-2.8,0.5-3.8,0.2c-0.9-0.3,0.8-0.9,1.2-1.2s0.4-1.1-0.5-1.4
		c-0.9-0.3-3-0.1-4.1-0.3s1.1-3.5,2.9-3.8c1.8-0.3,3.4-0.1,4.9,0.7s2.4,2,3.1,2.3L202.6,209z"/>
	<path class="st18" d="M202.4,204.4l11.7,2.9l0.6,7.4l-13.8-4.7C200.6,207.4,202.4,204.4,202.4,204.4z"/>
	<path class="st18" d="M231.3,207.6c0,0,3.2,4.1,0,9.7c0,0-2.3,3.1-8.5,0.1L231.3,207.6z"/>
	<path class="st18" d="M221.7,202.8c0,0-5-0.3-9,2.4c0,0-0.3,0.8-1.1,1.4c-0.8,0.5-4.7,2.1-4.7,2.1s1.7,23-0.3,34.2
		c0,0,8.5,6.6,21.8,0c0,0,1.9-28.2,2.8-35.3C231.3,207.6,229,204.8,221.7,202.8z"/>
	<g>
		<polygon class="st1" points="223.9,240.8 247.7,227 239.7,250.2 215.9,264 		"/>
		<polygon class="st3" points="245.1,225.5 247.7,227 223.9,240.8 221.2,239.2 		"/>
		<polygon class="st2" points="221.2,239.2 223.9,240.8 215.9,264 213.2,262.4 		"/>
	</g>
	<path class="st7" d="M186.9,219.2c0,0-1.3-1.3-1.8-1.7s-2.2-2-3.2-2.2s0.7,1.5,0.9,2s-1-0.4-1.9-0.8c-1-0.4-2-0.3-3.1,0.1
		c-2.3,0.8-2.1,5.3-0.3,4.8c3-0.9,4.4,1.5,6.2,2c1.3,0.4,1.8,0.3,2.6,0.5L186.9,219.2z"/>
	<path class="st18" d="M206.9,208.7l-9.9,13.1l-10.2-3c0,0-2.2,2.8-1.5,5.7l13.7,5.3l11.1-12.2C210.1,217.5,213.8,209.8,206.9,208.7
		z"/>
	<path class="st9" d="M212.6,184.2c0,0-0.8,1.8,2.9,2.3c3.6,0.5,8.1,2.3,9.3,6.1c0.8,2.4-0.1,5.1-1.3,7.2c-0.4,0.7-0.9,1.5-1.4,2.1
		c0,0-2.4,0.7-5.3-0.9c0,0-1.8-1.2-2.9-3.5c0,0-2.2,0.9-2.8-0.9c-0.5-1.3-2.1-1.7-2.9-2.4C208,194.3,203.1,186.3,212.6,184.2z"/>
	<g>
		<path class="st2" d="M159.5,225.2h-1.7v2h1.7c0.6,0,1.1,0.6,1.1,1.2v3.2c0,0.7-0.5,1.2-1.1,1.2h-2.4v2h2.4c1.6,0,2.9-1.5,2.9-3.2
			v-3.2C162.4,226.7,161.1,225.2,159.5,225.2z"/>
		<path class="st2" d="M158.9,224.1v11.2c0,1.7-2.3,3.2-5.2,3.2s-5.2-1.4-5.2-3.2v-11.2H158.9z"/>
		<path class="st11" d="M148.4,224.1c0,1.7,2.3,3.2,5.2,3.2s5.2-1.4,5.2-3.2c0-1.7-2.3-3.2-5.2-3.2
			C150.8,221,148.4,222.4,148.4,224.1z"/>
		<path class="st19" d="M149.5,224.1c0,1.4,1.9,2.5,4.2,2.5s4.2-1.1,4.2-2.5s-1.9-2.5-4.2-2.5S149.5,222.7,149.5,224.1z"/>
		<ellipse class="st20" cx="153.7" cy="224.9" rx="3.9" ry="1.7"/>
		<path class="st2" d="M155.6,227.1v11.2c1-0.3,1.9-0.7,2.5-1.3v-11.2C157.5,226.4,156.6,226.8,155.6,227.1z"/>
	</g>
	<g>
		<path class="st1" d="M176.5,160.3l-49.3-28.6c-2.1-1.2-4.7-1.2-6.8,0l-77.6,44.9c-2,1.1-2,4,0,5.1l48.2,28c2.5,1.4,5.5,1.4,8,0
			l77.4-44.8C178.3,163.9,178.3,161.3,176.5,160.3z"/>
		<path class="st2" d="M176.5,164.9l-77.4,44.8c-2.5,1.4-5.5,1.4-8,0l-48.2-28c-1-0.6-1.5-1.6-1.5-2.6v3.7l0,0l0,0l0,0
			c0,1,0.5,1.9,1.5,2.5l48.2,28c2.5,1.4,5.5,1.4,8,0l77.4-44.8c0.9-0.5,1.3-1.4,1.3-2.3l0,0v-3.7
			C177.8,163.5,177.4,164.4,176.5,164.9z"/>
		<path class="st2" d="M176.5,164.9l-77.4,44.8c-1.1,0.7-2.4,1-3.7,1.1v3.7c1.3-0.1,2.5-0.4,3.7-1.1l77.4-44.8
			c0.9-0.5,1.3-1.4,1.3-2.3l0,0v-3.7C177.8,163.5,177.4,164.4,176.5,164.9z"/>
		<g>
			<g>
				<path class="st11" d="M129.3,161.1l-21.1-12.2c-0.6-0.3-1.3-0.3-1.9,0l-30.6,17.7c-0.6,0.3-0.6,1.1,0,1.4l20.8,12
					c0.7,0.4,1.5,0.4,2.2,0l30.6-17.6C129.8,162.1,129.8,161.4,129.3,161.1z"/>
				<path class="st14" d="M129.3,162.4L98.7,180c-0.7,0.4-1.5,0.4-2.2,0l-20.8-12c-0.3-0.2-0.4-0.4-0.4-0.7v1.5l0,0l0,0l0,0
					c0,0.3,0.1,0.5,0.4,0.7l20.8,12c0.7,0.4,1.5,0.4,2.2,0l30.6-17.6c0.2-0.1,0.4-0.4,0.4-0.6l0,0v-1.6
					C129.6,162,129.5,162.2,129.3,162.4z"/>
			</g>
			<g>
				<polygon class="st3" points="115.5,156.4 113.9,155.5 112.2,156.5 113.7,157.4 				"/>
				<polygon class="st3" points="113.3,157.6 111.7,156.7 110,157.8 111.5,158.7 				"/>
				<polygon class="st3" points="111.1,158.9 109.5,158 107.8,159 109.3,159.9 				"/>
				<polygon class="st3" points="108.9,160.2 107.3,159.3 105.6,160.3 107.1,161.2 				"/>
				<polygon class="st3" points="106.7,161.4 105.1,160.5 103.4,161.6 104.9,162.5 				"/>
				<polygon class="st3" points="104.5,162.7 102.9,161.8 101.2,162.8 102.7,163.7 				"/>
				<polygon class="st3" points="102.3,164 100.7,163.1 99,164.1 100.5,165 				"/>
				<polygon class="st3" points="100.1,165.2 98.5,164.3 96.8,165.4 98.3,166.3 				"/>
				<polygon class="st3" points="97.9,166.5 96.3,165.6 94.6,166.6 96.1,167.5 				"/>
				<polygon class="st3" points="95.7,167.8 94.1,166.9 92.4,167.9 93.9,168.8 				"/>
				<polygon class="st3" points="93.5,169 91.9,168.1 90.2,169.2 91.7,170.1 				"/>
				<polygon class="st3" points="91.3,170.3 89.7,169.4 88,170.4 89.5,171.3 				"/>
				<polygon class="st3" points="87.5,170.7 85.8,171.7 87.3,172.6 89.1,171.6 				"/>
				<polygon class="st3" points="115.7,158.6 117.5,157.5 115.9,156.6 114.2,157.7 				"/>
				<polygon class="st3" points="112,158.9 113.5,159.8 115.3,158.8 113.7,157.9 				"/>
				<polygon class="st3" points="109.8,160.2 111.3,161.1 113.1,160.1 111.5,159.2 				"/>
				<polygon class="st3" points="107.6,161.5 109.1,162.4 110.9,161.3 109.3,160.4 				"/>
				<polygon class="st3" points="105.4,162.7 106.9,163.6 108.7,162.6 107.1,161.7 				"/>
				<polygon class="st3" points="103.2,164 104.7,164.9 106.5,163.9 104.9,163 				"/>
				<polygon class="st3" points="101,165.3 102.5,166.2 104.3,165.1 102.7,164.2 				"/>
				<polygon class="st3" points="98.8,166.5 100.3,167.4 102.1,166.4 100.5,165.5 				"/>
				<polygon class="st3" points="96.6,167.8 98.1,168.7 99.9,167.7 98.3,166.8 				"/>
				<polygon class="st3" points="94.4,169.1 95.9,170 97.7,168.9 96.1,168 				"/>
				<polygon class="st3" points="92.2,170.3 93.7,171.2 95.5,170.2 93.9,169.3 				"/>
				<polygon class="st3" points="90,171.6 91.5,172.5 93.3,171.5 91.7,170.6 				"/>
				<polygon class="st3" points="89.5,171.8 87.8,172.9 89.3,173.8 91.1,172.7 				"/>
				<polygon class="st3" points="117.7,159.7 119.5,158.7 117.9,157.8 116.2,158.8 				"/>
				<polygon class="st3" points="114,160.1 115.5,161 117.3,160 115.7,159.1 				"/>
				<polygon class="st3" points="115.1,161.2 113.5,160.3 111.8,161.4 113.3,162.3 				"/>
				<polygon class="st3" points="109.6,162.6 111.1,163.5 112.9,162.5 111.3,161.6 				"/>
				<polygon class="st3" points="107.4,163.9 108.9,164.8 110.7,163.8 109.1,162.9 				"/>
				<polygon class="st3" points="105.2,165.2 106.7,166.1 108.5,165 106.9,164.1 				"/>
				<polygon class="st3" points="103,166.4 104.5,167.3 106.3,166.3 104.7,165.4 				"/>
				<polygon class="st3" points="100.8,167.7 102.3,168.6 104.1,167.6 102.5,166.7 				"/>
				<polygon class="st3" points="98.6,169 100.1,169.9 101.9,168.8 100.3,167.9 				"/>
				<polygon class="st3" points="96.4,170.2 97.9,171.1 99.7,170.1 98.1,169.2 				"/>
				<polygon class="st3" points="94.2,171.5 95.7,172.4 97.5,171.4 95.9,170.5 				"/>
				<polygon class="st3" points="95.3,172.6 93.7,171.7 92,172.8 93.5,173.7 				"/>
				<polygon class="st3" points="91.5,173 89.8,174 91.3,174.9 93.1,173.9 				"/>
				<polygon class="st3" points="119.7,160.9 121.5,159.9 120,159 118.2,160 				"/>
				<polygon class="st3" points="119.3,161.1 117.8,160.2 116,161.3 117.5,162.2 				"/>
				<polygon class="st3" points="117.1,162.4 115.6,161.5 113.8,162.5 115.3,163.4 				"/>
				<polygon class="st3" points="114.9,163.7 113.4,162.8 111.6,163.8 113.1,164.7 				"/>
				<polygon class="st3" points="112.7,164.9 111.2,164 109.4,165.1 110.9,166 				"/>
				<polygon class="st3" points="110.5,166.2 109,165.3 107.2,166.3 108.7,167.2 				"/>
				<polygon class="st3" points="108.3,167.5 106.7,166.6 105,167.6 106.5,168.5 				"/>
				<polygon class="st3" points="106.1,168.7 104.5,167.8 102.8,168.9 104.3,169.8 				"/>
				<polygon class="st3" points="103.9,170 102.3,169.1 100.6,170.1 102.1,171 				"/>
				<polygon class="st3" points="101.7,171.3 100.1,170.4 98.4,171.4 99.9,172.3 				"/>
				<polygon class="st3" points="99.5,172.5 97.9,171.6 96.2,172.7 97.7,173.6 				"/>
				<polygon class="st3" points="97.3,173.8 95.7,172.9 94,173.9 95.5,174.8 				"/>
				<polygon class="st3" points="93.5,174.2 91.8,175.2 93.3,176.1 95.1,175.1 				"/>
				<polygon class="st3" points="121.7,162 123.5,161 122,160.1 120.2,161.1 				"/>
				<polygon class="st3" points="121.3,162.3 119.8,161.4 118,162.4 119.5,163.3 				"/>
				<polygon class="st3" points="119.1,163.6 117.6,162.7 115.8,163.7 117.3,164.6 				"/>
				<polygon class="st3" points="116.9,164.8 115.4,163.9 113.6,165 115.1,165.8 				"/>
				<polygon class="st3" points="114.7,166.1 113.2,165.2 111.4,166.2 112.9,167.1 				"/>
				<polygon class="st3" points="112.5,167.4 111,166.5 109.2,167.5 110.7,168.4 				"/>
				<polygon class="st3" points="110.3,168.6 108.8,167.7 107,168.8 108.5,169.6 				"/>
				<polygon class="st3" points="108.1,169.9 106.6,169 104.8,170 106.3,170.9 				"/>
				<polygon class="st3" points="105.9,171.2 104.4,170.3 102.6,171.3 104.1,172.2 				"/>
				<polygon class="st3" points="103.7,172.4 102.2,171.5 100.4,172.6 101.9,173.5 				"/>
				<polygon class="st3" points="101.5,173.7 100,172.8 98.2,173.8 99.7,174.7 				"/>
				<polygon class="st3" points="99.3,175 97.8,174.1 96,175.1 97.5,176 				"/>
				<polygon class="st3" points="95.6,175.3 93.8,176.4 95.3,177.3 97.1,176.2 				"/>
				<polygon class="st3" points="124,161.3 122.2,162.3 123.8,163.2 125.5,162.2 				"/>
				<polygon class="st3" points="120,163.6 121.6,164.5 123.3,163.5 121.8,162.6 				"/>
				<polygon class="st3" points="117.8,164.8 119.4,165.7 121.1,164.7 119.6,163.8 				"/>
				<polygon class="st3" points="115.6,166.1 117.2,167 118.9,166 117.4,165.1 				"/>
				<polygon class="st3" points="113.4,167.4 115,168.3 116.7,167.3 115.2,166.4 				"/>
				<polygon class="st3" points="111.2,168.6 112.8,169.5 114.5,168.5 113,167.6 				"/>
				<polygon class="st3" points="110.8,168.9 108.6,170.2 108.6,170.2 108.1,170.4 106.4,171.4 106.4,171.4 105.5,171.9 
					104.2,172.7 104.2,172.7 102.8,173.5 100.2,175 101.7,175.9 104.4,174.3 105.7,173.6 105.7,173.6 107.1,172.8 107.9,172.3 
					107.9,172.3 109.7,171.3 110.1,171.1 110.1,171.1 112.3,169.8 				"/>
				<polygon class="st3" points="98,176.3 99.5,177.1 101.3,176.1 99.8,175.2 				"/>
				<polygon class="st3" points="95.8,177.5 97.3,178.4 99.1,177.4 97.6,176.5 				"/>
			</g>
			<path class="st3" d="M103.2,159.3l-5.5-3.2c-0.1-0.1-0.3-0.1-0.5,0l-7.7,4.4c-0.1,0.1-0.1,0.3,0,0.4l5.5,3.2
				c0.2,0.1,0.4,0.1,0.6,0l7.7-4.4C103.3,159.6,103.3,159.4,103.2,159.3z"/>
		</g>
	</g>
	<path class="st7" d="M102,150.7c0,0,1.2,1.8,1.6,2.4c0.5,0.6,2.1,2.9,3.1,3.5s0-1.4-0.1-2s0.5-1.2,1.6-0.6c1,0.6,2,2.1,3.1,3
		s2.2-3.3,0.9-5.1c-1.3-1.8-2.7-2.6-4.8-3.4c-2-0.8-3.7-0.4-4.5-0.9L102,150.7z"/>
	<path class="st5" d="M87.7,133.4c-0.9-6.4-1.4-10.9-1.4-10.9l8.1,15.5l11.5,9.9l-4.1,4.5l-12.9-9.5l-0.9-1.3
		C88,138.4,88,135.4,87.7,133.4z"/>
	<path class="st7" d="M83.4,157.5c0,0,1.9,0.4,2.5,0.7c0.6,0.2,3,0.9,3.8,1.6c0.7,0.8-1.3,0.5-1.9,0.6s0.6,0.9,1.4,1.6
		c0.7,0.8,1.2,1.4,1.4,3c0.2,1.2-4,3.6-4.8,1.8c-0.7-1.8-0.8-1.8-2.4-2.9c-1.9-1.4-2.8-2.8-3.4-3.4L83.4,157.5z"/>
	<path class="st5" d="M65.6,124.5c0,0-4,0.9-4.3,7.2l3.3,13.1c0.3,2.1,0.9,3.7,1.9,4.6l13.3,12.3l4.7-4.1l-12.9-12.7l-2.9-13.7
		C68.8,131.2,69.1,125.8,65.6,124.5z"/>
	<g>
		<path class="st14" d="M96.9,152.9l31.3-18.1c0.2-0.1,0.4-0.1,0.6,0l0,0l0.8,0.4l-0.6,0.9l-0.2,0.3v25c0,0.4-0.2,0.7-0.5,0.9
			l-29.8,17.2v0.3l-0.9,1.3l-0.9-0.5l0,0l0,0l0,0c-0.1-0.1-0.2-0.2-0.2-0.4v-26.4C96.4,153.5,96.6,153.1,96.9,152.9z"/>
		<path class="st3" d="M97.8,153.5l31.4-18.1c0.3-0.2,0.7,0,0.7,0.4v26.4c0,0.4-0.2,0.7-0.5,0.9L98,181.2c-0.3,0.2-0.7,0-0.7-0.4
			v-26.4C97.3,154,97.5,153.6,97.8,153.5z"/>
	</g>
	<polygon class="st11" points="56.1,178 75.2,188.8 87.4,181.7 68.3,170.9 	"/>
	<polygon class="st3" points="56.1,182.9 75.2,193.8 87.4,186.7 68.3,175.9 	"/>
	<g>
		<g>
			<g>
				<g>
					<path class="st2" d="M267.8,92.2L147.1,22.5c-0.7-0.4-1.6-0.4-2.4,0.1l0,0l-2.7,1.5l2.5,3.3l0.9,1.1v76.3c0,1.4,0.8,2.7,2,3.5
						l114.7,66.2l0.2,1l3.7,5.2l3.1-1.8l0,0l0,0l0,0c0.5-0.3,0.9-0.9,0.9-1.6V95.8C269.9,94.3,269.1,92.9,267.8,92.2z"/>
					<path class="st4" d="M264.8,94l-121-69.8c-1.2-0.7-2.7,0.2-2.7,1.6v81.6c0,1.4,0.8,2.7,2,3.5l121,69.8c1.2,0.7,2.8-0.2,2.8-1.6
						V97.6C266.8,96.1,266.1,94.7,264.8,94z"/>
				</g>
			</g>
			<g>
				<path class="st1" d="M141.1,25.7v81.6c0,1.4,0.8,2.7,2,3.5l121,69.8c0.3,0.2,0.6,0.2,0.9,0.2c1,0,1.8-0.8,1.8-1.8V97.5
					c0-1.5-0.8-2.8-2.1-3.6l-121-69.8c-0.3-0.2-0.6-0.2-0.9-0.2l0,0C141.9,23.9,141.1,24.7,141.1,25.7z M142.8,25.7L142.8,25.7
					C142.8,25.6,142.9,25.7,142.8,25.7l121.1,69.8c0.7,0.4,1.2,1.2,1.2,2.1V179c0,0.1-0.1,0.1-0.1,0.1l-121.1-69.9
					c-0.7-0.4-1.1-1.1-1.1-1.9L142.8,25.7L142.8,25.7z"/>
				<path class="st21" d="M142.9,23.9L142.9,23.9L142.9,23.9z"/>
			</g>
			<g>
				<path class="st0" d="M265.9,180.6L265.9,180.6L265.9,180.6L265.9,180.6z"/>
				<path class="st2" d="M266.8,179V97.5c0-0.5-0.1-1-0.3-1.4l3.1-1.7c0.2,0.4,0.3,0.9,0.3,1.4v81.5c0,0.7-0.4,1.2-0.9,1.6l0,0l0,0
					l0,0l-3,1.8C266.5,180.3,266.8,179.7,266.8,179z"/>
			</g>
		</g>
		<g>
			<g>
				<polygon class="st22" points="154,36.4 154,38.1 161,42.1 161,40.5 				"/>
				<polygon class="st23" points="154,39.5 154,41.1 161,45.2 161,43.5 				"/>
				<polygon class="st23" points="154,42.5 154,44.2 161,48.2 161,46.6 				"/>
				<polygon class="st23" points="206.9,77.8 206.9,76.1 163.6,51.1 163.6,52.8 				"/>
				<polygon class="st23" points="154,45.6 154,47.2 161,51.3 161,49.6 				"/>
				<polygon class="st23" points="154,48.6 154,50.3 161,54.3 161,52.7 				"/>
				<polygon class="st15" points="206.9,80.8 206.9,79.1 163.6,54.2 163.6,55.8 				"/>
				<polygon class="st23" points="154,57.8 154,59.4 161,63.5 161,61.8 				"/>
				<polygon class="st22" points="154,60.8 154,62.5 161,66.5 161,64.9 				"/>
				<polygon class="st23" points="154,73 154,74.7 161,78.7 161,77 				"/>
				<polygon class="st23" points="154,76.1 154,77.7 161,81.8 161,80.1 				"/>
				<g>
					<polygon class="st15" points="190.9,97.4 163.6,81.6 163.6,83.3 190.9,99 					"/>
					<polygon class="st23" points="192.3,98.2 192.3,99.9 206.9,108.2 206.9,106.6 					"/>
				</g>
				<g>
					<polygon class="st23" points="177.3,86.5 163.6,78.6 163.6,80.2 177.3,88.1 					"/>
					<polygon class="st23" points="178.8,87.3 178.8,89 206.9,105.2 206.9,103.5 					"/>
				</g>
				<polygon class="st23" points="203.2,92.2 203.2,93.9 206.9,96 206.9,94.4 				"/>
				<polygon class="st24" points="183,77.6 163.6,66.4 163.6,68 183,79.3 				"/>
				<polygon class="st23" points="175.1,48.6 163.6,42 163.6,43.6 175.1,50.3 				"/>
				<g>
					<polygon class="st23" points="193.9,59.4 176.5,49.4 176.5,51.1 193.9,61.1 					"/>
				</g>
				<polygon class="st23" points="183.8,56.7 171.5,49.6 171.5,51.3 183.8,58.3 				"/>
				<g>
					<polygon class="st24" points="196.6,64.1 185.2,57.5 185.2,59.2 196.6,65.7 					"/>
					<polygon class="st23" points="198,64.9 198,66.6 206.9,71.7 206.9,70 					"/>
				</g>
				<polygon class="st24" points="165.9,49.4 165.9,51 175.1,56.4 175.1,54.7 				"/>
				<polygon class="st23" points="203.3,71 176.5,55.5 176.5,57.2 203.3,72.6 				"/>
				<polygon class="st23" points="187.9,71.3 170.5,61.2 170.5,62.9 187.9,72.9 				"/>
				<polygon class="st23" points="203.3,80.1 189.4,72.1 189.4,73.8 203.3,81.8 				"/>
				<g>
					<polygon class="st23" points="201.7,88.4 184.5,78.4 184.5,80.1 201.7,90 					"/>
				</g>
				<polygon class="st15" points="192.3,86 192.3,87.7 201.7,93.1 201.7,91.4 				"/>
				<polygon class="st23" points="167,71.4 163.6,69.4 163.6,71.1 167,73 				"/>
				<g>
					<polygon class="st23" points="173.3,75 173.3,76.7 190.9,86.8 190.9,85.2 					"/>
					<polygon class="st23" points="171.9,74.2 168.4,72.2 168.4,73.9 171.9,75.9 					"/>
				</g>
				<polygon class="st23" points="187.6,86.3 168.4,75.2 168.4,76.9 187.6,88 				"/>
			</g>
			<g>
				<polygon class="st22" points="154,85 154,86.7 161,90.7 161,89.1 				"/>
				<polygon class="st23" points="154,88.1 154,89.8 161,93.8 161,92.1 				"/>
				<polygon class="st23" points="154,91.1 154,92.8 161,96.8 161,95.2 				"/>
				<polygon class="st23" points="206.9,126.4 206.9,124.7 163.6,99.7 163.6,101.4 				"/>
				<polygon class="st23" points="154,94.2 154,95.8 161,99.9 161,98.2 				"/>
				<polygon class="st23" points="154,97.2 154,98.9 161,102.9 161,101.3 				"/>
				<polygon class="st15" points="206.9,129.4 206.9,127.7 163.6,102.8 163.6,104.5 				"/>
				<polygon class="st23" points="154,106.4 154,108 161,112.1 161,110.4 				"/>
				<polygon class="st22" points="154,109.4 154,111.1 161,115.1 161,113.5 				"/>
				<polygon class="st24" points="183,126.2 163.6,115 163.6,116.7 183,127.9 				"/>
				<polygon class="st23" points="175.1,97.2 163.6,90.6 163.6,92.3 175.1,98.9 				"/>
				<g>
					<polygon class="st23" points="193.9,108.1 176.5,98 176.5,99.7 193.9,109.7 					"/>
				</g>
				<polygon class="st23" points="183.8,105.3 171.5,98.2 171.5,99.9 183.8,106.9 				"/>
				<g>
					<polygon class="st24" points="196.6,112.7 185.2,106.1 185.2,107.8 196.6,114.3 					"/>
					<polygon class="st23" points="198,113.5 198,115.2 206.9,120.3 206.9,118.6 					"/>
				</g>
				<polygon class="st24" points="165.9,98 165.9,99.7 175.1,105 175.1,103.3 				"/>
				<polygon class="st23" points="203.3,119.6 176.5,104.1 176.5,105.8 203.3,121.2 				"/>
				<polygon class="st23" points="187.9,119.9 170.5,109.8 170.5,111.5 187.9,121.6 				"/>
				<polygon class="st23" points="203.3,128.7 189.4,120.7 189.4,122.4 203.3,130.4 				"/>
				<g>
					<polygon class="st23" points="201.7,137 184.5,127 184.5,128.7 201.7,138.7 					"/>
				</g>
			</g>
			<g>
				<polygon class="st15" points="239.4,85.6 239.4,86.3 242.2,87.9 242.2,87.2 				"/>
				<polygon class="st15" points="239.4,86.9 239.4,87.5 242.2,89.1 242.2,88.5 				"/>
				<polygon class="st15" points="239.4,88.1 239.4,88.7 242.2,90.3 242.2,89.7 				"/>
				<polygon class="st15" points="260.4,102.1 260.4,101.4 243.2,91.5 243.2,92.1 				"/>
				<polygon class="st15" points="239.4,89.3 239.4,89.9 242.2,91.5 242.2,90.9 				"/>
				<polygon class="st15" points="239.4,90.5 239.4,91.1 242.2,92.8 242.2,92.1 				"/>
				<polygon class="st15" points="260.4,103.3 260.4,102.6 243.2,92.7 243.2,93.4 				"/>
				<polygon class="st15" points="239.4,94.1 239.4,94.8 242.2,96.4 242.2,95.7 				"/>
				<polygon class="st15" points="239.4,95.3 239.4,96 242.2,97.6 242.2,96.9 				"/>
				<polygon class="st15" points="239.4,100.2 239.4,100.8 242.2,102.4 242.2,101.8 				"/>
				<polygon class="st15" points="239.4,101.4 239.4,102 242.2,103.7 242.2,103 				"/>
				<g>
					<polygon class="st15" points="254.1,109.8 243.2,103.6 243.2,104.3 254.1,110.5 					"/>
					<polygon class="st15" points="254.6,110.2 254.6,110.8 260.4,114.2 260.4,113.5 					"/>
				</g>
				<g>
					<polygon class="st15" points="248.7,105.5 243.2,102.4 243.2,103 248.7,106.2 					"/>
					<polygon class="st15" points="249.2,105.9 249.2,106.5 260.4,113 260.4,112.3 					"/>
				</g>
				<polygon class="st15" points="258.9,107.8 258.9,108.5 260.4,109.3 260.4,108.7 				"/>
				<polygon class="st15" points="250.9,102 243.2,97.5 243.2,98.2 250.9,102.7 				"/>
				<polygon class="st15" points="247.8,90.5 243.2,87.8 243.2,88.5 247.8,91.1 				"/>
				<g>
					<polygon class="st15" points="255.3,94.8 248.4,90.8 248.4,91.5 255.3,95.5 					"/>
				</g>
				<polygon class="st15" points="251.2,93.7 246.4,90.9 246.4,91.5 251.2,94.3 				"/>
				<g>
					<polygon class="st15" points="256.3,96.6 251.8,94 251.8,94.7 256.3,97.3 					"/>
					<polygon class="st15" points="256.9,96.9 256.9,97.6 260.4,99.6 260.4,99 					"/>
				</g>
				<polygon class="st15" points="244.1,90.8 244.1,91.5 247.8,93.6 247.8,92.9 				"/>
				<polygon class="st15" points="259,99.4 248.4,93.2 248.4,93.9 259,100 				"/>
				<polygon class="st15" points="252.9,99.5 246,95.5 246,96.1 252.9,100.1 				"/>
				<polygon class="st15" points="259,103 253.5,99.8 253.5,100.5 259,103.7 				"/>
				<g>
					<polygon class="st15" points="258.4,106.3 251.5,102.3 251.5,103 258.4,106.9 					"/>
				</g>
				<polygon class="st15" points="254.6,105.3 254.6,106 258.4,108.1 258.4,107.5 				"/>
				<polygon class="st15" points="244.6,99.5 243.2,98.7 243.2,99.4 244.6,100.2 				"/>
				<g>
					<polygon class="st15" points="247.1,101 247.1,101.6 254.1,105.7 254.1,105 					"/>
					<polygon class="st15" points="246.5,100.6 245.1,99.9 245.1,100.5 246.5,101.3 					"/>
				</g>
				<polygon class="st15" points="252.8,105.5 245.1,101.1 245.1,101.7 252.8,106.1 				"/>
			</g>
			<g>
				<polygon class="st23" points="239.4,106.1 239.4,106.8 242.2,108.4 242.2,107.7 				"/>
				<polygon class="st23" points="239.4,107.3 239.4,108 242.2,109.6 242.2,108.9 				"/>
				<polygon class="st23" points="239.4,108.6 239.4,109.2 242.2,110.8 242.2,110.2 				"/>
				<polygon class="st23" points="260.4,122.5 260.4,121.9 243.2,112 243.2,112.6 				"/>
				<polygon class="st23" points="239.4,109.8 239.4,110.4 242.2,112 242.2,111.4 				"/>
				<polygon class="st23" points="239.4,111 239.4,111.6 242.2,113.2 242.2,112.6 				"/>
				<polygon class="st23" points="260.4,123.8 260.4,123.1 243.2,113.2 243.2,113.8 				"/>
				<polygon class="st23" points="239.4,114.6 239.4,115.3 242.2,116.9 242.2,116.2 				"/>
				<polygon class="st23" points="239.4,115.8 239.4,116.5 242.2,118.1 242.2,117.4 				"/>
				<polygon class="st23" points="239.4,120.7 239.4,121.3 242.2,122.9 242.2,122.3 				"/>
				<polygon class="st23" points="239.4,121.9 239.4,122.5 242.2,124.1 242.2,123.5 				"/>
				<g>
					<polygon class="st23" points="254.1,130.3 243.2,124.1 243.2,124.7 254.1,131 					"/>
					<polygon class="st23" points="254.6,130.7 254.6,131.3 260.4,134.7 260.4,134 					"/>
				</g>
				<g>
					<polygon class="st23" points="248.7,126 243.2,122.9 243.2,123.5 248.7,126.7 					"/>
					<polygon class="st23" points="249.2,126.3 249.2,127 260.4,133.4 260.4,132.8 					"/>
				</g>
				<polygon class="st23" points="258.9,128.3 258.9,129 260.4,129.8 260.4,129.1 				"/>
				<polygon class="st23" points="250.9,122.5 243.2,118 243.2,118.7 250.9,123.1 				"/>
				<polygon class="st23" points="247.8,111 243.2,108.3 243.2,109 247.8,111.6 				"/>
				<g>
					<polygon class="st23" points="255.3,115.3 248.4,111.3 248.4,112 255.3,115.9 					"/>
				</g>
				<polygon class="st23" points="251.2,114.2 246.4,111.4 246.4,112 251.2,114.8 				"/>
				<g>
					<polygon class="st23" points="256.3,117.1 251.8,114.5 251.8,115.2 256.3,117.8 					"/>
					<polygon class="st23" points="256.9,117.4 256.9,118.1 260.4,120.1 260.4,119.5 					"/>
				</g>
				<polygon class="st23" points="244.1,111.3 244.1,111.9 247.8,114.1 247.8,113.4 				"/>
				<polygon class="st23" points="259,119.8 248.4,113.7 248.4,114.4 259,120.5 				"/>
				<polygon class="st23" points="252.9,120 246,116 246,116.6 252.9,120.6 				"/>
				<polygon class="st23" points="259,123.5 253.5,120.3 253.5,121 259,124.1 				"/>
				<g>
					<polygon class="st23" points="258.4,126.8 251.5,122.8 251.5,123.5 258.4,127.4 					"/>
				</g>
				<polygon class="st23" points="254.6,125.8 254.6,126.5 258.4,128.6 258.4,128 				"/>
				<polygon class="st23" points="244.6,120 243.2,119.2 243.2,119.9 244.6,120.7 				"/>
				<g>
					<polygon class="st23" points="247.1,121.5 247.1,122.1 254.1,126.2 254.1,125.5 					"/>
					<polygon class="st23" points="246.5,121.1 245.1,120.3 245.1,121 246.5,121.8 					"/>
				</g>
				<polygon class="st23" points="252.8,126 245.1,121.5 245.1,122.2 252.8,126.6 				"/>
			</g>
			<g>
				<polygon class="st22" points="239.4,126.6 239.4,127.3 242.2,128.9 242.2,128.2 				"/>
				<polygon class="st22" points="239.4,127.8 239.4,128.5 242.2,130.1 242.2,129.4 				"/>
				<polygon class="st22" points="239.4,129 239.4,129.7 242.2,131.3 242.2,130.6 				"/>
				<polygon class="st22" points="260.4,143 260.4,142.4 243.2,132.5 243.2,133.1 				"/>
				<polygon class="st22" points="239.4,130.2 239.4,130.9 242.2,132.5 242.2,131.9 				"/>
				<polygon class="st22" points="239.4,131.5 239.4,132.1 242.2,133.7 242.2,133.1 				"/>
				<polygon class="st22" points="260.4,144.2 260.4,143.6 243.2,133.7 243.2,134.3 				"/>
				<polygon class="st22" points="239.4,135.1 239.4,135.8 242.2,137.4 242.2,136.7 				"/>
				<polygon class="st22" points="239.4,136.3 239.4,137 242.2,138.6 242.2,137.9 				"/>
				<polygon class="st22" points="239.4,141.1 239.4,141.8 242.2,143.4 242.2,142.8 				"/>
				<polygon class="st22" points="239.4,142.4 239.4,143 242.2,144.6 242.2,144 				"/>
				<g>
					<polygon class="st22" points="254.1,150.8 243.2,144.6 243.2,145.2 254.1,151.5 					"/>
					<polygon class="st22" points="254.6,151.1 254.6,151.8 260.4,155.1 260.4,154.5 					"/>
				</g>
				<g>
					<polygon class="st22" points="248.7,146.5 243.2,143.4 243.2,144 248.7,147.2 					"/>
					<polygon class="st22" points="249.2,146.8 249.2,147.5 260.4,153.9 260.4,153.3 					"/>
				</g>
				<polygon class="st22" points="258.9,148.8 258.9,149.4 260.4,150.3 260.4,149.6 				"/>
				<polygon class="st22" points="250.9,143 243.2,138.5 243.2,139.2 250.9,143.6 				"/>
				<polygon class="st22" points="247.8,131.5 243.2,128.8 243.2,129.5 247.8,132.1 				"/>
				<g>
					<polygon class="st22" points="255.3,135.8 248.4,131.8 248.4,132.4 255.3,136.4 					"/>
				</g>
				<polygon class="st22" points="251.2,134.7 246.4,131.9 246.4,132.5 251.2,135.3 				"/>
				<g>
					<polygon class="st22" points="256.3,137.6 251.8,135 251.8,135.6 256.3,138.3 					"/>
					<polygon class="st22" points="256.9,137.9 256.9,138.6 260.4,140.6 260.4,139.9 					"/>
				</g>
				<polygon class="st22" points="244.1,131.8 244.1,132.4 247.8,134.5 247.8,133.9 				"/>
				<polygon class="st22" points="259,140.3 248.4,134.2 248.4,134.9 259,141 				"/>
				<polygon class="st22" points="252.9,140.5 246,136.5 246,137.1 252.9,141.1 				"/>
				<polygon class="st22" points="259,144 253.5,140.8 253.5,141.4 259,144.6 				"/>
				<g>
					<polygon class="st22" points="258.4,147.2 251.5,143.3 251.5,144 258.4,147.9 					"/>
				</g>
				<polygon class="st22" points="254.6,146.3 254.6,147 258.4,149.1 258.4,148.5 				"/>
				<polygon class="st22" points="244.6,140.5 243.2,139.7 243.2,140.4 244.6,141.2 				"/>
				<g>
					<polygon class="st22" points="247.1,141.9 247.1,142.6 254.1,146.6 254.1,146 					"/>
					<polygon class="st22" points="246.5,141.6 245.1,140.8 245.1,141.5 246.5,142.3 					"/>
				</g>
				<polygon class="st22" points="252.8,146.4 245.1,142 245.1,142.7 252.8,147.1 				"/>
			</g>
			<g>
				<polygon class="st23" points="239.4,147.1 239.4,147.8 242.2,149.4 242.2,148.7 				"/>
				<polygon class="st23" points="239.4,148.3 239.4,149 242.2,150.6 242.2,149.9 				"/>
				<polygon class="st23" points="239.4,149.5 239.4,150.2 242.2,151.8 242.2,151.1 				"/>
				<polygon class="st23" points="260.4,163.5 260.4,162.9 243.2,152.9 243.2,153.6 				"/>
				<polygon class="st23" points="239.4,150.7 239.4,151.4 242.2,153 242.2,152.3 				"/>
				<polygon class="st23" points="239.4,151.9 239.4,152.6 242.2,154.2 242.2,153.6 				"/>
				<polygon class="st23" points="260.4,164.7 260.4,164.1 243.2,154.2 243.2,154.8 				"/>
				<polygon class="st23" points="239.4,155.6 239.4,156.2 242.2,157.8 242.2,157.2 				"/>
				<polygon class="st23" points="239.4,156.8 239.4,157.5 242.2,159.1 242.2,158.4 				"/>
				<polygon class="st23" points="258.9,169.3 258.9,169.9 260.4,170.8 260.4,170.1 				"/>
				<polygon class="st23" points="250.9,163.5 243.2,159 243.2,159.7 250.9,164.1 				"/>
				<polygon class="st23" points="247.8,151.9 243.2,149.3 243.2,150 247.8,152.6 				"/>
				<g>
					<polygon class="st23" points="255.3,156.2 248.4,152.3 248.4,152.9 255.3,156.9 					"/>
				</g>
				<polygon class="st23" points="251.2,155.1 246.4,152.3 246.4,153 251.2,155.8 				"/>
				<g>
					<polygon class="st23" points="256.3,158.1 251.8,155.5 251.8,156.1 256.3,158.7 					"/>
					<polygon class="st23" points="256.9,158.4 256.9,159.1 260.4,161.1 260.4,160.4 					"/>
				</g>
				<polygon class="st23" points="244.1,152.3 244.1,152.9 247.8,155 247.8,154.4 				"/>
				<polygon class="st23" points="259,160.8 248.4,154.7 248.4,155.4 259,161.5 				"/>
				<polygon class="st23" points="252.9,160.9 246,156.9 246,157.6 252.9,161.6 				"/>
				<polygon class="st23" points="259,164.5 253.5,161.3 253.5,161.9 259,165.1 				"/>
				<g>
					<polygon class="st23" points="258.4,167.7 251.5,163.8 251.5,164.4 258.4,168.4 					"/>
				</g>
				<polygon class="st23" points="254.6,166.8 254.6,167.5 258.4,169.6 258.4,168.9 				"/>
				<polygon class="st23" points="244.6,161 243.2,160.2 243.2,160.9 244.6,161.6 				"/>
				<g>
					<polygon class="st23" points="247.1,162.4 247.1,163.1 254.1,167.1 254.1,166.5 					"/>
					<polygon class="st23" points="246.5,162.1 245.1,161.3 245.1,162 246.5,162.8 					"/>
				</g>
				<polygon class="st23" points="252.8,166.9 245.1,162.5 245.1,163.2 252.8,167.6 				"/>
			</g>
			<g>
				<path class="st15" d="M149.5,33.8l-2.3-1.3c-0.1-0.1-0.3,0-0.3,0.1v2.8c0,0.1,0.1,0.3,0.2,0.3l2.3,1.3c0.1,0.1,0.3,0,0.3-0.2V34
					C149.7,34,149.6,33.9,149.5,33.8z"/>
				<path class="st15" d="M149.5,38l-2.3-1.3c-0.1-0.1-0.3,0-0.3,0.1v2.8c0,0.1,0.1,0.3,0.2,0.3l2.3,1.3c0.1,0.1,0.3,0,0.3-0.2v-2.8
					C149.7,38.2,149.6,38,149.5,38z"/>
				<path class="st15" d="M149.5,42.1l-2.3-1.3c-0.1-0.1-0.3,0-0.3,0.1v2.8c0,0.1,0.1,0.3,0.2,0.3l2.3,1.3c0.1,0.1,0.3,0,0.3-0.2
					v-2.8C149.7,42.3,149.6,42.2,149.5,42.1z"/>
				<path class="st15" d="M149.5,46.2l-2.3-1.3c-0.1-0.1-0.3,0-0.3,0.1v2.8c0,0.1,0.1,0.3,0.2,0.3l2.3,1.3c0.1,0.1,0.3,0,0.3-0.2
					v-2.8C149.7,46.4,149.6,46.3,149.5,46.2z"/>
				<path class="st15" d="M149.5,50.4l-2.3-1.3c-0.1-0.1-0.3,0-0.3,0.1V52c0,0.1,0.1,0.3,0.2,0.3l2.3,1.3c0.1,0.1,0.3,0,0.3-0.2
					v-2.7C149.7,50.6,149.6,50.4,149.5,50.4z"/>
				<path class="st15" d="M149.5,54.5l-2.3-1.3c-0.1-0.1-0.3,0-0.3,0.1v2.8c0,0.1,0.1,0.3,0.2,0.3l2.3,1.3c0.1,0.1,0.3,0,0.3-0.2
					v-2.8C149.7,54.7,149.6,54.6,149.5,54.5z"/>
				<path class="st15" d="M149.5,58.6l-2.3-1.3c-0.1-0.1-0.3,0-0.3,0.1v2.8c0,0.1,0.1,0.3,0.2,0.3l2.3,1.3c0.1,0.1,0.3,0,0.3-0.2
					v-2.8C149.7,58.8,149.6,58.7,149.5,58.6z"/>
				<path class="st15" d="M149.5,62.8l-2.3-1.3c-0.1-0.1-0.3,0-0.3,0.1v2.8c0,0.1,0.1,0.3,0.2,0.3l2.3,1.3c0.1,0.1,0.3,0,0.3-0.2V63
					C149.7,63,149.6,62.8,149.5,62.8z"/>
				<path class="st15" d="M149.5,66.9l-2.3-1.3c-0.1-0.1-0.3,0-0.3,0.1v2.8c0,0.1,0.1,0.3,0.2,0.3l2.3,1.3c0.1,0.1,0.3,0,0.3-0.2
					v-2.8C149.7,67.1,149.6,67,149.5,66.9z"/>
				<path class="st15" d="M149.5,71.1l-2.3-1.3c-0.1-0.1-0.3,0-0.3,0.1v2.8c0,0.1,0.1,0.3,0.2,0.3l2.3,1.3c0.1,0.1,0.3,0,0.3-0.1
					v-2.8C149.7,71.3,149.6,71.1,149.5,71.1z"/>
				<path class="st15" d="M149.5,75.2l-2.3-1.3c-0.1-0.1-0.3,0-0.3,0.1v2.8c0,0.1,0.1,0.3,0.2,0.3l2.3,1.3c0.1,0.1,0.3,0,0.3-0.2
					v-2.8C149.7,75.4,149.6,75.3,149.5,75.2z"/>
				<path class="st15" d="M149.5,79.3l-2.3-1.3c-0.1-0.1-0.3,0-0.3,0.1v2.8c0,0.1,0.1,0.3,0.2,0.3l2.3,1.3c0.1,0.1,0.3,0,0.3-0.2
					v-2.6C149.7,79.5,149.6,79.4,149.5,79.3z"/>
			</g>
		</g>
		<g>
			<path class="st23" d="M215.8,73.4c-0.1,0.1-0.2,0.4-0.2,0.8V76l0,0c0,0.3-0.1,0.5-0.3,0.5s-0.5-0.1-0.9-0.3v1.2
				c0.4,0.2,0.7,0.5,0.9,0.8s0.3,0.6,0.3,1V81c0,0.4,0.1,0.7,0.2,1c0.1,0.3,0.3,0.6,0.6,0.9s0.7,0.6,1.2,0.8v-1.2
				c-0.3-0.2-0.6-0.4-0.7-0.6c-0.1-0.2-0.2-0.4-0.2-0.7v-1.7v-0.1c0-0.7-0.4-1.3-1.1-1.8v-0.1c0.7,0.3,1.1,0.1,1.1-0.6v-1.7
				c0-0.3,0.1-0.4,0.2-0.5c0.1-0.1,0.3,0,0.7,0.2v-1.2c-0.5-0.3-0.9-0.5-1.2-0.5C216.2,73.2,216,73.3,215.8,73.4z"/>
			<path class="st23" d="M222.8,80.9c-0.2-0.3-0.3-0.6-0.3-0.9l0,0v-1.8c0-0.6-0.1-1.1-0.5-1.5c-0.3-0.4-0.8-0.8-1.6-1.3v1.2
				c0.3,0.2,0.6,0.4,0.7,0.6c0.1,0.2,0.2,0.4,0.2,0.7v1.7c0,0.7,0.4,1.4,1.1,1.9v0.1c-0.4-0.1-0.6-0.2-0.8-0.1s-0.3,0.3-0.3,0.6l0,0
				v1.7c0,0.3-0.1,0.4-0.2,0.5c-0.1,0.1-0.3,0-0.7-0.2v1.2c0.8,0.4,1.3,0.6,1.6,0.6c0.3-0.1,0.5-0.4,0.5-1v-1.8
				c0-0.4,0.1-0.6,0.3-0.6s0.5,0.1,0.9,0.3v-1.2C223.3,81.4,223,81.2,222.8,80.9z"/>
		</g>
		<g>
			<path class="st23" d="M227.2,79.8c-0.1,0.1-0.2,0.4-0.2,0.8v1.8l0,0c0,0.3-0.1,0.5-0.3,0.5s-0.5-0.1-0.9-0.3v1.2
				c0.4,0.2,0.7,0.5,0.9,0.8s0.3,0.6,0.3,1v1.8c0,0.4,0.1,0.7,0.2,1c0.1,0.3,0.3,0.6,0.6,0.9s0.7,0.6,1.2,0.8v-1.2
				c-0.3-0.2-0.6-0.4-0.7-0.6c-0.1-0.2-0.2-0.4-0.2-0.7v-1.7v-0.1c0-0.7-0.4-1.3-1.1-1.8v-0.1c0.7,0.3,1.1,0.1,1.1-0.6v-1.7
				c0-0.3,0.1-0.4,0.2-0.5c0.1-0.1,0.3,0,0.7,0.2v-1.2c-0.5-0.3-0.9-0.5-1.2-0.5C227.6,79.6,227.4,79.7,227.2,79.8z"/>
			<path class="st23" d="M234.2,87.3c-0.2-0.3-0.3-0.6-0.3-0.9l0,0v-1.8c0-0.6-0.1-1.1-0.5-1.5c-0.3-0.4-0.8-0.8-1.6-1.3V83
				c0.3,0.2,0.6,0.4,0.7,0.6c0.1,0.2,0.2,0.4,0.2,0.7V86c0,0.7,0.4,1.4,1.1,1.9V88c-0.4-0.1-0.6-0.2-0.8-0.1s-0.3,0.3-0.3,0.6l0,0
				v1.7c0,0.3-0.1,0.4-0.2,0.5c-0.1,0.1-0.3,0-0.7-0.2v1.2c0.8,0.4,1.3,0.6,1.6,0.6c0.3-0.1,0.5-0.4,0.5-1v-1.8
				c0-0.4,0.1-0.6,0.3-0.6s0.5,0.1,0.9,0.3V88C234.7,87.8,234.4,87.6,234.2,87.3z"/>
		</g>
		<g>
			<path class="st23" d="M224.8,139.6l-1.1-0.6c-0.1,0.7-0.4,1.3-0.8,1.7l0.8,1.4l-1.4,0.8l-0.8-1.4c-0.5,0.1-1.2,0.1-1.8-0.2v1.3
				l-1.9-1.1v-1.3c-0.7-0.5-1.3-1.2-1.8-1.9l-0.8,0.4l-1.3-2.3l0.8-0.4c-0.4-0.8-0.6-1.7-0.8-2.6l-1.1-0.6v-2.2l1.1,0.6
				c0.1-0.7,0.4-1.3,0.8-1.7l-0.8-1.4l1.4-0.8l0.8,1.4c0.5-0.1,1.2-0.1,1.8,0.2v-1.3l1.9,1.1v1.3c0.7,0.5,1.3,1.2,1.8,1.9l0.8-0.4
				l1.3,2.3l-0.8,0.4c0.4,0.8,0.6,1.7,0.8,2.6l1.1,0.6V139.6z M218.8,138c1.4,0.8,2.5,0.2,2.5-1.4c0-1.6-1.1-3.5-2.5-4.3
				s-2.5-0.2-2.5,1.4C216.3,135.2,217.4,137.2,218.8,138"/>
		</g>
		<g>
			<path class="st23" d="M232.8,150.3l-0.9-0.5c-0.1,0.6-0.3,1-0.6,1.4l0.6,1.1l-1.1,0.6l-0.6-1.1c-0.4,0.1-1,0-1.5-0.2v1l-1.6-0.9
				v-1c-0.5-0.4-1.1-1-1.5-1.6l-0.6,0.4l-1.1-1.9l0.6-0.4c-0.3-0.7-0.5-1.4-0.6-2.1l-0.9-0.5v-1.8l0.9,0.5c0.1-0.6,0.3-1,0.6-1.4
				l-0.6-1.1l1.1-0.6l0.6,1.1c0.4-0.1,1,0,1.5,0.2v-1l1.6,0.9v1c0.5,0.4,1.1,1,1.5,1.6l0.6-0.4l1.1,1.9l-0.6,0.4
				c0.3,0.7,0.5,1.4,0.6,2.1l0.9,0.5V150.3z M227.9,148.9c1.1,0.7,2,0.1,2.1-1.2c0-1.3-0.9-2.9-2-3.5c-1.1-0.7-2.1-0.1-2.1,1.2
				C225.8,146.7,226.7,148.2,227.9,148.9"/>
		</g>
		<g>
			<polygon class="st23" points="226.7,93 214.4,85.8 214.4,86.4 226.7,93.6 			"/>
			<polygon class="st23" points="233.3,98 214.4,87 214.4,87.7 233.3,98.6 			"/>
			<polygon class="st15" points="233.3,96.8 227.6,93.4 227.6,94.1 233.3,97.4 			"/>
			<polygon class="st23" points="226.7,95.4 214.4,88.2 214.4,88.8 226.7,96 			"/>
			<polygon class="st23" points="233.3,100.4 214.4,89.5 214.4,90.1 233.3,101 			"/>
			<polygon class="st15" points="233.3,99.2 227.6,95.8 227.6,96.5 233.3,99.8 			"/>
		</g>
		<g>
			<polygon class="st23" points="226.7,98.9 214.4,91.7 214.4,92.3 226.7,99.5 			"/>
			<polygon class="st23" points="233.3,103.9 214.4,92.9 214.4,93.6 233.3,104.5 			"/>
			<polygon class="st23" points="233.3,102.7 227.6,99.3 227.6,99.9 233.3,103.3 			"/>
			<polygon class="st23" points="226.7,101.3 214.4,94.1 214.4,94.7 226.7,101.9 			"/>
			<polygon class="st23" points="233.3,106.3 214.4,95.3 214.4,96 233.3,106.9 			"/>
			<polygon class="st23" points="233.3,105.1 227.6,101.7 227.6,102.4 233.3,105.7 			"/>
		</g>
		<g>
			<polygon class="st23" points="226.7,104.7 214.4,97.6 214.4,98.2 226.7,105.4 			"/>
			<polygon class="st23" points="233.3,109.8 214.4,98.8 214.4,99.4 233.3,110.4 			"/>
			<polygon class="st23" points="233.3,108.6 227.6,105.2 227.6,105.8 233.3,109.2 			"/>
			<polygon class="st15" points="226.7,107.2 214.4,100 214.4,100.6 226.7,107.8 			"/>
			<polygon class="st23" points="233.3,112.2 214.4,101.2 214.4,101.9 233.3,112.8 			"/>
			<polygon class="st23" points="233.3,111 227.6,107.6 227.6,108.2 233.3,111.6 			"/>
		</g>
		<g>
			<polygon class="st23" points="226.7,110.6 214.4,103.5 214.4,104.1 226.7,111.3 			"/>
			<polygon class="st23" points="233.3,115.7 214.4,104.7 214.4,105.3 233.3,116.3 			"/>
			<polygon class="st15" points="233.3,114.4 227.6,111.1 227.6,111.7 233.3,115.1 			"/>
			<polygon class="st23" points="226.7,113 214.4,105.9 214.4,106.5 226.7,113.7 			"/>
			<polygon class="st23" points="233.3,118.1 214.4,107.1 214.4,107.7 233.3,118.7 			"/>
			<polygon class="st15" points="233.3,116.9 227.6,113.5 227.6,114.1 233.3,117.5 			"/>
		</g>
		<g>
			<polygon class="st23" points="226.7,116.5 214.4,109.4 214.4,110 226.7,117.2 			"/>
			<polygon class="st23" points="233.3,121.6 214.4,110.6 214.4,111.2 233.3,122.2 			"/>
			<polygon class="st15" points="233.3,120.3 227.6,117 227.6,117.6 233.3,121 			"/>
			<polygon class="st23" points="226.7,118.9 214.4,111.8 214.4,112.4 226.7,119.6 			"/>
			<polygon class="st15" points="233.3,124 214.4,113 214.4,113.6 233.3,124.6 			"/>
			<polygon class="st23" points="233.3,122.7 227.6,119.4 227.6,120 233.3,123.4 			"/>
		</g>
	</g>
	<g>
		<g>
			<g>
				<g>
					<path class="st17" d="M93.3,53.7l-20-11.5c-0.6-0.4-1.3-0.3-2,0.1l0,0l-4.4,2.5l2,2.8l0.8,0.9v19.7c0,1.2,0.6,2.3,1.6,2.8
						l15,8.7l0.2,0.8l3,4.3l4.7-2.8l0,0l0,0l0,0c0.4-0.3,0.7-0.7,0.7-1.3v-24C95,55.4,94.3,54.3,93.3,53.7z"/>
					<path class="st25" d="M88.6,56.5L68.5,44.8c-1-0.6-2.2,0.1-2.2,1.3v24.1c0,1.2,0.6,2.3,1.6,2.8L88,84.7c1,0.6,2.3-0.1,2.3-1.3
						v-24C90.3,58.2,89.7,57.1,88.6,56.5z"/>
				</g>
			</g>
			<g>
				<path class="st0" d="M89.5,84.7L89.5,84.7L89.5,84.7L89.5,84.7z"/>
				<path class="st17" d="M90.3,83.4v-24c0-0.4-0.1-0.8-0.2-1.2l4.7-2.7c0.1,0.4,0.2,0.7,0.2,1.1v24c0,0.6-0.3,1-0.7,1.3l0,0l0,0
					l0,0l-4.8,2.8C90,84.5,90.3,84,90.3,83.4z"/>
			</g>
		</g>
		<g>
			<g>
				<g>
					<path class="st26" d="M97.4,66.3L77.5,54.8c-0.6-0.4-1.3-0.3-2,0.1l0,0l-4.4,2.5l2,2.8l0.8,0.9v19.7c0,1.2,0.6,2.3,1.6,2.8
						l14.9,8.6l0.2,0.8l3,4.3l4.7-2.8l0,0l0,0l0,0c0.4-0.3,0.7-0.7,0.7-1.3v-24C99.1,68,98.5,66.9,97.4,66.3z"/>
					<path class="st5" d="M92.8,69.1L72.6,57.4c-1-0.6-2.2,0.1-2.2,1.3v24.1c0,1.2,0.6,2.3,1.6,2.8l20.1,11.6c1,0.6,2.3-0.1,2.3-1.3
						v-24C94.5,70.8,93.8,69.7,92.8,69.1z"/>
				</g>
			</g>
			<g>
				<path class="st0" d="M93.7,97.3L93.7,97.3L93.7,97.3L93.7,97.3z"/>
				<path class="st27" d="M94.5,96V72c0-0.4-0.1-0.8-0.2-1.2l4.7-2.7c0.1,0.4,0.2,0.7,0.2,1.1v24c0,0.6-0.3,1-0.7,1.3l0,0l0,0l0,0
					l-4.6,2.7C94.2,97.1,94.5,96.6,94.5,96z"/>
			</g>
		</g>
		<g>
			<g>
				<g>
					<path class="st14" d="M75.7,64L55.8,52.5c-0.6-0.4-1.3-0.3-2,0.1l0,0l-4.4,2.5l2,2.8l0.8,0.9v19.7c0,1.2,0.6,2.3,1.6,2.8
						l14.9,8.6l0.2,0.8l3,4.3l4.7-2.8l0,0l0,0l0,0c0.4-0.3,0.7-0.7,0.7-1.3v-24C77.4,65.7,76.8,64.6,75.7,64z"/>
					<path class="st3" d="M71.1,66.7L50.9,55.1c-1-0.6-2.2,0.1-2.2,1.3v24.1c0,1.2,0.6,2.3,1.6,2.8l20.1,11.6c1,0.6,2.3-0.1,2.3-1.3
						v-24C72.8,68.4,72.1,67.3,71.1,66.7z"/>
				</g>
			</g>
			<g>
				<path class="st0" d="M72,95L72,95L72,95L72,95z"/>
				<path class="st14" d="M72.8,93.7v-24c0-0.4-0.1-0.8-0.2-1.2l4.7-2.7c0.1,0.4,0.2,0.7,0.2,1.1v24c0,0.6-0.3,1-0.7,1.3l0,0l0,0
					l0,0l-4.6,2.7C72.5,94.7,72.8,94.2,72.8,93.7z"/>
			</g>
		</g>
		<g>
			<g>
				<g>
					<path class="st25" d="M67,69.1L47.1,57.6c-0.6-0.4-1.3-0.3-2,0.1l0,0l-4.4,2.5l2,2.8l0.8,0.9v19.7c0,1.2,0.6,2.3,1.6,2.8L60,95
						l0.2,0.8l3,4.3l4.7-2.8l0,0l0,0l0,0c0.4-0.3,0.7-0.7,0.7-1.3V72C68.7,70.8,68,69.7,67,69.1z"/>
					<path class="st15" d="M62.3,71.8L42.2,60.2c-1-0.6-2.2,0.1-2.2,1.3v24.1c0,1.2,0.6,2.3,1.6,2.8L61.7,100c1,0.6,2.3-0.1,2.3-1.3
						v-24C64,73.5,63.4,72.4,62.3,71.8z"/>
				</g>
			</g>
			<g>
				<path class="st0" d="M63.3,100.1L63.3,100.1L63.3,100.1C63.2,100.1,63.3,100.1,63.3,100.1z"/>
				<path class="st25" d="M64,98.8v-24c0-0.4-0.1-0.8-0.2-1.2l4.7-2.7c0.1,0.4,0.2,0.7,0.2,1.1v24c0,0.6-0.3,1-0.7,1.3l0,0l0,0l0,0
					l-4.6,2.7C63.7,99.8,64,99.3,64,98.8z"/>
			</g>
		</g>
		<g>
			<g>
				<g>
					<path class="st22" d="M58.2,74.2L38.3,62.7c-0.6-0.4-1.3-0.3-2,0.1l0,0l-4.4,2.5l2,2.8l0.8,0.9v19.7c0,1.2,0.6,2.3,1.6,2.8
						l14.9,8.6l0.2,0.8l3,4.3l4.7-2.8l0,0l0,0l0,0c0.4-0.3,0.7-0.7,0.7-1.3v-24C59.9,75.9,59.3,74.8,58.2,74.2z"/>
					<path class="st28" d="M53.6,76.9L33.4,65.3c-1-0.6-2.2,0.1-2.2,1.3v24.1c0,1.2,0.6,2.3,1.6,2.8l20.1,11.6
						c1,0.6,2.3-0.1,2.3-1.3v-24C55.3,78.7,54.6,77.5,53.6,76.9z"/>
				</g>
			</g>
			<g>
				<path class="st0" d="M54.5,105.2L54.5,105.2L54.5,105.2L54.5,105.2z"/>
				<path class="st22" d="M55.3,103.9v-24c0-0.4-0.1-0.8-0.2-1.2l4.7-2.7c0.1,0.4,0.2,0.7,0.2,1.1v24c0,0.6-0.3,1-0.7,1.3l0,0l0,0
					l0,0l-4.6,2.7C55,104.9,55.3,104.5,55.3,103.9z"/>
			</g>
		</g>
		<g>
			<g>
				<g>
					<path class="st14" d="M49.5,79.3L29.6,67.8c-0.6-0.4-1.3-0.3-2,0.1l0,0l-4.4,2.5l2,2.8l0.8,0.9v19.7c0,1.2,0.6,2.3,1.6,2.8
						l14.9,8.6l0.2,0.8l3,4.3l4.7-2.8l0,0l0,0l0,0c0.4-0.3,0.7-0.7,0.7-1.3v-24C51.2,81,50.5,79.9,49.5,79.3z"/>
					<path class="st3" d="M44.8,82L24.7,70.4c-1-0.6-2.2,0.1-2.2,1.3v24.1c0,1.2,0.6,2.3,1.6,2.8l20.1,11.6c1,0.6,2.3-0.1,2.3-1.3
						v-24C46.5,83.8,45.9,82.6,44.8,82z"/>
				</g>
			</g>
			<g>
				<path class="st0" d="M45.8,110.3L45.8,110.3L45.8,110.3C45.7,110.3,45.7,110.3,45.8,110.3z"/>
				<path class="st14" d="M46.5,109V85c0-0.4-0.1-0.8-0.2-1.2l4.7-2.7c0.1,0.4,0.2,0.7,0.2,1.1v24c0,0.6-0.3,1-0.7,1.3l0,0l0,0l0,0
					l-4.6,2.7C46.2,110.1,46.5,109.6,46.5,109z"/>
			</g>
		</g>
		<g>
			<polygon class="st11" points="88.9,79 81.6,74.8 81.6,75.2 88.9,79.4 			"/>
			<polygon class="st11" points="81.6,75.9 92.7,82.4 92.7,82 81.6,75.6 			"/>
			<polygon class="st11" points="89.3,79.7 92.7,81.7 92.7,81.3 89.3,79.3 			"/>
			<polygon class="st11" points="88.9,80.5 81.6,76.2 81.6,76.6 88.9,80.8 			"/>
			<polygon class="st11" points="81.6,77.3 92.7,83.8 92.7,83.4 81.6,77 			"/>
			<polygon class="st11" points="89.3,81.1 92.7,83.1 92.7,82.7 89.3,80.7 			"/>
			<polygon class="st11" points="88.9,82.5 81.6,78.3 81.6,78.7 88.9,82.9 			"/>
			<polygon class="st11" points="81.6,79.4 92.7,85.9 92.7,85.5 81.6,79 			"/>
			<polygon class="st11" points="89.3,83.2 92.7,85.1 92.7,84.8 89.3,82.8 			"/>
			<polygon class="st11" points="88.9,83.9 81.6,79.7 81.6,80.1 88.9,84.3 			"/>
			<polygon class="st11" points="81.6,80.8 92.7,87.3 92.7,86.9 81.6,80.4 			"/>
			<polygon class="st11" points="89.3,84.6 92.7,86.5 92.7,86.2 89.3,84.2 			"/>
			<polygon class="st11" points="88.9,86 81.6,81.8 81.6,82.1 88.9,86.3 			"/>
			<polygon class="st11" points="81.6,82.9 92.7,89.3 92.7,89 81.6,82.5 			"/>
			<polygon class="st11" points="89.3,86.6 92.7,88.6 92.7,88.2 89.3,86.3 			"/>
			<polygon class="st11" points="88.9,87.4 81.6,83.2 81.6,83.6 88.9,87.8 			"/>
			<polygon class="st11" points="81.6,84.3 92.7,90.7 92.7,90.4 81.6,83.9 			"/>
			<polygon class="st11" points="89.3,88 92.7,90 92.7,89.6 89.3,87.7 			"/>
			<polygon class="st11" points="88.9,89.4 81.6,85.2 81.6,85.6 88.9,89.8 			"/>
			<polygon class="st11" points="81.6,86.3 92.7,92.8 92.7,92.4 81.6,86 			"/>
			<polygon class="st11" points="89.3,90.1 92.7,92.1 92.7,91.7 89.3,89.7 			"/>
			<polygon class="st11" points="88.9,90.9 81.6,86.7 81.6,87 88.9,91.2 			"/>
			<polygon class="st11" points="81.6,87.7 92.7,94.2 92.7,93.8 81.6,87.4 			"/>
			<polygon class="st11" points="89.3,91.5 92.7,93.5 92.7,93.1 89.3,91.1 			"/>
		</g>
	</g>
	<g>
		<g>
			<g>
				<g>
					<path class="st2" d="M146.7,154.5l-4.9,1.7v6.2c0,1.2,1.6,2.3,3.7,2.3c2,0,3.7-1,3.7-2.3v-6.2L146.7,154.5z"/>
					<ellipse class="st29" cx="145.5" cy="156.2" rx="3.7" ry="2.3"/>
					<path class="st30" d="M142.4,157.4c0.7,0.7,1.8,1.1,3.1,1.1s2.5-0.4,3.1-1.1c0.1-0.1,0.1-0.3,0.1-0.4c0-1.1-1.4-2-3.2-2
						s-3.2,0.9-3.2,2C142.3,157.1,142.3,157.3,142.4,157.4z"/>
				</g>
				<path class="st29" d="M145.5,154.2c1.9,0,3.4,0.9,3.4,2s-1.6,2-3.4,2s-3.4-0.9-3.4-2S143.6,154.2,145.5,154.2 M145.5,153.9
					c-2,0-3.7,1-3.7,2.3s1.6,2.3,3.7,2.3s3.7-1,3.7-2.3S147.5,153.9,145.5,153.9L145.5,153.9z"/>
			</g>
			<path class="st31" d="M148.6,145.7c-0.3,0.7-0.3,1.4-0.3,2.2s0,1.7,0,2.5c0,0.9,0,1.9-0.2,2.8c-0.2,0.9-0.8,1.8-1.6,2.2
				c-0.4,0.2-0.9,0.3-1.3,0.1c-0.2-0.1-0.3-0.3-0.4-0.4c-0.9-1.5-0.1-3.5,0.6-4.9C146.1,148.3,147.2,146.9,148.6,145.7z"/>
			<path class="st32" d="M141.6,152.5c-0.2-3.1-0.1-6.2-0.8-9.2c2,2.5,3,5.9,2.7,9.1c0.7-2.1,1.3-4.3,1.3-6.6c0-1.1,0.6-3.6,0.6-3.6
				s0.4,2.4,0.7,3.6c0.2,0.8,0.3,1.6,0.3,2.5c0.1,1.2,0.1,2.4,0.2,3.7c1-3.1,3.7-7.3,3.7-7.3s-1,8.1-1.5,9.9c-0.6,2.1-2.5,3.5-4.7,3
				C142.2,157.1,141.8,154.2,141.6,152.5z"/>
			<path class="st33" d="M143.2,155.5c-0.4-1.2,0-2.5,0.2-3.7c0.3-1.5,0.4-3,0.1-4.4c1,2.3,2,4.6,2.8,7c0.2,0.6,0.4,1.3,0.2,1.9
				c-0.2,0.6-1.2,1.6-1.9,1.4C144.1,157.6,143.4,156,143.2,155.5z"/>
		</g>
	</g>
</g>
<g>
	<g>
		<g class="st34">
			<g>
				<g>
					<defs>
						<polygon id="SVGID_1_" points="78.1,71.3 79.3,65.1 93.9,73.1 92.8,79.3 						"/>
					</defs>
					<clipPath id="SVGID_2_">
						<use xlink:href="#SVGID_1_"  style="overflow:visible;"/>
					</clipPath>
					<g class="st35">
						<g>
							<g>
								<g>
									<polyline class="st11" points="82.4,66.8 81.9,66.5 81.4,69.1 79.3,68 79.8,65.3 79.3,65.1 78.1,71.3 78.6,71.7 79.2,68.7 
										81.2,69.8 80.7,72.8 81.3,73.1 82.4,66.8 									"/>
									<polyline class="st11" points="86,68.8 82.9,67 82.8,67.7 84.1,68.3 83,74.1 83.6,74.3 84.6,68.7 85.9,69.3 86,68.8 
																			"/>
									<path class="st11" d="M90.5,71.2l-0.7-0.4l-1.3,2.6c-0.3,0.7-0.6,1.3-0.8,1.9l0,0c0-0.7,0-1.5,0-2.4l-0.2-3.5l-0.7-0.4
										l-1.5,6.2l0.5,0.3l0.6-2.7c0.2-0.9,0.4-2,0.6-2.8l0,0c0,0.8,0,1.7,0,2.7l0.1,3.4l0.4,0.2l1.3-2.7c0.4-0.8,0.7-1.4,1-2.1
										l0,0c-0.2,0.8-0.3,1.9-0.4,2.8L89,77.4l0.5,0.3L90.5,71.2"/>
									<polyline class="st11" points="92.1,72.1 91.6,71.8 90.4,78.1 92.8,79.3 92.9,78.7 91.1,77.7 92.1,72.1 									"/>
								</g>
							</g>
						</g>
					</g>
				</g>
			</g>
		</g>
	</g>
</g>
<g>
	<g>
		<g class="st34">
			<g>
				<g>
					<defs>
						<polygon id="SVGID_3_" points="28.4,94.1 27.9,81.8 39.5,87.6 40,99.9 						"/>
					</defs>
					<clipPath id="SVGID_4_">
						<use xlink:href="#SVGID_3_"  style="overflow:visible;"/>
					</clipPath>
					<g class="st36">
						<g>
							<g>
								<g>
									<path class="st16" d="M32.1,84.1l-1.2-0.6l0.3,7.8c0.1,2.3-0.5,2.6-1.7,2.1c-0.4-0.2-0.8-0.5-1-0.7l-0.1,1.2
										c0.3,0.3,0.9,0.7,1.3,0.9c1.7,0.8,2.9,0.5,2.7-2.7L32.1,84.1"/>
									<path class="st16" d="M37,86.3c-1.9-0.9-3.1-0.2-3,1.7c0.1,1.7,1.1,3.2,2.7,4.6c1.3,1.3,1.9,2.1,1.9,3.3
										c0,1.2-0.7,1.7-1.9,1c-0.9-0.4-1.7-1.2-2.3-1.9l-0.3,1.1c0.5,0.7,1.6,1.5,2.5,2c2.3,1.1,3.3,0.1,3.2-1.8
										c-0.1-1.7-0.9-3.1-2.6-4.7c-1.4-1.3-2-2.1-2-3.2c0-0.8,0.4-1.5,1.7-0.9c0.9,0.4,1.5,1.1,1.9,1.5l0.3-1.1
										C38.7,87.6,38,86.8,37,86.3"/>
								</g>
							</g>
						</g>
					</g>
				</g>
			</g>
		</g>
	</g>
</g>
</svg>
