<?xml version="1.0" encoding="utf-8"?>
<!-- Generator: Adobe Illustrator 23.0.1, SVG Export Plug-In . SVG Version: 6.00 Build 0)  -->
<svg version="1.1" id="Calque_1" xmlns="http://www.w3.org/2000/svg" xmlns:xlink="http://www.w3.org/1999/xlink" x="0px" y="0px"
	 viewBox="0 0 294 246" style="enable-background:new 0 0 294 246;" xml:space="preserve">
<style type="text/css">
	.st0{fill:#E0E0E0;}
	.st1{fill:#666666;}
	.st2{fill:#FFFFFF;}
	.st3{fill:#0C2461;}
	.st4{fill:#CCCCCC;}
	.st5{fill:#ED1C24;}
	.st6{fill:#F4F7FF;}
	.st7{fill:#82CCDD;}
	.st8{fill:#EB2F06;}
	.st9{fill:#FA983A;}
	.st10{fill:#BBCEE1;}
	.st11{opacity:0.4;fill:#CCCCCC;enable-background:new    ;}
	.st12{opacity:0.2;fill:#666666;enable-background:new    ;}
	.st13{fill:#E58E26;}
	.st14{fill:#1E3799;}
	.st15{fill:#ED5561;}
	.st16{fill:#F4C5A2;}
	.st17{fill:#222222;}
	.st18{fill:#3C6382;}
	.st19{fill:#FED4BD;}
	.st20{fill:#4A312C;}
</style>
<g>
	<g>
		<g>
			<path class="st0" d="M146.4,133.2l18.3-10.6c0.8-0.4,1.7-0.5,2.5,0l43.4,25c0.7,0.4,0.7,1.5,0,1.9l-17.9,10.4
				c-0.9,0.5-2.1,0.5-3,0l-43.3-25C145.8,134.5,145.8,133.6,146.4,133.2z"/>
			<path class="st1" d="M146.4,134.9l43.3,25c0.9,0.5,2.1,0.5,3,0l17.9-10.4c0.4-0.2,0.5-0.6,0.5-0.9v2.2l0,0l0,0l0,0
				c0,0.4-0.2,0.7-0.5,0.9l-17.9,10.4c-0.9,0.5-2.1,0.5-3,0l-43.3-25c-0.3-0.2-0.5-0.5-0.5-0.9l0,0V134
				C145.9,134.4,146.1,134.7,146.4,134.9z"/>
			<path class="st1" d="M146.4,134.9l43.3,25c0.4,0.2,0.9,0.4,1.4,0.4v2.2c-0.5,0-0.9-0.1-1.4-0.4l-43.3-25
				c-0.3-0.2-0.5-0.5-0.5-0.9l0,0V134C145.9,134.4,146.1,134.7,146.4,134.9z"/>
		</g>
		<g>
			<g>
				<path class="st2" d="M86.3,146.3l25.8-14.9c1.2-0.7,2.7-0.7,3.9,0l79.7,46.1c1.1,0.7,1.2,2.3,0,3L170.6,195
					c-1.4,0.8-3.2,0.8-4.7,0l-79.6-46C85.3,148.4,85.3,146.9,86.3,146.3z"/>
				<path class="st1" d="M86.3,149l79.6,46c1.4,0.8,3.2,0.8,4.7,0l25.2-14.6c0.6-0.3,0.9-0.9,0.9-1.5v3l0,0l0,0l0,0
					c0,0.6-0.3,1.1-0.9,1.5L170.6,198c-1.4,0.8-3.2,0.8-4.7,0l-79.6-46c-0.5-0.3-0.8-0.8-0.8-1.3l0,0v-3
					C85.6,148.2,85.8,148.7,86.3,149z"/>
			</g>
			<g>
				<polygon class="st0" points="111.8,135.6 115.1,133.7 118.7,135.8 115.5,137.7 				"/>
				<polygon class="st0" points="116.4,138.2 119.6,136.3 123.3,138.5 120.1,140.3 				"/>
				<polygon class="st0" points="121,140.9 124.2,139 127.9,141.1 124.7,143 				"/>
				<polygon class="st0" points="125.6,143.5 128.8,141.6 132.5,143.7 129.3,145.6 				"/>
				<polygon class="st0" points="130.2,146.1 133.4,144.3 137.1,146.4 133.8,148.2 				"/>
				<polygon class="st0" points="134.7,148.8 138,146.9 141.6,149 138.4,150.9 				"/>
				<polygon class="st0" points="139.3,151.4 142.5,149.5 146.2,151.6 143,153.5 				"/>
				<polygon class="st0" points="143.9,154 147.1,152.2 150.8,154.3 147.6,156.1 				"/>
				<polygon class="st0" points="148.5,156.7 151.7,154.8 155.4,156.9 152.2,158.8 				"/>
				<polygon class="st0" points="153.1,159.3 156.3,157.4 160,159.6 156.7,161.4 				"/>
				<polygon class="st0" points="157.6,161.9 160.9,160.1 164.5,162.2 161.3,164.1 				"/>
				<polygon class="st0" points="162.2,164.6 165.5,162.7 169.1,164.8 165.9,166.7 				"/>
				<polygon class="st0" points="170,165.3 173.7,167.5 170.5,169.3 166.8,167.2 				"/>
				<polygon class="st0" points="111.3,140.1 107.6,138 110.9,136.1 114.6,138.2 				"/>
				<polygon class="st0" points="119.1,140.9 115.9,142.8 112.2,140.6 115.5,138.8 				"/>
				<polygon class="st0" points="123.7,143.5 120.5,145.4 116.8,143.3 120,141.4 				"/>
				<polygon class="st0" points="128.3,146.2 125.1,148 121.4,145.9 124.6,144 				"/>
				<polygon class="st0" points="132.9,148.8 129.7,150.7 126,148.5 129.2,146.7 				"/>
				<polygon class="st0" points="137.5,151.4 134.2,153.3 130.6,151.2 133.8,149.3 				"/>
				<polygon class="st0" points="142,154.1 138.8,155.9 135.1,153.8 138.4,151.9 				"/>
				<polygon class="st0" points="146.6,156.7 143.4,158.6 139.7,156.5 142.9,154.6 				"/>
				<polygon class="st0" points="151.2,159.3 148,161.2 144.3,159.1 147.5,157.2 				"/>
				<polygon class="st0" points="155.8,162 152.6,163.8 148.9,161.7 152.1,159.9 				"/>
				<polygon class="st0" points="160.4,164.6 157.1,166.5 153.5,164.4 156.7,162.5 				"/>
				<polygon class="st0" points="164.9,167.2 161.7,169.1 158,167 161.3,165.1 				"/>
				<polygon class="st0" points="165.9,167.8 169.5,169.9 166.3,171.8 162.6,169.6 				"/>
				<polygon class="st0" points="107.1,142.5 103.5,140.4 106.7,138.5 110.4,140.7 				"/>
				<polygon class="st0" points="115,143.3 111.7,145.2 108,143.1 111.3,141.2 				"/>
				<polygon class="st0" points="112.6,145.7 115.9,143.8 119.5,145.9 116.3,147.8 				"/>
				<polygon class="st0" points="124.1,148.6 120.9,150.4 117.2,148.3 120.4,146.5 				"/>
				<polygon class="st0" points="128.7,151.2 125.5,153.1 121.8,151 125,149.1 				"/>
				<polygon class="st0" points="133.3,153.9 130.1,155.7 126.4,153.6 129.6,151.7 				"/>
				<polygon class="st0" points="137.9,156.5 134.6,158.4 131,156.2 134.2,154.4 				"/>
				<polygon class="st0" points="142.4,159.1 139.2,161 135.5,158.9 138.8,157 				"/>
				<polygon class="st0" points="147,161.8 143.8,163.6 140.1,161.5 143.3,159.6 				"/>
				<polygon class="st0" points="151.6,164.4 148.4,166.3 144.7,164.2 147.9,162.3 				"/>
				<polygon class="st0" points="156.2,167 153,168.9 149.3,166.8 152.5,164.9 				"/>
				<polygon class="st0" points="153.9,169.4 157.1,167.6 160.8,169.7 157.5,171.5 				"/>
				<polygon class="st0" points="161.7,170.2 165.3,172.3 162.1,174.2 158.4,172.1 				"/>
				<polygon class="st0" points="103,145 99.3,142.8 102.5,141 106.2,143.1 				"/>
				<polygon class="st0" points="103.9,145.5 107.1,143.6 110.8,145.7 107.5,147.6 				"/>
				<polygon class="st0" points="108.4,148.1 111.7,146.2 115.4,148.4 112.1,150.2 				"/>
				<polygon class="st0" points="113,150.8 116.3,148.9 119.9,151 116.7,152.9 				"/>
				<polygon class="st0" points="117.6,153.4 120.8,151.5 124.5,153.6 121.3,155.5 				"/>
				<polygon class="st0" points="122.2,156 125.4,154.2 129.1,156.3 125.9,158.1 				"/>
				<polygon class="st0" points="126.8,158.7 130,156.8 133.7,158.9 130.5,160.8 				"/>
				<polygon class="st0" points="131.4,161.3 134.6,159.4 138.3,161.5 135,163.4 				"/>
				<polygon class="st0" points="135.9,163.9 139.2,162.1 142.8,164.2 139.6,166.1 				"/>
				<polygon class="st0" points="140.5,166.6 143.7,164.7 147.4,166.8 144.2,168.7 				"/>
				<polygon class="st0" points="145.1,169.2 148.3,167.3 152,169.5 148.8,171.3 				"/>
				<polygon class="st0" points="149.7,171.9 152.9,170 156.6,172.1 153.4,174 				"/>
				<polygon class="st0" points="157.5,172.6 161.2,174.7 157.9,176.6 154.3,174.5 				"/>
				<polygon class="st0" points="98.8,147.4 95.1,145.3 98.3,143.4 102,145.5 				"/>
				<polygon class="st0" points="99.7,147.9 102.9,146 106.6,148.1 103.4,150 				"/>
				<polygon class="st0" points="104.3,150.5 107.5,148.7 111.2,150.8 107.9,152.7 				"/>
				<polygon class="st0" points="108.8,153.2 112.1,151.3 115.8,153.4 112.5,155.3 				"/>
				<polygon class="st0" points="113.4,155.8 116.7,153.9 120.3,156.1 117.1,157.9 				"/>
				<polygon class="st0" points="118,158.5 121.2,156.6 124.9,158.7 121.7,160.6 				"/>
				<polygon class="st0" points="122.6,161.1 125.8,159.2 129.5,161.3 126.3,163.2 				"/>
				<polygon class="st0" points="127.2,163.7 130.4,161.9 134.1,164 130.9,165.8 				"/>
				<polygon class="st0" points="131.8,166.4 135,164.5 138.7,166.6 135.4,168.5 				"/>
				<polygon class="st0" points="136.3,169 139.6,167.1 143.2,169.2 140,171.1 				"/>
				<polygon class="st0" points="140.9,171.6 144.1,169.8 147.8,171.9 144.6,173.7 				"/>
				<polygon class="st0" points="145.5,174.3 148.7,172.4 152.4,174.5 149.2,176.4 				"/>
				<polygon class="st0" points="153.3,175 157,177.2 153.8,179 150.1,176.9 				"/>
				<polygon class="st0" points="94.2,145.8 97.8,147.9 94.6,149.8 90.9,147.7 				"/>
				<polygon class="st0" points="102.4,150.6 99.2,152.4 95.5,150.3 98.7,148.5 				"/>
				<polygon class="st0" points="107,153.2 103.8,155.1 100.1,153 103.3,151.1 				"/>
				<polygon class="st0" points="111.6,155.8 108.3,157.7 104.7,155.6 107.9,153.7 				"/>
				<polygon class="st0" points="116.2,158.5 112.9,160.3 109.2,158.2 112.5,156.4 				"/>
				<polygon class="st0" points="120.7,161.1 117.5,163 113.8,160.9 117.1,159 				"/>
				<polygon class="st0" points="121.6,161.6 126.2,164.3 126.2,164.3 127.1,164.8 130.8,166.9 130.8,166.9 132.7,168 135.4,169.5 
					135.4,169.5 138.3,171.2 143.6,174.3 140.4,176.2 134.8,172.9 132.2,171.4 132.2,171.4 129.4,169.8 127.6,168.8 127.6,168.8 
					124,166.7 123,166.1 123,166.1 118.4,163.5 				"/>
				<polygon class="st0" points="148.2,176.9 145,178.8 141.3,176.7 144.5,174.8 				"/>
				<polygon class="st0" points="152.8,179.6 149.6,181.4 145.9,179.3 149.1,177.5 				"/>
			</g>
			<g>
				<polygon class="st0" points="176,172.5 179.2,170.6 182.9,172.7 179.6,174.6 				"/>
				<polygon class="st0" points="180.5,175.1 183.8,173.3 187.4,175.4 184.2,177.2 				"/>
				<polygon class="st0" points="185.1,177.8 188.4,175.9 192,178 188.8,179.9 				"/>
				<polygon class="st0" points="178.7,175.2 175.5,177 171.8,174.9 175,173 				"/>
				<polygon class="st0" points="183.3,177.8 180,179.7 176.4,177.5 179.6,175.7 				"/>
				<polygon class="st0" points="187.8,180.4 184.6,182.3 180.9,180.2 184.2,178.3 				"/>
				<polygon class="st0" points="174.5,177.6 171.3,179.4 167.6,177.3 170.8,175.5 				"/>
				<polygon class="st0" points="179.1,180.2 175.9,182.1 172.2,180 175.4,178.1 				"/>
				<polygon class="st0" points="183.7,182.9 180.4,184.7 176.8,182.6 180,180.7 				"/>
				<polygon class="st0" points="163.4,179.8 166.6,177.9 170.3,180 167.1,181.9 				"/>
				<polygon class="st0" points="168,182.4 171.2,180.5 174.9,182.6 171.7,184.5 				"/>
				<polygon class="st0" points="172.6,185 175.8,183.2 179.5,185.3 176.3,187.1 				"/>
				<polygon class="st0" points="159.2,182.2 162.5,180.3 166.1,182.4 162.9,184.3 				"/>
				<polygon class="st0" points="163.8,184.8 167,182.9 170.7,185.1 167.5,186.9 				"/>
				<polygon class="st0" points="168.4,187.5 171.6,185.6 175.3,187.7 172.1,189.6 				"/>
				<polygon class="st0" points="162,184.8 158.7,186.7 155.1,184.6 158.3,182.7 				"/>
				<polygon class="st0" points="166.5,187.5 163.3,189.3 159.6,187.2 162.9,185.4 				"/>
			</g>
		</g>
		<g>
			<g>
				<g>
					<path class="st1" d="M19.8,37.1l27.1-15.7c0.7-0.4,1.4-0.4,2.2,0.1l0,0l2.4,1.4l-2.2,3l-0.8,0.9v80.7c0,1.3-0.7,2.5-1.8,3.1
						L25,123.1l-0.2,0.9l-3.3,4.7l-2.8-1.6l0,0l0,0l0,0c-0.5-0.3-0.8-0.8-0.8-1.4V40.4C17.9,38.9,18.6,37.7,19.8,37.1z"/>
					<path class="st3" d="M22.5,38.6l27.4-15.8c1.1-0.6,2.4,0.2,2.4,1.4v85.4c0,1.3-0.7,2.5-1.8,3.1l-27.4,15.8
						c-1.1,0.6-2.5-0.2-2.5-1.4V41.8C20.7,40.5,21.4,39.3,22.5,38.6z"/>
				</g>
			</g>
			<g>
				<path class="st4" d="M50.7,22.6L50.7,22.6c-0.3,0-0.5,0.1-0.8,0.2L22.5,38.6c-1.1,0.7-1.9,1.9-1.9,3.2v85.3c0,1,0.8,1.7,1.7,1.7
					c0.3,0,0.6-0.1,0.8-0.2l27.4-15.8c1.1-0.6,1.8-1.8,1.8-3.1V24.2C52.3,23.3,51.6,22.6,50.7,22.6z M50.8,109.7
					c0,0.7-0.4,1.4-1,1.8l-27.4,15.8c0,0-0.1,0-0.1-0.1V41.8c0-0.8,0.4-1.5,1.1-1.8l27.4-15.8c0,0,0,0,0.1,0v0.1L50.8,109.7
					L50.8,109.7z"/>
				<path class="st5" d="M50.7,22.6L50.7,22.6L50.7,22.6z"/>
			</g>
			<g>
				<path class="st1" d="M21.5,128.6L21.5,128.6L21.5,128.6L21.5,128.6z"/>
				<path class="st1" d="M20.7,127.2V41.8c0-0.4,0.1-0.9,0.3-1.3L18.2,39c-0.1,0.4-0.2,0.8-0.2,1.2v85.3c0,0.6,0.3,1.1,0.8,1.4l0,0
					l0,0l0,0l2.7,1.6C21,128.3,20.7,127.8,20.7,127.2z"/>
			</g>
			<polygon class="st6" points="24.2,117.6 48.8,103.3 48.8,105.5 24.2,119.7 			"/>
			<polygon class="st7" points="24.2,121.2 48.8,106.9 48.8,109.1 24.2,123.3 			"/>
			<polygon class="st6" points="48.8,82.6 48.8,100.4 43.2,103.7 43.2,85.8 			"/>
			<polygon class="st8" points="42.4,90.2 42.4,104.1 36.9,107.4 36.9,93.5 			"/>
			<polygon class="st9" points="36.1,97.2 36.1,107.8 30.5,111 30.5,100.4 			"/>
			<polygon class="st6" points="29.8,104.8 29.8,111.5 24.2,114.7 24.2,108 			"/>
			<polygon class="st9" points="48.8,30.4 48.8,49.2 43.2,52.4 43.2,33.6 			"/>
			<polygon class="st6" points="42.4,34 42.4,52.9 36.9,56.1 36.9,37.2 			"/>
			<polygon class="st8" points="36.1,42.6 36.1,56.6 30.5,59.8 30.5,45.9 			"/>
			<polygon class="st6" points="29.8,53.5 29.8,60.2 24.2,63.5 24.2,56.7 			"/>
			<g>
				<polygon class="st6" points="24.2,69.4 34,63.8 34,65.3 24.2,71 				"/>
				<polygon class="st7" points="24.2,72.4 34,66.8 34,68.3 24.2,73.9 				"/>
				<polygon class="st6" points="24.2,75.4 34,69.8 34,71.3 24.2,76.9 				"/>
				<polygon class="st9" points="24.2,78.4 34,72.8 34,74.3 24.2,79.9 				"/>
				<polygon class="st8" points="24.2,81.4 34,75.8 34,77.3 24.2,82.9 				"/>
				<polygon class="st6" points="24.2,84.4 34,78.7 34,80.2 24.2,85.9 				"/>
			</g>
			<g>
				<path class="st6" d="M43.5,61.3c-2.9,1.7-5.2,5.7-5.2,9.1c0,3.3,2.4,4.7,5.3,3c2.9-1.7,5.2-5.7,5.2-9.1
					C48.8,61,46.4,59.7,43.5,61.3z"/>
			</g>
		</g>
		<g>
			<g>
				<g>
					<polygon class="st4" points="227,14.1 271.3,39.7 271.3,87.6 227,61.9 					"/>
					<polygon class="st1" points="271.3,39.7 272.9,38.7 272.9,86.6 271.3,87.6 					"/>
					<polygon class="st1" points="227,14.1 228.7,13.1 272.9,38.7 271.3,39.7 					"/>
				</g>
			</g>
			<polygon class="st2" points="230.4,20.1 267.9,41.8 267.9,81.6 230.4,59.8 			"/>
		</g>
		<g>
			<g>
				<g>
					<path class="st1" d="M235.7,79.8L131.2,19.5c-0.6-0.4-1.4-0.4-2.1,0.1l0,0l-2.3,1.3l2.1,2.9l0.8,0.9v77.6c0,1.2,0.7,2.4,1.7,3
						l99.2,57.3l0.2,0.9l3.2,4.5l2.6-1.5l0,0l0,0l0,0c0.4-0.3,0.7-0.8,0.7-1.3V83.1C237.4,81.6,236.8,80.4,235.7,79.8z"/>
					<path class="st3" d="M233,81.3L128.3,20.9c-1-0.6-2.3,0.2-2.3,1.3v82.2c0,1.2,0.7,2.4,1.7,3l104.7,60.4
						c1.1,0.6,2.4-0.2,2.4-1.4v-82C234.8,83.1,234.1,81.9,233,81.3z"/>
				</g>
			</g>
			<g>
				<path class="st4" d="M126,22.2v82.2c0,1.2,0.7,2.4,1.7,3l104.7,60.4c0.3,0.1,0.5,0.2,0.8,0.2c0.8,0,1.6-0.7,1.6-1.6v-82
					c0-1.3-0.7-2.5-1.8-3.1L128.3,20.9c-0.2-0.1-0.5-0.2-0.8-0.2l0,0C126.7,20.7,126,21.3,126,22.2z M127.5,22.2L127.5,22.2
					L127.5,22.2l104.8,60.4c0.6,0.4,1,1,1,1.8V157c0,0.1-0.1,0.1-0.1,0.1L128.5,96.6c-0.6-0.3-1-1-1-1.7V22.2z"/>
				<path class="st5" d="M127.5,20.7L127.5,20.7L127.5,20.7z"/>
			</g>
			<g>
				<path class="st10" d="M234,167.9L234,167.9L234,167.9L234,167.9z"/>
				<path class="st1" d="M234.8,166.5V84.4c0-0.4-0.1-0.8-0.2-1.2l2.6-1.5c0.1,0.4,0.2,0.8,0.2,1.2V165c0,0.6-0.3,1.1-0.7,1.3l0,0
					l0,0l0,0l-2.6,1.5C234.5,167.6,234.8,167.1,234.8,166.5z"/>
			</g>
		</g>
		<g>
			<g>
				<path class="st1" d="M120.3,154.4c-7.8,0-14.1,3.4-14.1,7.5c0,0.5,0.1,1,0.3,1.5c1.3-3.4,7-6,13.8-6s12.5,2.6,13.8,6
					c0.2-0.5,0.3-1,0.3-1.5C134.4,157.8,128.1,154.4,120.3,154.4z"/>
			</g>
			<path class="st11" d="M120.4,155.9c-7.8,0-14.1,3.3-14.1,7.3s6.3,7.3,14.1,7.3s14.1-3.3,14.1-7.3
				C134.4,159.1,128.1,155.9,120.4,155.9z"/>
			<path class="st12" d="M134.4,163.1c0-3.8-5.7-7-13-7.2l2.6,14.3C130,169.3,134.4,166.5,134.4,163.1z"/>
			<path class="st4" d="M120.4,152.7c-9.6,0-17.3,4.2-17.3,9.4s7.8,9.4,17.3,9.4c9.6,0,17.3-4.2,17.3-9.4
				C137.7,156.9,129.9,152.7,120.4,152.7z M120.3,169.4c-7.8,0-14.1-3.4-14.1-7.5s6.3-7.5,14.1-7.5s14.1,3.4,14.1,7.5
				C134.4,166.1,128.1,169.4,120.3,169.4z"/>
			<path class="st1" d="M120.4,171.5c-9.6,0-17.3-4.2-17.3-9.4v3.8c0,5.2,7.8,9.4,17.3,9.4c9.6,0,17.3-4.2,17.3-9.4v-3.8
				C137.7,167.3,129.9,171.5,120.4,171.5z"/>
			<g>
				<g>
					<g>
						<path class="st4" d="M83.8,186.3c0.3-0.2,0.4-0.7,0.4-1.1c0-0.9-0.5-1.8-1.2-2.4c-0.3-0.3-0.6-0.5-1-0.6c-0.2,0-0.4,0-0.6,0.1
							l24.3-14c0,0,0,0,0.1,0l0,0c0.2-0.1,0.5-0.1,0.7,0s0.5,0.2,0.7,0.4l0,0l0,0c0.7,0.6,1.2,1.5,1.3,2.5c0,0.4-0.1,1-0.5,1.2
							L83.8,186.3C83.7,186.3,83.7,186.3,83.8,186.3C83.7,186.3,83.7,186.3,83.8,186.3L83.8,186.3z"/>
						<g>
							<path class="st1" d="M82.5,182.4c0.9,0.5,1.7,1.8,1.7,2.9c0,1.1-0.8,1.5-1.7,1c-0.9-0.5-1.7-1.8-1.7-2.9
								S81.6,181.9,82.5,182.4z"/>
						</g>
					</g>
				</g>
			</g>
		</g>
		<polygon class="st6" points="230.7,85.3 129.3,26.6 129.3,33.9 230.7,92.6 		"/>
		<polygon class="st6" points="208.2,136.1 184.3,122.3 184.3,123.6 208.2,137.4 		"/>
		<polygon class="st7" points="208.2,133.3 184.3,119.5 184.3,120.8 208.2,134.7 		"/>
		<polygon class="st8" points="208.2,130.6 184.3,116.8 184.3,118.1 208.2,131.9 		"/>
		<polygon class="st6" points="208.2,127.8 184.3,114 184.3,115.3 208.2,129.1 		"/>
		<polygon class="st6" points="208.2,125 184.3,111.2 184.3,112.5 208.2,126.4 		"/>
		<polygon class="st6" points="208.2,122.3 184.3,108.5 184.3,109.8 208.2,123.6 		"/>
		<polygon class="st13" points="208.2,119.5 184.3,105.7 184.3,107 208.2,120.8 		"/>
		<polygon class="st6" points="129.3,43.1 129.3,53.8 141.3,60.7 141.3,50 		"/>
		<polygon class="st6" points="129.3,55.8 129.3,66.4 141.3,73.4 141.3,62.7 		"/>
		<polygon class="st7" points="129.3,68.4 129.3,79.1 141.3,86.1 141.3,75.4 		"/>
		<polygon class="st6" points="129.3,81.1 129.3,91.8 141.3,98.7 141.3,88.1 		"/>
		<g>
			<polygon class="st8" points="143.5,84.2 143.5,100 149.5,103.5 149.5,87.7 			"/>
			<polygon class="st6" points="151.3,85.2 151.3,104.5 157.3,108 157.3,88.6 			"/>
			<polygon class="st13" points="159.1,93.2 159.1,109 165.1,112.5 165.1,96.7 			"/>
			<polygon class="st6" points="166.9,94 166.9,113.6 172.9,117 172.9,97.5 			"/>
			<polygon class="st8" points="174.7,92.1 174.7,118.1 180.7,121.6 180.7,95.6 			"/>
		</g>
		<polygon class="st8" points="210.5,138.7 230.8,150.5 230.8,134.3 		"/>
		<g>
			<path class="st6" d="M220.7,112.4c3.3,1.9,5.9,6.4,5.9,10.2c0,3.7-2.7,5.3-5.9,3.4c-3.3-1.9-5.9-6.4-5.9-10.2
				C214.8,112,217.4,110.5,220.7,112.4z"/>
		</g>
		<g>
			<path class="st6" d="M220.7,94.8c3.3,1.9,5.9,6.4,5.9,10.2c0,3.7-2.7,5.3-5.9,3.4c-3.3-1.9-5.9-6.4-5.9-10.2
				C214.8,94.4,217.4,92.9,220.7,94.8z"/>
		</g>
		<path class="st8" d="M220.7,94.8L220.7,94.8v6.8l3.5,7.4c1.4-0.4,2.4-1.8,2.4-4C226.6,101.2,223.9,96.7,220.7,94.8z"/>
		<path class="st13" d="M220.7,112.4L220.7,112.4v7.1l-4.7,1c1.1,2.3,2.8,4.3,4.7,5.4c3.3,1.9,5.9,0.4,5.9-3.4
			C226.6,118.8,223.9,114.3,220.7,112.4z"/>
		<g>
			<polygon class="st0" points="200.9,239.2 200.9,240.7 264.7,204.1 264.7,203.1 			"/>
			<polygon class="st2" points="264.7,203.1 200.9,239.2 160.2,215.7 224,179.6 			"/>
			<polygon class="st0" points="200.9,239.2 200.9,240.7 160.2,217.1 160.2,215.7 			"/>
		</g>
		<g>
			<polygon class="st0" points="200.9,237.3 200.9,238.7 264.7,202.2 264.7,201.2 			"/>
			<polygon class="st2" points="264.7,201.2 200.9,237.3 160.2,213.8 224,177.7 			"/>
			<polygon class="st0" points="200.9,237.3 200.9,238.7 160.2,215.2 160.2,213.8 			"/>
		</g>
		<g>
			<polygon class="st0" points="200.9,235.4 200.9,236.8 264.7,200.3 264.7,199.2 			"/>
			<polygon class="st2" points="264.7,199.2 200.9,235.4 160.2,211.9 224,175.7 			"/>
			<polygon class="st0" points="200.9,235.4 200.9,236.8 160.2,213.3 160.2,211.9 			"/>
		</g>
		<g>
			<polygon class="st0" points="200.9,233.4 200.9,234.9 264.7,198.3 264.7,197.3 			"/>
			<polygon class="st2" points="264.7,197.3 200.9,233.4 160.2,209.9 224,173.8 			"/>
			<polygon class="st0" points="200.9,233.4 200.9,234.9 160.2,211.3 160.2,209.9 			"/>
		</g>
		<polygon class="st0" points="222.7,179.3 221.6,178.7 188.1,198 187.8,198.2 187.8,198.2 187.8,198.2 188.1,198.4 221.6,217.7 
			222.7,217.1 189.9,198.2 		"/>
		<g>
			<path class="st3" d="M259.2,38.9c-3.1-1.8-5.6-0.3-5.6,3.2s2.5,7.9,5.6,9.6c3.1,1.8,5.6,0.3,5.6-3.2
				C264.8,45,262.3,40.7,259.2,38.9z M259.2,50.8c-2.6-1.5-4.7-5.2-4.7-8.2s2.1-4.2,4.8-2.7c2.6,1.5,4.7,5.2,4.7,8.2
				C263.9,51.1,261.8,52.3,259.2,50.8z"/>
			<path class="st8" d="M259.2,40.6c-2.3-1.3-4.1-0.3-4.1,2.3s1.8,5.8,4.1,7.1c2.3,1.3,4.1,0.3,4.1-2.3
				C263.3,45.1,261.5,41.9,259.2,40.6z M259.2,49.1c-1.8-1-3.3-3.6-3.3-5.6c0-2.1,1.5-2.9,3.3-1.9s3.3,3.6,3.3,5.6
				C262.4,49.3,261,50.1,259.2,49.1z"/>
		</g>
		<g>
			<path class="st3" d="M259.2,53.7c-3.1-1.8-5.6-0.3-5.6,3.2s2.5,7.9,5.6,9.6c3.1,1.8,5.6,0.3,5.6-3.2
				C264.8,59.8,262.3,55.5,259.2,53.7z M259.2,65.6c-2.6-1.5-4.7-5.2-4.7-8.2s2.1-4.2,4.8-2.7c2.6,1.5,4.7,5.2,4.7,8.2
				C263.9,65.9,261.8,67.1,259.2,65.6z"/>
			<path class="st13" d="M259.2,55.4c-2.3-1.3-4.1-0.3-4.1,2.3s1.8,5.8,4.1,7.1c2.3,1.3,4.1,0.3,4.1-2.3
				C263.3,59.9,261.5,56.7,259.2,55.4z M259.2,63.9c-1.8-1-3.3-3.6-3.3-5.6c0-2.1,1.5-2.9,3.3-1.9s3.3,3.6,3.3,5.6
				C262.4,64.1,261,64.9,259.2,63.9z"/>
		</g>
		<g>
			<polygon class="st14" points="217.1,188 199.5,201.5 193.8,198.2 			"/>
			<polygon class="st8" points="215.8,197.4 206.9,205.8 201.2,202.5 			"/>
			<polygon class="st14" points="230,197.7 214.3,210.1 208.7,206.8 			"/>
			<polygon class="st13" points="249.5,195 221.8,214.4 216.1,211.1 			"/>
		</g>
		<g>
			<polygon class="st0" points="245,31.8 232.4,24.5 232.4,25.2 245,32.5 			"/>
			<polygon class="st9" points="251.7,37 232.4,25.8 232.4,26.4 251.7,37.6 			"/>
			<polygon class="st0" points="251.7,35.7 245.8,32.3 245.8,32.9 251.7,36.3 			"/>
			<polygon class="st0" points="245,34.3 232.4,27 232.4,27.6 245,34.9 			"/>
			<polygon class="st0" points="251.7,39.4 232.4,28.2 232.4,28.9 251.7,40 			"/>
			<polygon class="st0" points="251.7,38.1 245.8,34.7 245.8,35.4 251.7,38.8 			"/>
		</g>
		<g>
			<polygon class="st0" points="245,38.7 232.4,31.4 232.4,32.1 245,39.4 			"/>
			<polygon class="st15" points="251.7,43.9 232.4,32.7 232.4,33.3 251.7,44.5 			"/>
			<polygon class="st0" points="251.7,42.6 245.8,39.2 245.8,39.8 251.7,43.2 			"/>
			<polygon class="st0" points="245,41.2 232.4,33.9 232.4,34.5 245,41.8 			"/>
			<polygon class="st0" points="251.7,46.3 232.4,35.1 232.4,35.8 251.7,46.9 			"/>
			<polygon class="st0" points="251.7,45 245.8,41.6 245.8,42.3 251.7,45.7 			"/>
		</g>
		<g>
			<polygon class="st6" points="155.9,58.5 143.5,51.3 143.5,51.9 155.9,59.2 			"/>
			<polygon class="st6" points="162.6,63.6 143.5,52.6 143.5,53.2 162.6,64.2 			"/>
			<polygon class="st6" points="162.6,62.4 156.8,59 156.8,59.6 162.6,63 			"/>
			<polygon class="st6" points="155.9,60.9 143.5,53.7 143.5,54.4 155.9,61.6 			"/>
			<polygon class="st7" points="162.6,66 143.5,55 143.5,55.6 162.6,66.7 			"/>
			<polygon class="st15" points="162.6,64.8 156.8,61.4 156.8,62 162.6,65.4 			"/>
		</g>
		<g>
			<polygon class="st6" points="178.7,71.7 166.3,64.5 166.3,65.1 178.7,72.3 			"/>
			<polygon class="st6" points="185.4,76.8 166.3,65.7 166.3,66.4 185.4,77.4 			"/>
			<polygon class="st9" points="185.4,75.5 179.6,72.2 179.6,72.8 185.4,76.2 			"/>
			<polygon class="st6" points="178.7,74.1 166.3,66.9 166.3,67.5 178.7,74.7 			"/>
			<polygon class="st6" points="185.4,79.2 166.3,68.1 166.3,68.8 185.4,79.8 			"/>
		</g>
		<g>
			<polygon class="st6" points="201.5,84.9 189.1,77.6 189.1,78.3 201.5,85.5 			"/>
			<polygon class="st7" points="208.2,89.9 189.1,78.9 189.1,79.5 208.2,90.6 			"/>
			<polygon class="st15" points="208.2,88.7 202.4,85.3 202.4,86 208.2,89.3 			"/>
			<polygon class="st6" points="201.5,87.3 189.1,80.1 189.1,80.7 201.5,87.9 			"/>
			<polygon class="st6" points="208.2,92.4 189.1,81.3 189.1,81.9 208.2,93 			"/>
			<polygon class="st6" points="208.2,91.1 202.4,87.7 202.4,88.4 208.2,91.7 			"/>
		</g>
		<g>
			<polygon class="st6" points="155.9,65.3 143.5,58 143.5,58.7 155.9,65.9 			"/>
			<polygon class="st6" points="162.6,70.3 143.5,59.3 143.5,59.9 162.6,71 			"/>
			<polygon class="st6" points="162.6,69.1 156.8,65.7 156.8,66.4 162.6,69.7 			"/>
			<polygon class="st6" points="155.9,67.7 143.5,60.5 143.5,61.1 155.9,68.3 			"/>
			<polygon class="st6" points="162.6,72.8 143.5,61.7 143.5,62.3 162.6,73.4 			"/>
			<polygon class="st13" points="162.6,71.5 156.8,68.1 156.8,68.8 162.6,72.2 			"/>
		</g>
		<g>
			<polygon class="st6" points="178.7,78.4 166.3,71.2 166.3,71.8 178.7,79.1 			"/>
			<polygon class="st7" points="185.4,83.5 166.3,72.5 166.3,73.1 185.4,84.1 			"/>
			<polygon class="st6" points="185.4,82.3 179.6,78.9 179.6,79.5 185.4,82.9 			"/>
			<polygon class="st6" points="178.7,80.8 166.3,73.6 166.3,74.3 178.7,81.5 			"/>
			<polygon class="st6" points="185.4,85.9 166.3,74.9 166.3,75.5 185.4,86.6 			"/>
			<polygon class="st6" points="185.4,84.7 179.6,81.3 179.6,81.9 185.4,85.3 			"/>
		</g>
		<g>
			<polygon class="st9" points="201.5,91.6 189.1,84.4 189.1,85 201.5,92.2 			"/>
			<polygon class="st6" points="208.2,96.7 189.1,85.6 189.1,86.3 208.2,97.3 			"/>
			<polygon class="st6" points="208.2,95.4 202.4,92.1 202.4,92.7 208.2,96.1 			"/>
			<polygon class="st6" points="201.5,94 189.1,86.8 189.1,87.4 201.5,94.6 			"/>
			<polygon class="st6" points="208.2,99.1 189.1,88 189.1,88.7 208.2,99.7 			"/>
		</g>
		<g>
			<polygon class="st6" points="155.9,72 143.5,64.8 143.5,65.4 155.9,72.6 			"/>
			<polygon class="st6" points="162.6,77.1 143.5,66 143.5,66.7 162.6,77.7 			"/>
			<polygon class="st15" points="162.6,75.8 156.8,72.5 156.8,73.1 162.6,76.5 			"/>
			<polygon class="st6" points="155.9,74.4 143.5,67.2 143.5,67.8 155.9,75 			"/>
			<polygon class="st6" points="162.6,79.5 143.5,68.4 143.5,69.1 162.6,80.1 			"/>
			<polygon class="st6" points="162.6,78.3 156.8,74.9 156.8,75.5 162.6,78.9 			"/>
		</g>
		<g>
			<polygon class="st6" points="178.7,85.2 166.3,77.9 166.3,78.6 178.7,85.8 			"/>
			<polygon class="st6" points="185.4,90.2 166.3,79.2 166.3,79.8 185.4,90.9 			"/>
			<polygon class="st6" points="185.4,89 179.6,85.6 179.6,86.3 185.4,89.6 			"/>
			<polygon class="st6" points="178.7,87.6 166.3,80.4 166.3,81 178.7,88.2 			"/>
			<polygon class="st9" points="185.4,92.7 166.3,81.6 166.3,82.2 185.4,93.3 			"/>
			<polygon class="st7" points="185.4,91.4 179.6,88 179.6,88.7 185.4,92.1 			"/>
		</g>
		<g>
			<polygon class="st7" points="201.5,98.3 189.1,91.1 189.1,91.7 201.5,99 			"/>
			<polygon class="st6" points="208.2,103.4 189.1,92.4 189.1,93 208.2,104 			"/>
			<polygon class="st6" points="208.2,102.2 202.4,98.8 202.4,99.4 208.2,102.8 			"/>
			<polygon class="st6" points="201.5,100.7 189.1,93.5 189.1,94.2 201.5,101.4 			"/>
			<polygon class="st6" points="208.2,105.8 189.1,94.8 189.1,95.4 208.2,106.5 			"/>
			<polygon class="st15" points="208.2,104.6 202.4,101.2 202.4,101.8 208.2,105.2 			"/>
		</g>
		<g>
			<polygon class="st0" points="245,45.6 232.4,38.3 232.4,39 245,46.3 			"/>
			<polygon class="st7" points="251.7,50.8 232.4,39.6 232.4,40.2 251.7,51.4 			"/>
			<polygon class="st15" points="251.7,49.5 245.8,46.1 245.8,46.7 251.7,50.1 			"/>
			<polygon class="st0" points="245,48.1 232.4,40.8 232.4,41.4 245,48.7 			"/>
			<polygon class="st0" points="251.7,53.2 232.4,42 232.4,42.7 251.7,53.8 			"/>
			<polygon class="st0" points="251.7,51.9 245.8,48.5 245.8,49.2 251.7,52.6 			"/>
		</g>
		<g>
			<polygon class="st0" points="245,52.5 232.4,45.2 232.4,45.9 245,53.2 			"/>
			<polygon class="st0" points="251.7,57.7 232.4,46.5 232.4,47.1 251.7,58.3 			"/>
			<polygon class="st9" points="251.7,56.4 245.8,53 245.8,53.6 251.7,57 			"/>
			<polygon class="st7" points="245,55 232.4,47.7 232.4,48.3 245,55.6 			"/>
			<polygon class="st0" points="251.7,60.1 232.4,48.9 232.4,49.6 251.7,60.7 			"/>
			<polygon class="st0" points="251.7,58.8 245.8,55.4 245.8,56.1 251.7,59.5 			"/>
		</g>
		<g>
			<polygon class="st0" points="245,59.4 232.4,52.1 232.4,52.8 245,60.1 			"/>
			<polygon class="st0" points="251.7,64.6 232.4,53.4 232.4,54 251.7,65.2 			"/>
			<polygon class="st0" points="251.7,63.3 245.8,59.9 245.8,60.5 251.7,63.9 			"/>
			<polygon class="st15" points="245,61.9 232.4,54.6 232.4,55.2 245,62.5 			"/>
			<polygon class="st0" points="251.7,67 232.4,55.8 232.4,56.5 251.7,67.6 			"/>
			<polygon class="st7" points="251.7,65.7 245.8,62.3 245.8,63 251.7,66.4 			"/>
		</g>
		<path class="st3" d="M266.1,97.8c-2.2-1.3-4.3-1.9-6.1-1.9c-4.4,0-7.5,3.5-7.5,9.6c0,8.6,6,19.1,13.5,23.4
			c2.2,1.3,4.3,1.9,6.1,1.9c4.4,0,7.5-3.5,7.5-9.6C279.7,112.7,273.6,102.2,266.1,97.8z M272.1,127.2c-1.2,0-2.7-0.5-4.3-1.4
			c-6.4-3.7-11.7-13-11.7-20.3c0-1.8,0.4-6,3.9-6c1.2,0,2.7,0.5,4.3,1.4c6.4,3.7,11.7,13,11.7,20.3
			C276,123.1,275.6,127.2,272.1,127.2z"/>
		<path class="st8" d="M266.1,97.8c-0.8-0.5-1.7-0.8-2.5-1.1v4c0.2,0.1,0.4,0.2,0.6,0.3c3.9,2.3,7.4,6.6,9.6,11.4l3.8-0.4
			C275.3,106.1,271,100.7,266.1,97.8z"/>
		<path class="st3" d="M266.1,141.5c-2.2-1.3-4.3-1.9-6.1-1.9c-4.4,0-7.5,3.5-7.5,9.6c0,8.6,6,19.1,13.5,23.4
			c2.2,1.3,4.3,1.9,6.1,1.9c4.4,0,7.5-3.5,7.5-9.6C279.7,156.3,273.6,145.8,266.1,141.5z M272.1,170.9c-1.2,0-2.7-0.5-4.3-1.4
			c-6.4-3.7-11.7-13-11.7-20.3c0-1.8,0.4-6,3.9-6c1.2,0,2.7,0.5,4.3,1.4c6.4,3.7,11.7,13,11.7,20.3
			C276,166.7,275.6,170.9,272.1,170.9z"/>
		<path class="st13" d="M277.8,155.8L277.8,155.8c-0.1-0.2-0.1-0.3-0.2-0.5c-0.2-0.5-0.4-1-0.7-1.5c-0.1-0.3-0.3-0.5-0.4-0.8
			c-0.2-0.4-0.4-0.8-0.7-1.2c-0.2-0.3-0.4-0.7-0.6-1s-0.4-0.7-0.6-1c-0.3-0.4-0.5-0.7-0.8-1.1c-0.1-0.2-0.2-0.4-0.4-0.5l0,0
			c-2.1-2.7-4.5-5.1-7.2-6.6c-0.8-0.5-1.7-0.8-2.5-1.1v4c0.2,0.1,0.4,0.2,0.6,0.3c2.2,1.3,4.2,3.2,6,5.4c0.3,0.4,0.6,0.7,0.8,1.1
			c0.2,0.2,0.3,0.5,0.5,0.7c0.2,0.3,0.4,0.7,0.6,1s0.3,0.6,0.5,0.8c0.2,0.3,0.3,0.6,0.5,0.9c0.2,0.3,0.3,0.6,0.5,0.9
			c1.5,3.1,2.3,6.4,2.3,9.3c0,1.8-0.4,6-3.9,6c-1.2,0-2.7-0.5-4.3-1.4c-3-1.7-5.8-4.7-7.9-8.2c-0.7,1.2-1.5,2.4-2.1,3.5
			c2.3,3.3,5.1,6.1,8.1,7.9c2.2,1.3,4.3,1.9,6.1,1.9c4.4,0,7.5-3.5,7.5-9.6C279.8,162.1,279.1,158.9,277.8,155.8z"/>
		<g>
			<path class="st16" d="M41.3,80.4c0,0-0.2-1.5-0.3-1.9c-0.1-0.5-0.4-2.4-0.9-3s-0.5,0.9-0.6,1.3s-0.8,0.7-1.3,0
				c-0.5-0.6-1-2.3-1.5-3.1c-0.5-0.8-2.6,2-2.3,3.5s0.9,2.6,2,3.6s2.4,1.2,2.8,1.7L41.3,80.4z"/>
			<path class="st17" d="M69.9,153.2c0,0,0.2,0.6-2.4,0.7c-2.6,0.1-5.3,0.1-5.6,1.8s2,3.6,4.8,4c2.4,0.3,6.6,0.1,8.9-0.4
				c0.4-0.1,0.7-0.3,0.8-0.7c0.1-0.8,0.2-2.3-0.3-3.9C75.3,152.6,69.9,153.2,69.9,153.2z"/>
			<path class="st17" d="M62.9,155.1c0,0,0.2,0.6-2.4,0.7c-2.6,0.1-5.3,0.1-5.6,1.8s1.6,3,4.4,3.4c2.4,0.3,7.2,0.6,9.1,0.6
				c0.4,0,0.7-0.3,0.8-0.7c0.1-0.8,0.3-2.3,0.1-3.9C69.2,154.8,62.9,155.1,62.9,155.1z"/>
			<path class="st18" d="M75.6,113.6c0,0,0.3,20.6,0.5,23.1s0.7,17.7,0.7,17.7s-4.3,2.2-7.6,0.7L67.3,116L75.6,113.6z"/>
			<path class="st18" d="M69.6,114.9v20.6c0.2,6,0.5,21.8,0.5,21.8c-4.9,0.6-8-2.1-8-2.1c0.3-2.7,0-17.9,0-17.9
				c-1-7.9-1.6-20.6-1.7-22.9c0-0.2,0-0.4,0-0.4L69.6,114.9z"/>
			<path class="st9" d="M78.6,84.6c0,0,3.2,9.8,2.5,15c0,0-2.5,2.2-5.4,3.5L78.6,84.6z"/>
			<path class="st19" d="M61.4,75.5c0,3.8,2.5,6.8,5.6,6.8s5.5-3.1,5.5-6.9s-2.5-6.8-5.6-6.8C63.9,68.6,61.4,71.7,61.4,75.5z"/>
			<path class="st9" d="M70.9,80.8c0,0-4-0.3-7.1,1.9c0,0-0.2,0.7-0.9,1.1c-0.6,0.4-5.3,2.2-5.3,2.2s2.9,19.6,1.3,28.5
				c0,0,6.8,5.3,17.3,0c0,0,1.5-24.3,2.2-29.9C78.6,84.6,76.8,82.4,70.9,80.8z"/>
			<path class="st9" d="M57.7,86l-7.9,1.8l-8.4-8.6c0,0-3,0.9-3.6,3.4L47.9,94l12.3-1C60.2,93,63.2,86.8,57.7,86z"/>
			<path class="st20" d="M65,68.3c0,0-4.3,0.8-4.4,4.5l4,1.3c0,0-0.6,3.1,1.6,3.9c0,0,0.7,2.8,4.8,2.5c0,0,6.2-8.1-1.4-11.9
				C69.7,68.6,67.5,67.9,65,68.3z"/>
		</g>
		<g>
			<path class="st16" d="M148.7,139.8c0,0-1-1-1.3-1.4s-1.6-1.8-1.8-2.6s1,0.2,1.5,0.3c0.4,0.2,1-0.2,0.8-1s-1.2-2.2-1.5-3.1
				c-0.4-0.9,3.2-0.8,4.2,0.3s1.5,2.3,1.6,3.8c0.1,1.4-0.6,2.6-0.4,3.2L148.7,139.8z"/>
			<path class="st8" d="M152.2,138.3l-4.8,0.7l0.7,7.9l7.1,6.4C155.1,153.2,154.8,145.8,152.2,138.3z"/>
			<path class="st17" d="M135.9,208.9c0,0-0.4,1.9,2.1,2.2s3.6,0.3,3.9,2c0.2,1.7-0.5,2.4-3.3,2.6c-2.4,0.1-6.5-0.4-8.8-1.1
				c-0.4-0.1-0.7-0.3-0.7-0.7c0-0.8,0.3-3.1,0.9-4.6C130.9,207.1,135.9,208.9,135.9,208.9z"/>
			<path class="st17" d="M145.7,211.1c0,0-0.2,0.6,2.4,0.7c2.6,0.1,5.3,0.1,5.6,1.8s-1.6,3-4.4,3.4c-2.4,0.3-7.2,0.6-9.1,0.6
				c-0.4,0-0.7-0.3-0.8-0.7c-0.1-0.8-0.3-2.3-0.1-3.9C139.4,210.8,145.7,211.1,145.7,211.1z"/>
			<path class="st3" d="M132.4,168.5c0,0-0.7,20.6-0.9,23.1s-2.1,18.1-2.1,18.1s4.3,2.2,7.6,0.7l3.7-39.6L132.4,168.5z"/>
			<path class="st3" d="M138.4,169.8l1,20.2c-0.2,6-0.4,23.3-0.4,23.3c4.9,0.6,8-2.1,8-2.1c-0.3-2.7,0-19,0-19
				c1-7.9,0.5-20.6,0.6-22.9c0-0.2,0-0.4,0-0.4L138.4,169.8z"/>
			<path class="st8" d="M129.4,139.5c0,0-2.5,9.7-1.8,14.8c0,0,1.8,2.7,5.2,2.4L129.4,139.5z"/>
			<path class="st19" d="M146.6,130.4c0,3.8-2.5,6.8-5.6,6.8s-5.5-3.1-5.5-6.9c0-3.8,2.5-6.8,5.6-6.8
				C144.1,123.6,146.6,126.6,146.6,130.4z"/>
			<path class="st8" d="M137,135.7c0,0,4-0.3,7.1,1.9c0,0,0.2,0.7,0.9,1.1c0.6,0.4,5.3,2.2,5.3,2.2s-2.9,19.6-1.3,28.5
				c0,0-6.8,5.3-17.3,0c0,0-1.5-24.3-2.2-29.9C129.4,139.5,131.2,137.3,137,135.7z"/>
			<path class="st20" d="M143,123.3c0,0,4.3,0.8,4.4,4.5l-4,1.3c0,0,0.6,3.1-1.6,3.9c0,0-0.7,2.8-4.8,2.5c0,0-6.2-8.1,1.4-11.9
				C138.3,123.6,140.5,122.8,143,123.3z"/>
			<path class="st8" d="M150.5,140.9c-4.2,0-2.5,9.1-2.5,9.1l1.4,6.3c0.2,0.9,1,1.3,1.9,1.2c3.4-0.5,3.8-3.6,3.8-3.6
				C155.1,145.6,150.5,140.9,150.5,140.9z"/>
		</g>
	</g>
</g>
</svg>
